<?xml version="1.0" encoding="UTF-8"?>
<svg width="173px" height="138px" viewBox="0 0 173 138" version="1.1" xmlns="http://www.w3.org/2000/svg" xmlns:xlink="http://www.w3.org/1999/xlink">
    <!-- Generator: Sketch 64 (93537) - https://sketch.com -->
    <title>levelll_colored_dark_icon</title>
    <desc>Created with Sketch.</desc>
    <defs>
        <linearGradient x1="0%" y1="50%" x2="108.338719%" y2="50%" id="linearGradient-1">
            <stop stop-color="#00D2FF" offset="0%"></stop>
            <stop stop-color="#3A7BD5" offset="100%"></stop>
        </linearGradient>
    </defs>
    <g id="Logo" stroke="none" stroke-width="1" fill="none" fill-rule="evenodd">
        <g id="colored_dark_icon" transform="translate(-426.000000, -443.000000)" fill="url(#linearGradient-1)">
            <g id="levelll_colored_dark_icon" transform="translate(426.000000, 443.000000)">
                <path d="M15.4991219,4.26325641e-14 L15.8347616,0.00354343486 C23.625937,0.168626766 30.0026534,6.0825457 30.8935704,13.6739598 L30.9283821,14.0003213 L30.9901219,14 L30.9418423,95.215387 C30.9378725,95.216708 30.9358874,95.2180302 30.9348948,95.219353 C30.9339161,102.3004 36.589094,108.05675 43.6270457,108.21217 L43.9339019,108.215385 L78.9991219,108.215 L78.9994753,108.226703 C86.7027197,108.68538 92.830099,114.996527 92.9965269,122.775057 L92.9991219,123.1 L92.9965269,123.424943 C92.8324431,131.093917 86.8741395,137.33655 79.3240145,137.950446 L78.9994753,137.973297 L79,138 L40,138 C39.9936137,138.019154 39.9872274,138.019153 39.9808411,138.01915 C18.1103676,138.008674 0.347843182,120.447936 0.0236319906,98.6614799 L0.0191588619,98.0000046 L0.0581218683,14 L0.0716179491,14.0003213 C0.815443377,6.25268804 7.26276049,0.1709851 15.1652384,0.00354343486 L15.4991219,4.26325641e-14 Z M119,-7.10542736e-14 C126.731986,-7.24746165e-14 133,6.2680135 133,14 L133,124 C133,131.731986 126.731986,138 119,138 C111.268014,138 105,131.731986 105,124 L105,14 C105,6.2680135 111.268014,-6.96339307e-14 119,-7.10542736e-14 Z M159,-5.68434189e-14 C166.731986,-5.82637617e-14 173,6.2680135 173,14 L173,124 C173,131.731986 166.731986,138 159,138 C151.268014,138 145,131.731986 145,124 L145,14 C145,6.2680135 151.268014,-5.5423076e-14 159,-5.68434189e-14 Z" id="Combined-Shape"></path>
            </g>
        </g>
    </g>
</svg>