<?xml version="1.0" encoding="UTF-8"?>
<svg width="518px" height="234px" viewBox="0 0 518 234" version="1.1" xmlns="http://www.w3.org/2000/svg" xmlns:xlink="http://www.w3.org/1999/xlink">
    <!-- Generator: Sketch 64 (93537) - https://sketch.com -->
    <title>levelll_colored_light</title>
    <desc>Created with Sketch.</desc>
    <defs>
        <linearGradient x1="0%" y1="50%" x2="108.338719%" y2="50%" id="linearGradient-1">
            <stop stop-color="#00D2FF" offset="0%"></stop>
            <stop stop-color="#3A7BD5" offset="100%"></stop>
        </linearGradient>
    </defs>
    <g id="Logo" stroke="none" stroke-width="1" fill="none" fill-rule="evenodd">
        <g id="colored_light" transform="translate(-253.000000, -395.000000)">
            <g id="levelll_colored_light" transform="translate(253.000000, 395.000000)">
                <path d="M15.4991219,48 L15.8347616,48.0035434 C23.625937,48.1686268 30.0026534,54.0825457 30.8935704,61.6739598 L30.9283821,62.0003213 L30.9901219,62 L30.9418423,143.215387 C30.9378725,143.216708 30.9358874,143.21803 30.9348948,143.219353 C30.9339161,150.3004 36.589094,156.05675 43.6270457,156.21217 L43.9339019,156.215385 L78.9991219,156.215 L78.9994753,156.226703 C86.7027197,156.68538 92.830099,162.996527 92.9965269,170.775057 L92.9991219,171.1 L92.9965269,171.424943 C92.8324431,179.093917 86.8741395,185.33655 79.3240145,185.950446 L78.9994753,185.973297 L79,186 L40,186 C39.9936137,186.019154 39.9872274,186.019153 39.9808411,186.01915 C18.1103676,186.008674 0.347843182,168.447936 0.0236319906,146.66148 L0.0191588619,146.000005 L0.0581218683,62 L0.0716179491,62.0003213 C0.815443377,54.252688 7.26276049,48.1709851 15.1652384,48.0035434 L15.4991219,48 Z M223.32605,84 L251.090756,141.040777 L276.872269,84 L309,84 L266.031115,176.467968 C263.329654,182.281445 257.501248,186 251.090756,186 C244.661089,186 238.795638,182.329399 235.984795,176.546685 L235.984795,176.546685 L191,84 L223.32605,84 Z M425,48 L425.316976,48.0035176 C432.693261,48.1673836 438.662377,54.0362884 438.98617,61.3720782 L438.996578,61.687355 L439,62 L439,172 L438.996578,172.312645 C438.830327,179.900248 432.6275,186 425,186 C417.3725,186 411.169673,179.900248 411.003422,172.312645 L411,172 L411,62 L411.003422,61.687355 C411.167364,54.2051357 417.201364,48.1697246 424.683024,48.0035176 L425,48 Z M438,2.84217094e-14 C460.09139,2.43635869e-14 478,17.90861 478,40 L478,172 L477.996578,172.312645 C477.830327,179.900248 471.6275,186 464,186 C456.3725,186 450.169673,179.900248 450.003422,172.312645 L450,172 L450,41 C450,33.9228654 444.344808,28.1665717 437.306856,28.0035504 L437,28 L14,28 L13.687355,27.996578 C6.09975237,27.8303269 9.03173709e-16,21.6275002 -3.09256603e-17,14 C-9.52051428e-16,6.47843731 5.93149145,0.342248677 13.3720782,0.0138302059 L13.687355,0.00342204548 L14,2.84217094e-14 L438,2.84217094e-14 Z M144.659838,84.0012819 C172.759507,83.8032287 195.714166,106.579355 195.912051,134.70292 C195.912051,136.089293 196.109936,143.021158 195.912051,144.407531 L195.912051,144.407531 L121.507295,144.209477 C122.89249,148.170543 124.277684,149.953022 127.245959,152.923821 C132.193084,157.6771 138.525404,160.251792 145.055608,160.251792 C151.783698,160.053739 158.116018,157.479047 162.865258,152.725768 L162.865258,152.725768 L163.656798,151.933555 L189.381846,160.053739 C178.696057,176.492161 167.416612,185.800665 145.253493,185.998718 C117.153825,186.196771 94.1991658,163.420645 94.0012808,135.29708 C93.8033959,107.173515 116.56017,84.1993352 144.659838,84.0012819 Z M351.659838,84.0012819 C379.759507,83.8032287 402.714166,106.579355 402.912051,134.70292 C402.912051,136.089293 403.109936,143.021158 402.912051,144.407531 L402.912051,144.407531 L328.507295,144.209477 C329.89249,148.170543 331.277684,149.953022 334.245959,152.923821 C339.193084,157.6771 345.525404,160.251792 352.055608,160.251792 C358.783698,160.053739 365.116018,157.479047 369.865258,152.725768 L369.865258,152.725768 L370.656798,151.933555 L396.381846,160.053739 C385.696057,176.492161 374.416612,185.800665 352.253493,185.998718 C324.153825,186.196771 301.199166,163.420645 301.001281,135.29708 C300.803396,107.173515 323.56017,84.1993352 351.659838,84.0012819 Z M145.4,110 C138.6,110 132.2,112.632911 127.4,117.493671 C125.2,119.924051 123.2,122.759494 122,126 L122,126 L169,126 C167.8,122.759494 165.8,119.924051 163.4,117.291139 C158.6,112.632911 152.2,110 145.4,110 Z M351.4,110 C344.6,110 338.2,112.632911 333.4,117.493671 C331.2,119.924051 329.2,122.759494 328,126 L328,126 L375,126 C373.8,122.759494 371.8,119.924051 369.4,117.291139 C364.6,112.632911 358.2,110 351.4,110 Z" id="Combined-Shape" fill="#111111" fill-rule="nonzero"></path>
                <path d="M-3.09256603e-17,220 C-9.6502503e-16,212.3725 6.09975237,206.169673 13.687355,206.003422 L13.687355,206.003422 L14,206 L477,206 C484.077135,206 489.833428,200.344808 489.99645,193.306856 L490,193 L490,62 L490.003422,61.687355 C490.167364,54.2051357 496.201364,48.1697246 503.683024,48.0035176 L504,48 L504.316976,48.0035176 C511.693261,48.1673836 517.662377,54.0362884 517.98617,61.3720782 L517.996578,61.687355 L518,62 L518,194 C518,216.09139 500.09139,234 478,234 L14,234 L13.687355,233.996578 C6.09975237,233.830327 9.03173709e-16,227.6275 -3.09256603e-17,220 Z" id="Combined-Shape" fill="url(#linearGradient-1)"></path>
            </g>
        </g>
    </g>
</svg>