<?xml version="1.0" encoding="UTF-8"?>
<svg width="590px" height="448px" viewBox="0 0 590 448" version="1.1" xmlns="http://www.w3.org/2000/svg" xmlns:xlink="http://www.w3.org/1999/xlink">
    <!-- Generator: Sketch 64 (93537) - https://sketch.com -->
    <title>undraw_setup_analytics_8qkl</title>
    <desc>Created with Sketch.</desc>
    <defs>
        <linearGradient x1="49.9994739%" y1="100%" x2="49.9994739%" y2="0%" id="linearGradient-1">
            <stop stop-color="#808080" stop-opacity="0.25" offset="0%"></stop>
            <stop stop-color="#808080" stop-opacity="0.12" offset="54%"></stop>
            <stop stop-color="#808080" stop-opacity="0.1" offset="100%"></stop>
        </linearGradient>
        <linearGradient x1="50.9607208%" y1="100.268653%" x2="49.0010747%" y2="-0.806583791%" id="linearGradient-2">
            <stop stop-color="#808080" stop-opacity="0.25" offset="0%"></stop>
            <stop stop-color="#808080" stop-opacity="0.12" offset="54%"></stop>
            <stop stop-color="#808080" stop-opacity="0.1" offset="100%"></stop>
        </linearGradient>
    </defs>
    <g id="WebDesktop" stroke="none" stroke-width="1" fill="none" fill-rule="evenodd">
        <g id="Landing" transform="translate(-640.000000, -165.000000)">
            <g id="header">
                <g id="undraw_setup_analytics_8qkl" transform="translate(640.000000, 165.000000)">
                    <path d="M115.918347,4 C115.918347,4 113.877569,11.9838585 128.141362,34.5514203 C142.405154,57.1189822 141.414537,60.3157821 140.59173,66.7690844 C139.768923,73.2223867 139.817642,76.7556918 131.530027,84.6798477 C131.530027,84.6798477 106.699661,92.8536689 103.381367,97.9500952 C100.063073,103.046521 108.864943,121.57602 108.864943,121.57602 C108.864943,121.57602 117.320367,144.08388 86.9577067,152.719039 C86.9577067,152.719039 63.199155,152.751604 56.6112859,158 C56.6112859,158 59.1609049,148.865511 51.2359745,135.432438 C43.311044,121.999366 54.2294762,108.902798 54.2294762,108.902798 C54.2294762,108.902798 63.0205192,104.05061 68.6015324,103.676112 C74.1825456,103.301614 75.9526632,100.739832 72.3637091,94.3082399 C72.3637091,94.3082399 67.1724466,91.5944879 59.9837119,97.4073448 C52.7949772,103.220202 47.4250789,107.361387 41.1620021,106.872912 C34.8989252,106.384436 25.9671389,103.735814 20.1046391,92.1155283 C14.2421393,80.4952421 11.1566131,64.0661874 6.76650481,56.5653768 C2.37639649,49.0645662 0,47.4200324 0,47.4200324 C0,47.4200324 5.54853395,51.6426306 24.7058624,37.3085924 C43.8631908,22.9745542 53.8613783,29.1076337 53.8613783,29.1076337 C53.8613783,29.1076337 69.2565301,33.2542468 71.724951,60.4731797 C71.724951,60.4731797 76.2016706,86.4112215 85.3012663,70.6985973 C85.3012663,70.6985973 82.2211533,61.8517657 76.0663405,48.825756 C69.9115277,35.7997462 86.3839071,23.5390146 98.4445252,19.4358215 C110.505143,15.3326285 115.918347,4 115.918347,4 Z" id="Path" fill="#FFFFFF" fill-rule="nonzero" opacity="0.498721168"></path>
                    <path d="M17.0537552,54.3020145 L17,54.1700543 C20.7628628,52.6287591 38.1204116,61.8606948 52,69.8785966 L51.9247427,70 C32.3471049,58.69365 19.9619106,53.1196511 17.0537552,54.3020145 Z" id="Path" fill="#444053" fill-rule="nonzero"></path>
                    <path d="M52,70.0817439 L52.1487864,70 C63.1058452,76.6212534 76.2521901,85.0245232 86.0986644,91.8474114 C87.0338934,92.4959128 88.0063191,93.1389646 89,93.7438692 L88.8458998,94 C87.8522189,93.3896458 86.8744794,92.746594 85.9339365,92.0926431 C76.0980899,85.2752044 62.9517449,76.6975477 52,70.0817439 Z" id="Path" fill="#444053" fill-rule="nonzero"></path>
                    <path d="M89,92.1987198 L89.2493915,92 C109.401306,104.315108 137.750609,101.383991 138,101.383991 L134.871764,104.999587 C134.622372,105.016147 109.292875,104.596628 89,92.1987198 Z" id="Path" fill="#444053" fill-rule="nonzero"></path>
                    <path d="M109,23 C109,23 102.434549,41.4703149 107.424723,54.4851016 C112.414898,67.4998883 102.029941,99.7480009 102.029941,99.7480009 C102.029941,99.7480009 98.5826744,113.313245 93.0368377,116.703194 C93.0368377,116.703194 84.9932166,126.791289 80.2781764,127.946705 C75.5631363,129.102122 64.7196228,139.337369 65.0055463,145" id="Path" stroke="#444053"></path>
                    <path d="M118,23 C118,23 113.177518,33.0863927 106,32.999441" id="Path" stroke="#444053"></path>
                    <path d="M128,36 C128,36 125.081146,48.5042456 107,52" id="Path" stroke="#444053"></path>
                    <path d="M135,56 C135,56 126.758223,69.5048285 109,67.8612953" id="Path" stroke="#444053"></path>
                    <path d="M133,80 C133,80 117.6262,91.3710019 106,85.1276207" id="Path" stroke="#444053"></path>
                    <path d="M98,24 C98,24 102.273133,33.2667081 107,30.4760984" id="Path" stroke="#444053"></path>
                    <path d="M82,36 C82,36 87.570356,47.8337724 105,45.7550179" id="Path" stroke="#444053"></path>
                    <path d="M82,54 C82,54 96.9085072,64.3142735 109,61.5197963" id="Path" stroke="#444053"></path>
                    <path d="M89,73 C89,73 101.25125,82.9431812 107,80.6591689" id="Path" stroke="#444053"></path>
                    <path d="M86,79 C86,79 88.2246052,89.0921659 86.0377692,91" id="Path" stroke="#444053"></path>
                    <path d="M77,95 C77,95 82.1925544,88.2424242 80.7452975,87" id="Path" stroke="#444053"></path>
                    <path d="M65.346019,44 C65.346019,44 69.846484,69.1995277 64,76" id="Path" stroke="#444053"></path>
                    <path d="M43,104 C43,104 66.9144098,88.2849285 69,79" id="Path" stroke="#444053"></path>
                    <path d="M28,94 C28,94 50.8129699,83.2746073 57,73" id="Path" stroke="#444053"></path>
                    <path d="M44,37 C44,37 56.0557583,55.2371996 48.5246303,68" id="Path" stroke="#444053" stroke-width="0.75"></path>
                    <path d="M20,77 C20,77 37.4671317,70.3786526 41,64" id="Path" stroke="#444053" stroke-width="0.75"></path>
                    <path d="M25,42 C25,42 29.5600038,52.4557054 27.4361062,57" id="Path" stroke="#444053" stroke-width="0.75"></path>
                    <path d="M82,102.425374 C82,102.425374 98.2580645,100.766709 100,104" id="Path" stroke="#444053"></path>
                    <path d="M108,135 C108,135 107.125789,118.413566 97,112" id="Path" stroke="#444053"></path>
                    <path d="M66,110 C66,110 82.2538964,111.839223 88,122" id="Path" stroke="#444053"></path>
                    <path d="M91.7685911,147 C91.7685911,147 94.388166,134.698355 82,126" id="Path" stroke="#444053"></path>
                    <path d="M54,125.018957 C54,125.018957 67.6746795,124.4168 75,130" id="Path" stroke="#444053"></path>
                    <path d="M72,148 C72,148 70.9444444,137.91025 68,136" id="Path" stroke="#444053"></path>
                    <path d="M278.081834,107.474829 C248.23576,122.508898 215.593825,129.064863 183.767803,134.117965 C151.94178,139.171076 183.363672,144.436402 152,155 C131.830646,161.795552 110.513575,172.800207 100.570323,189.897989 C90.9860721,206.315127 94.5271319,223.821295 99.5966675,239.078615 C103.404259,250.551554 108.299733,262.160621 118.721654,269.173979 C125.966956,274.041946 135.371706,276.323465 143.269738,280.467227 C170.744227,294.869658 111.652027,327.27934 107.224342,358.354831 C105.146486,372.931507 101.578229,387.698763 101.627183,401.986846 C101.676138,416.274929 105.793776,430.432328 117.11864,438.872316 C128.345594,447.236072 145.202344,448.93496 161.72185,447.584561 C195.288485,444.861985 229.040061,430.927837 261.187009,415.953665 C332.367205,382.809015 400.550283,343.293537 468.575618,303.87607 C493.738356,289.288504 519.015321,274.630151 542.181793,257.352679 C555.046012,247.758318 567.747048,236.737328 573.68689,223.549166 C581.253118,206.810764 575.481897,188.574945 560.229775,181.044298 C534.664521,168.411542 491.921591,185.068266 469.875638,168.569451 C457.696786,159.486935 456.108477,142.868327 458.093863,127.267962 C462.347487,93.747597 444.419039,172.863805 431,144.5 C421.78563,125.017241 397.536714,113.680431 371.057637,116.484685 C343.316616,119.425068 312.573038,137.682668 304.305125,162.294762 C295.808758,187.641951 304.435804,94.1723189 278.081834,107.474829 Z" id="Path" fill="#04CCFC" fill-rule="nonzero" opacity="0.1"></path>
                    <path d="M278.081834,107.474829 C248.23576,122.508898 215.593825,129.064863 183.767803,134.117965 C151.94178,139.171067 119.81659,143.064352 88.4529182,153.62795 C68.2835642,160.423502 46.9664933,171.428157 37.0232411,188.525939 C27.4389903,204.943077 30.9800501,222.449245 36.0495857,237.706565 C39.8571768,249.179504 44.7526511,260.788571 55.1745719,267.801928 C62.4198738,272.669896 71.8246239,274.951415 79.7226557,279.095177 C107.197145,293.497608 163.927685,211.924509 159.5,243 C157.422143,257.576676 153.853886,272.343932 153.902841,286.632015 C153.951796,300.920098 158.069434,315.077497 169.394297,323.517485 C180.621252,331.881241 197.478002,333.580128 213.997508,332.22973 C247.564143,329.507154 281.315719,315.573006 313.462666,300.598834 C384.642862,267.454184 400.550283,343.293537 468.575618,303.87607 C493.738356,289.288504 519.015321,274.630151 542.181793,257.352679 C555.046012,247.758318 567.747048,236.737328 573.68689,223.549166 C581.253118,206.810764 575.481897,188.574945 560.229775,181.044298 C534.664521,168.411542 491.921591,185.068266 469.875638,168.569451 C457.696786,159.486935 456.108477,142.868327 458.093863,127.267962 C462.347487,93.747597 479.927679,56.8022305 466.50864,28.4384259 C457.294269,8.95566671 433.045353,-2.38114287 406.566277,0.423111183 C378.825256,3.36349407 348.081677,21.6210937 339.813765,46.2331876 C331.317398,71.5803771 304.435804,94.1723189 278.081834,107.474829 Z" id="Path-Copy" fill="#FFFFFF" fill-rule="nonzero" opacity="0.1"></path>
                    <ellipse id="Oval" fill="#04CCFC" fill-rule="nonzero" opacity="0.1" cx="349.5" cy="414.5" rx="54.5" ry="13.5"></ellipse>
                    <rect id="Rectangle" fill="url(#linearGradient-1)" fill-rule="nonzero" x="74" y="75" width="516" height="293" rx="12.49"></rect>
                    <rect id="Rectangle" fill="#FFFFFF" fill-rule="nonzero" x="74" y="78" width="515" height="289" rx="12.49"></rect>
                    <rect id="Rectangle" fill="#FFFFFF" fill-rule="nonzero" x="74" y="78" width="515" height="289" rx="12.49"></rect>
                    <rect id="Rectangle" fill="#5A5773" fill-rule="nonzero" opacity="0.04" x="74" y="78" width="515" height="289" rx="12.49"></rect>
                    <path d="M586.385373,75 L76.6146271,75 C75.1706084,75 74,76.1978206 74,77.6754072 L74,89 L589,89 L589,77.6754072 C589,76.1978206 587.829392,75 586.385373,75 L586.385373,75 Z" id="Path" fill="#5A5773" fill-rule="nonzero"></path>
                    <g id="4856ee63-6c9d-47e3-9e79-3603b2312fc4" transform="translate(79.000000, 78.000000)" fill="#FFFFFF" fill-rule="nonzero">
                        <ellipse id="Oval" cx="3.90673469" cy="3.87428571" rx="3.58163265" ry="3.71428571"></ellipse>
                        <ellipse id="Oval" cx="13.5495918" cy="3.87428571" rx="3.58163265" ry="3.71428571"></ellipse>
                        <ellipse id="Oval" cx="23.192449" cy="3.87428571" rx="3.58163265" ry="3.71428571"></ellipse>
                    </g>
                    <rect id="Rectangle" fill="#04CCFC" fill-rule="nonzero" opacity="0.1" x="109" y="152" width="430" height="165" rx="10.19"></rect>
                    <path d="M127.01789,141.399419 L536.223437,141.410366 C541.851006,141.411062 546.413014,145.97307 546.413709,151.600639 L546.417587,296.702908 C546.418282,302.330689 541.856186,306.89303 536.228404,306.89318 C536.228222,306.89318 536.228041,306.89318 536.227859,306.892635 L127.022313,306.881688 C121.394744,306.880992 116.832736,302.318984 116.832041,296.691415 L116.828163,151.589146 C116.827467,145.961365 121.389564,141.399025 127.017346,141.398874 C127.017527,141.398874 127.017709,141.398874 127.01789,141.399419 Z" id="Rectangle" fill="#FFFFFF" fill-rule="nonzero" transform="translate(331.622875, 224.146027) rotate(1.460000) translate(-331.622875, -224.146027) "></path>
                    <line x1="183" y1="170" x2="482" y2="178" id="Path" stroke="#5A5773" fill="#F4F4F7" fill-rule="nonzero" opacity="0.2"></line>
                    <line x1="183" y1="193" x2="482" y2="201" id="Path" stroke="#5A5773" fill="#F4F4F7" fill-rule="nonzero" opacity="0.2"></line>
                    <line x1="182" y1="217" x2="481" y2="225" id="Path" stroke="#5A5773" fill="#F4F4F7" fill-rule="nonzero" opacity="0.2"></line>
                    <line x1="181" y1="242" x2="480" y2="250" id="Path" stroke="#5A5773" fill="#F4F4F7" fill-rule="nonzero" opacity="0.2"></line>
                    <line x1="209" y1="236" x2="208" y2="266" id="Path" stroke="#5A5773" opacity="0.2" stroke-dasharray="12"></line>
                    <line x1="181" y1="264" x2="480" y2="272" id="Path" stroke="#5A5773" fill="#F4F4F7" fill-rule="nonzero" opacity="0.2"></line>
                    <line x1="241" y1="267" x2="242" y2="223" id="Path" stroke="#5A5773" opacity="0.2" stroke-dasharray="12"></line>
                    <path d="M440.429071,219.167015 C435.103559,219.624141 429.902905,216.666268 426.716284,213.557813 C423.41566,210.331043 421.021623,206.362115 418.709015,202.500747 C417.976146,201.279952 417.216134,200.021512 416.450694,198.806095 C412.417201,192.470869 408.389138,188.211533 403.780208,185.398865 C402.091461,184.368584 400.280913,183.548533 398.389552,182.957275 C398.20807,183.384297 397.948575,183.774462 397.624112,184.108157 C396.926987,184.827348 395.97033,185.243185 394.96407,185.264416 L394.784924,185.264416 C392.920273,185.214711 391.367728,183.831611 391.120581,182 C389.410915,182.080339 387.724216,182.423237 386.120788,183.016433 C381.38157,184.785778 377.782371,188.587989 374.508891,192.336421 C370.545971,196.864655 366.724197,201.613385 363.162998,206.458918 C362.439177,207.437705 361.715356,208.42187 360.991535,209.411413 C357.126331,214.757096 353.13084,220.280251 347.962758,224.598745 C341.024935,230.428443 332.681089,232.939946 325.640121,231.321183 C317.193131,229.379743 311.151036,221.985061 306.835254,215.757395 C306.292388,214.950702 305.749523,214.14401 305.163228,213.321183 C301.135164,207.405438 296.971385,201.290708 290.826145,197.725127 C282.732018,193.01942 271.554413,193.831491 264.225726,199.645055 C260.65367,202.479235 257.971914,206.329848 255.371587,210.051389 C254.481287,211.331341 253.558416,212.654317 252.608401,213.923514 C247.722609,220.425456 242.798818,223.953391 237.489591,224.71706 C235.384296,224.948346 233.259643,224.948346 231.154349,224.71706 C229.753755,224.620257 228.304304,224.512698 226.887424,224.550344 C219.697131,224.854324 213.193436,228.868667 209.749155,235.128772 L209,266.084255 L443.686265,272 L445,220.785778 C444.186458,221.224053 443.223061,221.298552 442.350724,220.990647 C441.478386,220.682741 440.779586,220.021541 440.429071,219.172393 L440.429071,219.167015 Z" id="Path" fill="#04CCFC" fill-rule="nonzero" opacity="0.2"></path>
                    <line x1="278" y1="193" x2="276" y2="267" id="Path" stroke="#5A5773" opacity="0.2" stroke-dasharray="12"></line>
                    <line x1="311" y1="222" x2="310" y2="268" id="Path" stroke="#5A5773" opacity="0.2" stroke-dasharray="12"></line>
                    <line x1="345" y1="227" x2="344" y2="269" id="Path" stroke="#5A5773" opacity="0.2" stroke-dasharray="12"></line>
                    <line x1="376" y1="190" x2="374" y2="270" id="Path" stroke="#5A5773" opacity="0.2" stroke-dasharray="12"></line>
                    <line x1="408" y1="187" x2="406" y2="270" id="Path" stroke="#5A5773" opacity="0.2" stroke-dasharray="12"></line>
                    <line x1="444" y1="218" x2="443" y2="271" id="Path" stroke="#5A5773" opacity="0.2" stroke-dasharray="12"></line>
                    <path d="M397.793344,178.11191 C397.025747,177.377828 395.996275,176.978086 394.932184,177.000928 C392.984116,177.036377 391.344229,178.462311 391.046728,180.379453 C391.011188,180.60555 390.995868,180.834341 391.00095,181.063135 C391.00095,181.216963 391.00095,181.370791 391.035284,181.518922 C391.156894,182.411535 391.578429,183.236868 392.231249,183.860531 C392.941642,184.565032 393.895559,184.972651 394.89785,185 L395.086687,185 C396.148547,184.980507 397.159167,184.541955 397.896346,183.780768 C398.236654,183.425899 398.509968,183.012892 398.703193,182.561536 C398.852524,182.2071 398.948919,181.832802 398.989309,181.450554 C399.003564,181.278026 399.003564,181.104624 398.989309,180.932096 C398.983328,179.871063 398.552928,178.856143 397.793344,178.11191 Z M397.593063,182.213998 C397.465085,182.491429 397.288787,182.744112 397.072332,182.960351 C396.326533,183.72695 395.212914,184.014184 394.187082,183.704537 C393.161251,183.39489 392.395315,182.540314 392.202637,181.490436 C392.171076,181.342387 392.15383,181.191668 392.151136,181.040345 C392.145066,180.810483 392.168137,180.580777 392.219804,180.356664 C392.509285,179.077515 393.638359,178.160324 394.955073,178.134699 L395.086687,178.134699 C396.613607,178.173882 397.84036,179.400298 397.873457,180.920701 C397.873457,180.977674 397.873457,181.040345 397.873457,181.097319 C397.86332,181.485507 397.767596,181.86673 397.593063,182.213998 L397.593063,182.213998 Z" id="Shape" fill="#04CCFC" fill-rule="nonzero"></path>
                    <circle id="Oval" fill="#04CCFC" fill-rule="nonzero" cx="443.5" cy="217.5" r="3.5"></circle>
                    <path d="M391.950924,180.638275 C391.953491,180.782349 391.969925,180.925848 392,181.066804 C391.629204,181.066804 391.258408,181.066804 390.909423,181.093927 C389.190429,181.175535 387.494495,181.521369 385.881864,182.119144 C381.121496,183.903781 377.506234,187.738852 374.212692,191.51968 C370.232087,196.081625 366.393256,200.87682 362.810711,205.758807 C362.085478,206.746053 361.37115,207.744148 360.629558,208.742243 C356.741651,214.134125 352.728328,219.69959 347.542636,224.060831 C340.568397,229.935488 332.181861,232.468697 325.104017,230.835943 C316.630236,228.883149 310.561175,221.419134 306.198868,215.137645 C305.65358,214.329405 305.075574,213.510316 304.51938,212.680378 C300.467887,206.713506 296.280072,200.54593 290.107407,196.949533 C281.977157,192.203158 270.738763,193.022247 263.388275,198.886055 C259.849353,201.739305 257.122911,205.623196 254.510979,209.376901 C253.611254,210.667915 252.684263,212.007749 251.730009,213.28249 C246.822413,219.840625 241.871194,223.399051 236.538273,224.16932 C234.423431,224.399844 232.2896,224.399844 230.174758,224.16932 C228.748138,224.039974 227.315765,223.983847 225.883338,224.001162 C218.124202,224.322246 211.20837,228.963293 208.003331,236 L207,235.566046 C210.382401,228.150253 217.67171,223.258739 225.85062,222.916277 C227.321339,222.894812 228.792145,222.952757 230.256551,223.089858 C232.291774,223.309548 234.344917,223.309548 236.38014,223.089858 C241.413152,222.368409 246.146255,218.945594 250.852094,212.631559 C251.795443,211.367667 252.716981,210.038681 253.611254,208.753092 C256.266808,204.955991 259.015062,200.990733 262.723023,198.028995 C270.763456,191.772673 281.808319,190.973173 290.674507,196.005683 C297.065287,199.732266 301.32399,206.002906 305.44637,212.072842 C305.991659,212.886507 306.536947,213.700171 307.120406,214.51926 C311.346391,220.638016 317.235506,227.901327 325.365756,229.772755 C332.105521,231.329566 340.137619,228.883149 346.850119,223.225469 C351.915849,218.956443 355.901907,213.461496 359.74619,208.10216 C360.460518,207.104065 361.185752,206.10597 361.927344,205.1133 C365.5317,200.231313 369.386889,195.392722 373.378401,190.798231 C376.764642,186.914339 380.46715,182.970779 385.489256,181.099351 C387.22841,180.460012 389.057042,180.093998 390.909423,180.014465 C391.274766,180.014465 391.651015,179.981919 392,180.014465 C391.958493,180.219683 391.942016,180.429132 391.950924,180.638275 L391.950924,180.638275 Z" id="Path" fill="#04CCFC" fill-rule="nonzero"></path>
                    <path d="M444,217.249789 C437.680993,219.567321 431.001054,216.106897 427.197798,212.434827 C423.922473,209.260126 421.546785,205.349953 419.251903,201.550895 C418.524652,200.355091 417.770465,199.111667 417.005504,197.921154 C413.002928,191.682867 409.005738,187.492263 404.426748,184.724982 C402.750268,183.713923 400.953706,182.90893 399.07741,182.328083 C398.732638,182.216969 398.38248,182.121728 398,182.031778 C398.163544,181.710875 398.253638,181.358718 398.263965,181 C398.61951,181.08995 398.969669,181.190482 399.341375,181.296305 C401.321157,181.905874 403.215847,182.755485 404.981614,183.825484 C409.711442,186.677423 413.816372,190.973851 417.910528,197.354999 C418.680876,198.561385 419.435063,199.80481 420.173088,201.016487 C422.435648,204.752051 424.773627,208.619895 427.946598,211.67819 C431.518211,215.128031 437.772573,218.403264 443.61752,216.260341 L444,217.249789 Z" id="Path" fill="#04CCFC" fill-rule="nonzero"></path>
                    <path d="M184.216085,166.326955 L193.50918,166.327203 C194.006218,166.327265 194.409143,166.73019 194.409204,167.227227 L194.409287,170.326373 C194.409348,170.82343 194.006415,171.226384 193.509359,171.226398 C193.509343,171.226398 193.509327,171.226398 193.509311,171.226349 L184.216216,171.226101 C183.719178,171.226039 183.316253,170.823114 183.316192,170.326077 L183.316109,167.226931 C183.316048,166.729874 183.718981,166.32692 184.216037,166.326907 C184.216053,166.326907 184.216069,166.326907 184.216085,166.326955 Z" id="Rectangle" fill="#04CCFC" fill-rule="nonzero" opacity="0.5" transform="translate(188.862698, 168.776652) rotate(1.460000) translate(-188.862698, -168.776652) "></path>
                    <path d="M183.615355,189.722037 L192.90845,189.722286 C193.405488,189.722347 193.808413,190.125272 193.808474,190.62231 L193.808557,193.721456 C193.808618,194.218512 193.405685,194.621467 192.908629,194.62148 C192.908613,194.62148 192.908597,194.62148 192.908581,194.621432 L183.615486,194.621183 C183.118448,194.621122 182.715523,194.218197 182.715462,193.721159 L182.715379,190.622013 C182.715318,190.124957 183.118251,189.722002 183.615307,189.721989 C183.615323,189.721989 183.615339,189.721989 183.615355,189.722037 Z" id="Rectangle" fill="#04CCFC" fill-rule="nonzero" transform="translate(188.261968, 192.171735) rotate(1.460000) translate(-188.261968, -192.171735) "></path>
                    <path d="M183.019922,213.128144 L192.313017,213.128392 C192.810055,213.128454 193.21298,213.531379 193.213042,214.028416 L193.213124,217.127562 C193.213186,217.624619 192.810253,218.027573 192.313197,218.027586 C192.31318,218.027586 192.313164,218.027586 192.313148,218.027538 L183.020053,218.02729 C182.523016,218.027228 182.120091,217.624303 182.120029,217.127266 L182.119946,214.02812 C182.119885,213.531063 182.522818,213.128109 183.019874,213.128095 C183.01989,213.128095 183.019906,213.128095 183.019922,213.128144 Z" id="Rectangle" fill="#04CCFC" fill-rule="nonzero" opacity="0.5" transform="translate(187.666535, 215.577841) rotate(1.460000) translate(-187.666535, -215.577841) "></path>
                    <path d="M182.424628,236.523365 L191.717723,236.523613 C192.214761,236.523675 192.617686,236.9266 192.617747,237.423637 L192.61783,240.522784 C192.617892,241.01984 192.214959,241.422794 191.717902,241.422808 C191.717886,241.422808 191.71787,241.422808 191.717854,241.42276 L182.424759,241.422511 C181.927722,241.422449 181.524797,241.019524 181.524735,240.522487 L181.524652,237.423341 C181.524591,236.926284 181.927524,236.52333 182.42458,236.523317 C182.424596,236.523317 182.424612,236.523317 182.424628,236.523365 Z" id="Rectangle" fill="#04CCFC" fill-rule="nonzero" opacity="0.5" transform="translate(187.071241, 238.973062) rotate(1.460000) translate(-187.071241, -238.973062) "></path>
                    <path d="M181.829196,259.924028 L191.122291,259.924276 C191.619328,259.924338 192.022253,260.327263 192.022315,260.8243 L192.022398,263.923447 C192.022459,264.420503 191.619526,264.823457 191.12247,264.823471 C191.122454,264.823471 191.122438,264.823471 191.122422,264.823422 L181.829327,264.823174 C181.332289,264.823112 180.929364,264.420187 180.929303,263.92315 L180.92922,260.824004 C180.929158,260.326947 181.332091,259.923993 181.829148,259.92398 C181.829164,259.92398 181.82918,259.92398 181.829196,259.924028 Z" id="Rectangle" fill="#04CCFC" fill-rule="nonzero" opacity="0.5" transform="translate(186.475809, 262.373725) rotate(1.460000) translate(-186.475809, -262.373725) "></path>
                    <path d="M202.40273,270.249102 L211.695825,270.24935 C212.192863,270.249412 212.595788,270.652337 212.595849,271.149374 L212.595932,274.24852 C212.595994,274.745577 212.193061,275.148531 211.696004,275.148545 C211.695988,275.148545 211.695972,275.148545 211.695956,275.148496 L202.402861,275.148248 C201.905824,275.148186 201.502898,274.745261 201.502837,274.248224 L201.502754,271.149078 C201.502693,270.652021 201.905626,270.249067 202.402682,270.249054 C202.402698,270.249054 202.402714,270.249054 202.40273,270.249102 Z" id="Rectangle" fill="#04CCFC" fill-rule="nonzero" opacity="0.5" transform="translate(207.049343, 272.698799) rotate(1.460000) translate(-207.049343, -272.698799) "></path>
                    <path d="M236.920922,271.129254 L246.214017,271.129503 C246.711055,271.129564 247.11398,271.532489 247.114041,272.029527 L247.114124,275.128673 C247.114186,275.625729 246.711253,276.028684 246.214196,276.028697 C246.21418,276.028697 246.214164,276.028697 246.214148,276.028649 L236.921053,276.0284 C236.424016,276.028339 236.021091,275.625414 236.021029,275.128376 L236.020946,272.02923 C236.020885,271.532174 236.423818,271.129219 236.920874,271.129206 C236.92089,271.129206 236.920906,271.129206 236.920922,271.129254 Z" id="Rectangle" fill="#04CCFC" fill-rule="nonzero" opacity="0.5" transform="translate(241.567535, 273.578952) rotate(1.460000) translate(-241.567535, -273.578952) "></path>
                    <path d="M270.430249,273.502155 L279.728338,273.502448 C280.225372,273.50252 280.628294,273.905442 280.628366,274.402476 L280.628464,277.503825 C280.628536,278.000881 280.225605,278.403838 279.728549,278.403853 C279.72853,278.403853 279.728511,278.403853 279.728492,278.403797 L270.430403,278.403504 C269.933369,278.403432 269.530447,278.00051 269.530375,277.503476 L269.530277,274.402127 C269.530205,273.905071 269.933136,273.502114 270.430192,273.502098 C270.430211,273.502098 270.43023,273.502098 270.430249,273.502155 Z" id="Rectangle" fill="#04CCFC" fill-rule="nonzero" transform="translate(275.079371, 275.952976) rotate(1.718358) translate(-275.079371, -275.952976) "></path>
                    <path d="M305.147755,272.868899 L314.44085,272.869148 C314.937887,272.869209 315.340813,273.272134 315.340874,273.769172 L315.340957,276.868318 C315.341018,277.365374 314.938085,277.768329 314.441029,277.768342 C314.441013,277.768342 314.440997,277.768342 314.440981,277.768294 L305.147886,277.768045 C304.650848,277.767984 304.247923,277.365059 304.247862,276.868021 L304.247779,273.768875 C304.247718,273.271819 304.65065,272.868864 305.147707,272.868851 C305.147723,272.868851 305.147739,272.868851 305.147755,272.868899 Z" id="Rectangle" fill="#04CCFC" fill-rule="nonzero" opacity="0.5" transform="translate(309.794368, 275.318596) rotate(1.460000) translate(-309.794368, -275.318596) "></path>
                    <path d="M337.867732,273.708601 L347.160827,273.70885 C347.657865,273.708911 348.06079,274.111836 348.060851,274.608874 L348.060934,277.70802 C348.060995,278.205076 347.658062,278.608031 347.161006,278.608044 C347.16099,278.608044 347.160974,278.608044 347.160958,278.607996 L337.867863,278.607747 C337.370825,278.607686 336.9679,278.204761 336.967839,277.707723 L336.967756,274.608577 C336.967695,274.111521 337.370628,273.708566 337.867684,273.708553 C337.8677,273.708553 337.867716,273.708553 337.867732,273.708601 Z" id="Rectangle" fill="#04CCFC" fill-rule="nonzero" opacity="0.5" transform="translate(342.514345, 276.158298) rotate(1.460000) translate(-342.514345, -276.158298) "></path>
                    <path d="M368.539712,274.485284 L377.832807,274.485533 C378.329845,274.485595 378.73277,274.88852 378.732831,275.385557 L378.732914,278.484703 C378.732976,278.98176 378.330043,279.384714 377.832986,279.384727 C377.83297,279.384727 377.832954,279.384727 377.832938,279.384679 L368.539843,279.384431 C368.042806,279.384369 367.63988,278.981444 367.639819,278.484407 L367.639736,275.38526 C367.639675,274.888204 368.042608,274.48525 368.539664,274.485236 C368.53968,274.485236 368.539696,274.485236 368.539712,274.485284 Z" id="Rectangle" fill="#04CCFC" fill-rule="nonzero" transform="translate(373.186325, 276.934982) rotate(1.460000) translate(-373.186325, -276.934982) "></path>
                    <path d="M400.879445,275.309838 L410.17254,275.310087 C410.669577,275.310148 411.072503,275.713073 411.072564,276.210111 L411.072647,279.309257 C411.072708,279.806313 410.669775,280.209267 410.172719,280.209281 C410.172703,280.209281 410.172687,280.209281 410.172671,280.209233 L400.879576,280.208984 C400.382538,280.208923 399.979613,279.805997 399.979552,279.30896 L399.979469,276.209814 C399.979407,275.712758 400.38234,275.309803 400.879397,275.30979 C400.879413,275.30979 400.879429,275.30979 400.879445,275.309838 Z" id="Rectangle" fill="#04CCFC" fill-rule="nonzero" transform="translate(405.526058, 277.759535) rotate(1.460000) translate(-405.526058, -277.759535) "></path>
                    <path d="M436.380067,278.475515 L444.698155,278.475777 C445.465797,278.475888 446.088087,279.098179 446.088199,279.865821 L446.088266,281.987169 C446.088377,282.754845 445.466073,283.377189 444.698397,283.377213 C444.698368,283.377213 444.698339,283.377213 444.698309,283.377126 L436.380221,283.376864 C435.612579,283.376752 434.990289,282.754462 434.990177,281.98682 L434.99011,279.865471 C434.989999,279.097795 435.612303,278.475452 436.379979,278.475427 C436.380008,278.475427 436.380037,278.475427 436.380067,278.475515 Z" id="Rectangle" fill="#04CCFC" fill-rule="nonzero" transform="translate(440.539188, 280.926320) rotate(1.718358) translate(-440.539188, -280.926320) "></path>
                    <path d="M533.500076,328.874216 C536.181243,328.874034 538.489172,330.767837 539.012417,333.397454 C539.535663,336.027072 538.128492,338.660113 535.65148,339.686305 C533.174468,340.712497 530.317503,339.846029 528.827801,337.616801 C527.338099,335.387573 527.630567,332.416462 529.526341,330.520491 C530.578434,329.463854 532.008979,328.871199 533.500076,328.874216 M533.500076,328.000002 C530.870082,328.000002 528.499269,329.584891 527.493878,332.015132 C526.488486,334.445374 527.046674,337.241987 528.907986,339.10005 C530.769297,340.958112 533.566878,341.511411 535.995355,340.501771 C538.423832,339.492131 540.004564,337.118548 539.99998,334.488555 C539.998465,332.766178 539.312811,331.114944 538.093845,329.898105 C536.874878,328.681266 535.22245,327.998499 533.500076,328.000002 L533.500076,328.000002 Z" id="Shape" fill="#04CCFC" fill-rule="nonzero"></path>
                    <path d="M532,337.450839 L532.308748,337.063104 C532.609958,337.341485 533.013707,337.4995 533.435678,337.504152 C533.950257,337.504152 534.356775,337.256971 534.356775,336.86439 C534.356775,336.471808 533.981132,336.156774 532.941681,336.156774 L532.941681,335.710879 C533.867925,335.710879 534.217839,335.420078 534.217839,335.042037 C534.217839,334.663996 533.903945,334.484668 533.445969,334.484668 C533.084776,334.495271 532.739639,334.627709 532.473413,334.857863 L532.144082,334.484668 C532.511313,334.179499 532.982035,334.007654 533.471698,334 C534.269297,334 534.861063,334.363501 534.861063,334.998417 C534.861063,335.444312 534.516295,335.739959 534.012007,335.8999 L534.012007,335.924133 C534.548081,335.977398 534.965367,336.386804 535,336.89347 C535,337.581699 534.310463,337.998514 533.487136,337.998514 C532.932016,338.019327 532.392902,337.820784 532,337.450839 L532,337.450839 Z" id="Path" fill="#04CCFC" fill-rule="nonzero"></path>
                    <path d="M559.499994,329.874223 C562.181202,329.874046 564.489166,331.767876 565.01242,334.39753 C565.535673,337.027184 564.128481,339.660262 561.651431,340.686468 C559.174381,341.712675 556.317372,340.846194 554.827648,338.616935 C553.337923,336.387676 553.630395,333.416524 555.526198,331.520527 C556.577949,330.463339 558.008749,329.870579 559.499994,329.874223 M559.5,329.000002 C555.910146,329.000002 553,331.910151 553,335.500002 C553,339.089846 555.910146,342.000002 559.5,342.000002 C563.089841,342.000002 566,339.089846 566,335.500002 C566.001496,333.775631 565.317161,332.121456 564.097849,330.902144 C562.878536,329.682832 561.224361,328.998497 559.5,329.000002 L559.5,329.000002 Z" id="Shape" fill="#5A5773" fill-rule="nonzero"></path>
                    <path d="M558.885463,335.331765 C558.885463,335.101176 558.885463,334.809412 558.9163,334.578824 L558.885463,334.578824 C558.762115,334.781176 558.621145,334.983529 558.497797,335.185882 L557.61674,336.414118 L560,336.414118 L560,336.908235 L557,336.908235 L557,336.512941 L558.788546,334 L559.444934,334 L559.444934,338 L558.898678,338 L558.885463,335.331765 Z" id="Path" fill="#5A5773" fill-rule="nonzero"></path>
                    <path d="M545.180297,331.170159 C545.405142,330.94328 545.764988,330.94328 545.989833,331.170159 L548.83147,334.106776 C548.939161,334.21363 549,334.36098 549,334.514954 C549,334.668928 548.939161,334.816279 548.83147,334.923133 L546.033889,337.814396 C545.929517,337.932606 545.781543,338 545.626368,338 C545.471192,338 545.323218,337.932606 545.218846,337.814396 C545.105836,337.70707 545.041556,337.555996 545.041556,337.397714 C545.041556,337.239432 545.105836,337.088358 545.218846,336.981032 L547.619919,334.486609 L545.180297,332.003524 C545.065467,331.896079 545,331.74375 545,331.584007 C545,331.424264 545.065467,331.271934 545.180297,331.16449 L545.180297,331.170159 Z" id="Path" fill="#5A5773" fill-rule="nonzero"></path>
                    <path d="M541.000009,334.98926 C540.995705,337.417932 542.455952,339.609661 544.69893,340.541068 C546.941907,341.472474 549.525159,340.959826 551.242492,339.242492 C552.959826,337.525159 553.472474,334.941907 552.541068,332.69893 C551.609661,330.455952 549.417932,328.995705 546.98926,329.000009 C543.682712,329.002959 541.002959,331.682712 541.000009,334.98926 Z M541.922649,334.98926 C541.918224,332.563527 543.62857,330.472734 546.007067,329.996336 C548.385563,329.519938 550.769213,330.79073 551.699347,333.031054 C552.629482,335.271378 551.846829,337.856751 549.830332,339.205061 C547.813834,340.55337 545.125584,340.28878 543.410649,338.573205 C542.45467,337.62606 541.918642,336.33498 541.922649,334.98926 L541.922649,334.98926 Z" id="Shape" fill="#5A5773" fill-rule="nonzero"></path>
                    <rect id="Rectangle" fill="#5A5773" fill-rule="nonzero" opacity="0.2" x="90" y="102" width="124" height="13" rx="3.86"></rect>
                    <path d="M385.960029,413.085319 C385.062102,409.813904 384.477909,406.924154 384.477909,406.924154 C384.477909,406.924154 384.515773,403.325598 382.811877,400.681204 L382.779422,399.781565 L382.779422,399.781565 L382.525189,393.129688 C382.934022,391.904657 383.44616,390.717159 384.055992,389.580203 C385.170286,387.442879 383.688166,379.831387 383.688166,379.831387 C383.688166,379.831387 378.868573,369.204741 379.679952,362.31296 C380.491332,355.421179 369.478208,332.243205 369.478208,332.243205 C369.451381,329.968472 369.683694,327.698152 370.170585,325.476828 C370.256103,325.009527 370.281555,324.53307 370.246314,324.059215 C370.246314,323.999239 370.246314,323.950168 370.246314,323.88474 C370.246314,323.88474 370.246314,323.922906 370.246314,323.939263 C369.927171,319.430163 366.059596,311.09896 366.059596,311.09896 L365.918957,294.943623 C365.918957,294.943623 367.817585,285.336568 363.636276,272.708906 C362.181202,268.303401 361.218366,264.770273 360.590899,262.033189 C360.520579,261.727857 360.45026,261.427977 360.390759,261.144455 C367.963633,259.67777 373.70279,258.483704 373.70279,258.483704 C373.70279,258.483704 368.5911,240.081995 365.491631,236.946889 C362.392161,233.811783 359.622653,223.692206 359.622653,223.692206 C359.622653,223.692206 357.572567,210.633809 359.925568,206.702658 C362.278568,202.771508 362.386752,196.146893 362.386752,196.146893 C362.386752,196.146893 367.936587,191.741388 368.580282,189.860324 C369.223976,187.979261 370.251723,183.748231 370.170585,181.540026 C370.089447,179.331821 369.294295,177.390781 369.489027,176.218524 C369.683758,175.046267 367.612035,170.711642 368.482916,168.585223 C368.70351,167.932855 368.806109,167.245863 368.785831,166.556945 C368.785831,166.556945 368.785831,166.513327 368.785831,166.49697 C368.785831,166.480612 368.785831,166.49697 368.785831,166.469708 C368.723913,164.642526 368.486604,162.825682 368.077226,161.044611 C366.375293,159.70098 364.409979,158.736499 362.311023,158.214838 L362.164975,157.724125 L361.786331,156.410107 C361.5916,156.290155 361.402278,156.18656 361.212956,156.09387 L361.180501,155.619515 L361.05609,153.738452 L361.786331,149.485612 C363.257633,142.043143 353.461578,141.307075 353.461578,141.307075 C352.828328,140.198037 351.808324,139.366194 350.600113,138.973466 C348.609529,138.351897 350.697479,150.074467 351.644088,150.788726 C352.352693,151.333962 354.629965,154.943423 355.728031,156.720891 L355.728031,156.720891 L355.901126,157.009866 C355.748502,157.164136 355.605772,157.328038 355.473799,157.500579 L355.944399,160.04683 L356.014719,160.433947 C355.401772,161.267168 354.911669,162.185409 354.559645,163.160126 C354.559645,163.160126 356.420409,165.068452 356.149949,167.287561 C355.879489,169.506671 356.885599,172.221946 356.934282,172.369159 C356.826098,172.249207 355.517073,170.929737 354.278367,171.311402 C353.039661,171.693067 349.572366,172.887133 349.572366,172.887133 C349.572366,172.887133 346.970543,173.432369 347.230184,174.026676 C347.489826,174.620983 345.564152,177.232663 345.564152,177.232663 L338.272555,170.782523 C338.196827,170.586238 338.115689,170.389953 338.045369,170.182764 C337.716372,169.234633 337.473758,168.25826 337.320537,167.265752 C338.079865,167.048725 338.82282,166.777232 339.543717,166.453351 C340.273406,166.170026 340.924651,165.713696 341.442344,165.122975 C342.118494,164.245146 342.21045,163.089246 342.459273,162.020584 C342.935283,159.937783 344.082032,158.051267 344.844729,156.055704 C346.156035,152.703699 346.501052,149.046442 345.840021,145.505391 C345.68578,144.410249 345.276094,143.367584 344.644588,142.462975 C343.432929,140.914505 341.328751,140.34746 339.776312,139.137036 C338.223873,137.926613 337.158261,136.02374 335.356999,135.135006 C333.73424,134.338961 331.786929,134.513437 330.001894,134.884197 C326.492754,135.595878 323.146502,136.962442 320.135521,138.91349 C319.134819,139.56232 318.036753,140.314746 316.846729,140.145723 C315.8298,139.998509 315.056285,139.213369 314.374727,138.460944 C314.374727,138.42823 314.374727,138.395516 314.401773,138.362802 L314.320635,138.270111 C313.639913,139.966039 313.337074,141.791985 313.433527,143.618875 C313.433527,143.902397 313.455163,144.18592 313.498437,144.469443 C313.498437,144.567585 313.498437,144.665728 313.525483,144.76387 C313.53089,144.845565 313.53089,144.927532 313.525483,145.009226 L313.525483,145.009226 C313.528959,145.13575 313.516233,145.262197 313.487619,145.385439 C313.352596,145.755417 313.140481,146.091932 312.865561,146.372316 C312.662673,146.625197 312.481702,146.895172 312.324641,147.179265 C312.324641,147.081122 312.378733,146.98298 312.411189,146.89029 C311.986394,147.566977 311.763001,148.352251 311.767494,149.153018 C311.750987,149.735948 311.96279,150.302 312.357097,150.72875 C312.722627,151.062788 313.119344,151.360418 313.541711,151.617484 C313.431162,152.402841 313.391333,153.196668 313.422708,153.98926 C313.623762,158.793136 316.309151,163.138942 320.497937,165.439212 L320.757578,166.038971 C321.747461,168.388938 322.531795,171.142379 322.331654,173.721344 C322.331654,173.912177 322.29379,174.097557 322.266744,174.26658 C322.180197,174.364722 322.099059,174.468317 322.02333,174.571912 L322.02333,174.571912 C322.02333,174.571912 310.409786,175.117148 307.580776,172.745372 C304.751767,170.373596 300.911237,179.108274 300.911237,179.108274 C300.911237,179.108274 296.778612,180.084246 295.918549,179.304559 C295.058487,178.524872 290.201029,179.408154 290.201029,179.408154 C288.136844,177.69887 285.504881,176.845087 282.839113,177.020021 C281.167667,175.836875 279.33709,174.900513 277.402871,174.239318 L277.402871,174.239318 L277.27305,174.195699 L277.27305,174.195699 C276.423302,173.920454 275.523221,173.840347 274.638772,173.961248 C274.638772,173.961248 268.748157,169.424886 266.984759,166.933158 C265.221361,164.441431 256.923654,155.276016 256.88579,155.23785 L256.847925,154.7744 L256.707286,153.400405 C256.473191,153.444813 256.236498,153.473952 255.998682,153.487643 C255.951802,153.353152 255.892301,153.195033 255.820178,153.013288 C255.312021,151.69332 254.698783,150.416942 253.986461,149.196637 C253.986461,149.196637 253.92155,147.451883 254.408378,147.015694 C254.895206,146.579505 253.937778,140.200246 253.937778,140.200246 C253.937778,140.200246 248.328441,128.270487 244.060586,137.506781 C244.060586,137.506781 235.568148,143.706113 243.146432,150.24349 C243.146432,150.24349 246.121489,151.552056 246.575862,152.664337 C246.873368,153.389501 247.944389,155.390516 248.663812,156.731796 L248.982954,157.331556 L248.901816,157.402436 L249.053274,158.536527 L249.112775,158.978168 C247.765885,159.823283 246.862549,160.641137 247.111372,161.219087 C247.555699,162.2092 247.875517,163.251408 248.063391,164.321479 C248.063391,164.321479 258.665415,176.703784 260.185399,182.107071 C260.185399,182.107071 287.934576,197.308245 296.903023,198.126099 L295.669726,206.304636 C295.669726,206.304636 295.37763,211.211759 295.561542,212.934704 C295.745455,214.657649 294.858347,222.61264 294.858347,222.61264 C294.858347,222.61264 293.776508,234.286138 292.510756,235.960012 C291.245004,237.633886 291.764287,244.591095 291.764287,244.591095 C291.579114,247.938831 291.108583,251.264306 290.357896,254.530744 C289.216555,258.990773 290.357896,264.410417 290.357896,264.410417 C290.357896,264.410417 286.236088,275.037063 296.78943,267.534618 C296.78943,267.534618 302.095851,266.989382 308.208243,266.547741 C308.208243,266.749479 308.208243,266.951216 308.208243,267.163858 C308.208243,267.959902 308.240698,268.799565 308.267744,269.726466 C308.413793,275.72406 308.695071,283.962573 309.198126,290.189166 C310.096053,301.197477 314.261134,322.903315 314.261134,322.903315 L314.677642,333.868007 C314.504418,334.906988 314.440956,335.961551 314.48832,337.014018 C314.558746,340.881392 315.720118,344.648617 317.836612,347.875116 L318.950907,355.159466 C318.950907,355.159466 321.114585,359.897565 321.233587,362.792767 C321.236104,363.028366 321.218004,363.263729 321.179495,363.496122 C321.119848,363.867299 321.101704,364.244051 321.125404,364.619307 C321.125404,367.945246 323.429721,375.812999 323.429721,375.812999 C323.429721,375.812999 323.857048,383.81706 325.05248,384.236892 C326.085636,384.596748 323.867866,388.904111 323.207944,390.147248 C323.207944,390.070915 323.17008,389.994582 323.153852,389.918249 L323.018622,390.163605 C322.795739,390.819071 322.694879,391.510394 322.721116,392.202787 C322.627944,393.324816 323.18374,394.400714 324.149144,394.967133 C326.46428,396.275699 327.724623,397.38798 325.820586,397.927763 C325.119347,398.073295 324.426044,398.255283 323.743454,398.472999 L323.635271,398.211286 C323.127244,398.462927 322.846734,399.023971 322.948303,399.58528 C322.915847,400.168682 323.143034,401.01925 323.759682,402.273293 C325.825995,406.493418 327.210749,408.069149 327.210749,408.069149 L328.119494,407.927388 C327.997486,408.284582 327.832154,408.625209 327.627257,408.941527 C327.300695,409.458548 326.855404,409.88869 326.32905,410.195569 C325.838187,410.517857 325.285103,410.731564 324.706291,410.82259 C323.400857,410.913121 322.196119,411.561965 321.395863,412.605511 C320.270751,414.1976 319.605419,416.334924 322.02333,418.096036 L330.645589,420.724073 C330.645589,420.724073 345.353193,422.076257 344.449857,418.793938 C343.546522,415.511618 342.967738,412.632773 342.967738,412.632773 C342.947947,410.608089 342.464808,408.61533 341.555937,406.809655 C341.397065,406.514583 341.216241,406.232069 341.015018,405.964539 L341.528891,405.882754 C341.528891,405.882754 342.324043,398.527523 343.69257,397.082648 C344.006303,396.744602 344.071214,396.499245 343.990076,396.308413 C344.119896,395.904938 343.741253,395.686844 343.254425,395.572345 C343.22197,395.670487 343.189515,395.763177 343.162469,395.866772 C342.703602,395.786456 342.237799,395.753571 341.772305,395.768629 C341.772305,395.768629 341.150248,391.951979 342.643186,390.501651 C342.885038,390.171442 342.97736,389.753665 342.897418,389.351204 C342.890826,388.826088 342.818122,388.303939 342.68105,387.797282 C342.68105,387.797282 342.648595,387.857258 342.626958,387.889972 C341.712804,384.444082 338.867567,379.018985 338.867567,379.018985 C338.867567,379.018985 338.618744,375.540381 339.516671,374.111863 C340.414597,372.683345 338.672836,355.19218 338.672836,355.19218 C338.672836,355.19218 338.705291,346.702859 337.482813,342.79897 C336.260334,338.895082 338.44024,334.156982 338.44024,334.156982 C338.44024,334.156982 338.44024,334.064292 338.402376,333.906174 C338.413812,333.887383 338.422896,333.867238 338.429422,333.846198 C338.429422,333.846198 338.359103,333.300962 338.2401,332.515823 C338.2401,332.515823 338.2401,332.570346 338.2401,332.597608 C337.915548,330.362141 337.304309,326.316491 336.89862,324.451785 C336.319836,321.801939 336.42802,309.005254 336.42802,309.005254 L338.364512,303.465658 L342.529593,312.734667 L347.051681,325.116973 C347.051681,325.116973 349.161267,327.685033 349.307316,330.367594 C349.307316,330.49845 349.307316,330.629307 349.307316,330.760163 C349.307316,331.049138 349.307316,331.305399 349.307316,331.599826 C349.297775,333.187013 349.790419,334.735945 350.713707,336.021689 C350.713707,336.021689 352.011914,341.899331 353.732038,343.344206 C355.452162,344.789081 355.571165,347.706092 355.571165,347.706092 C355.571165,347.706092 357.918756,356.217223 358.930276,357.68936 C359.779519,358.932498 359.958023,362.427459 360.012115,363.496122 L360.012115,363.496122 C360.012115,363.692406 360.012115,363.806906 360.012115,363.806906 C360.012115,363.806906 360.412395,366.865679 360.498942,369.450097 C360.498942,369.766333 360.498942,370.077118 360.498942,370.366093 C360.498942,370.366093 360.498942,370.322474 360.498942,370.300665 C360.524027,371.004572 360.467754,371.70903 360.331257,372.399822 C360.331257,372.432537 360.331257,372.476155 360.298802,372.519774 C360.298802,372.372561 360.298802,372.225347 360.298802,372.083586 C359.945416,373.852051 359.809164,375.657614 359.893113,377.459611 C359.958023,380.551098 360.563853,384.187821 362.500345,386.265169 C365.854047,389.858273 367.860858,389.313037 367.860858,389.313037 C367.860858,389.313037 366.492332,394.018422 364.615341,395.021656 C364.545107,395.058833 364.479701,395.104616 364.42061,395.157965 C364.42061,395.070728 364.377336,394.978038 364.361109,394.8908 C363.960137,395.378461 363.781454,396.013788 363.868872,396.641007 C363.809371,398.691093 365.215762,401.957056 366.486923,403.434645 C366.948001,403.858465 367.505214,404.161761 368.109681,404.317927 C368.016575,404.389576 367.919009,404.455139 367.817585,404.514212 C367.610304,404.640458 367.39531,404.753366 367.173891,404.852258 C366.87089,405.002333 366.545705,405.101772 366.211054,405.146685 C364.906566,405.235283 363.702761,405.884686 362.906035,406.929607 C361.780922,408.516243 361.110182,410.653567 363.528092,412.414679 L372.15576,415.042715 C372.15576,415.042715 386.863365,416.367639 385.960029,413.085319 Z" id="Path" fill="url(#linearGradient-2)" fill-rule="nonzero"></path>
                    <path d="M329.218962,420.693954 L320.638416,417.886729 C318.230524,415.991852 318.886716,413.699285 320.010028,411.997405 C320.788498,410.887063 321.988525,410.188769 323.29655,410.084983 C323.868423,409.987848 324.41316,409.760287 324.892543,409.418267 C325.421613,409.086813 325.86625,408.625214 326.188244,408.073139 C326.767288,407.016573 327.057855,405.812444 327.027948,404.59335 C327.027948,404.59335 336.220199,401.353344 338.867211,404.113782 C339.340422,404.612875 339.741381,405.182345 340.057255,405.803965 C340.965967,407.744921 341.45047,409.875023 341.475297,412.038344 C341.475297,412.038344 342.059197,415.126291 342.960071,418.647019 C343.860945,422.167747 329.218962,420.693954 329.218962,420.693954 Z" id="Path" fill="#2D293D" fill-rule="nonzero"></path>
                    <path d="M369.223524,414.698779 L360.636512,411.871127 C358.228366,409.978236 358.890189,407.688072 360.008058,405.987975 C360.78519,404.877979 361.986611,404.181816 363.294926,404.0834 C363.628317,404.035073 363.95165,403.928438 364.251511,403.767918 C364.474164,403.664987 364.689731,403.545907 364.896649,403.411541 C367.21581,401.945134 367.026717,398.59168 367.026717,398.59168 C367.026717,398.59168 376.219937,395.35507 378.87279,398.112615 C379.226753,398.485885 379.540123,398.899329 379.807129,399.345331 C381.508959,402.178825 381.47559,406.046398 381.47559,406.046398 C381.47559,406.046398 382.065112,409.136951 382.96052,412.648147 C383.855927,416.159342 369.223524,414.698779 369.223524,414.698779 Z" id="Path" fill="#2D293D" fill-rule="nonzero"></path>
                    <path d="M338.798717,404.879966 C339.276397,405.273841 339.681143,405.723256 340,406.213827 L340,406.213827 L326,408 C326.584512,407.166178 326.877824,406.215902 326.847634,405.253816 C326.847634,405.253816 336.126704,402.701481 338.798717,404.879966 Z" id="Path" fill="#000000" fill-rule="nonzero" opacity="0.1"></path>
                    <path d="M379.904085,399.329691 L380,402.051438 C378.060391,405.864204 367.984014,405.46958 365,403.722788 C365.213328,403.620542 365.419866,403.502256 365.618117,403.368786 C367.840142,401.912159 367.65897,398.581066 367.65897,398.581066 C367.65897,398.581066 376.46714,395.366039 379.008881,398.105195 C379.348018,398.475977 379.648263,398.886664 379.904085,399.329691 Z" id="Path" fill="#000000" fill-rule="nonzero" opacity="0.1"></path>
                    <path d="M380.59748,388.629559 C379.99935,389.763916 379.4989,390.946414 379.101476,392.164427 L379.457667,401.31158 C377.265719,405.221689 365.083966,404.411388 363.368767,402.399232 C361.653567,400.387076 359.697253,395.003199 361.52753,394.002559 C363.357807,393.001919 364.694895,388.319578 364.694895,388.319578 C364.694895,388.319578 362.727622,388.863404 359.434219,385.274152 C356.140817,381.684901 356.754563,373.429623 357.242271,371.439219 C357.72998,369.448816 356.902519,362.868522 356.902519,362.868522 C356.902519,362.868522 356.842241,358.235125 355.850384,356.766795 C354.858527,355.298464 352.562462,346.803903 352.562462,346.803903 C352.562462,346.803903 352.452864,343.90531 350.759584,342.453295 C349.066304,341.00128 347.789494,335.144274 347.789494,335.144274 C346.777033,333.704762 346.296936,331.962257 346.430486,330.211772 C346.666121,327.302303 344.211139,324.262316 344.211139,324.262316 L339.761484,311.912028 L335.66254,302.666987 L333.771985,308.192258 C333.771985,308.192258 333.684307,320.950416 334.254213,323.59341 C334.82412,326.236404 335.799537,333.278951 335.799537,333.278951 C335.799537,333.278951 333.640468,337.99936 334.84604,341.893154 C336.051611,345.786948 336.024212,354.259757 336.024212,354.259757 C336.024212,354.259757 337.755851,371.705694 336.873592,373.130518 C335.991333,374.555342 336.248886,378.024952 336.248886,378.024952 C336.248886,378.024952 341.427364,388.03135 339.964239,389.477927 C338.501113,390.924504 339.114859,394.725848 339.114859,394.725848 C339.114859,394.725848 342.402781,394.600768 341.032814,396.047345 C339.662846,397.493922 338.923063,404.824696 338.923063,404.824696 L324.878155,407 C324.878155,407 323.519147,405.428343 321.486115,401.213692 C319.453083,396.99904 321.68887,397.379718 323.546546,396.863084 C325.404222,396.346449 324.176731,395.231606 321.902585,393.910109 C319.628439,392.588612 320.806611,389.428983 320.806611,389.428983 C320.806611,389.428983 323.968496,383.62636 322.784844,383.207614 C321.601192,382.788868 321.173762,374.805502 321.173762,374.805502 C321.173762,374.805502 318.472186,365.397313 318.981814,362.841331 C319.491442,360.285349 316.789865,354.227127 316.789865,354.227127 L315.693891,346.961612 C311.167518,339.908189 312.537486,333.257198 312.537486,333.257198 L312.099096,322.021753 C312.099096,322.021753 307.989193,300.377479 307.095974,289.392194 C306.547987,282.355086 306.235634,272.740243 306.104118,266.736404 C306.027399,263.364683 306,261.134997 306,261.134997 L356.206576,254 C356.206576,254 356.244935,256.31126 357.406667,261.396033 C358.025893,264.115163 358.97391,267.650032 360.409636,272.049584 C364.51954,284.644594 362.672823,294.226807 362.672823,294.226807 L362.831739,310.340371 C362.831739,310.340371 367.681425,320.939539 366.892324,324.681062 C366.426401,326.898338 366.207717,329.159758 366.240219,331.424504 C366.240219,331.424504 377.068444,354.553423 376.284822,361.427383 C375.5012,368.301344 380.230329,378.900512 380.230329,378.900512 C380.230329,378.900512 381.682495,386.497761 380.59748,388.629559 Z" id="Path" fill="#575988" fill-rule="nonzero"></path>
                    <path d="M350,329.635521 L365,327 C365,327 356.816224,336.205145 350,329.635521 Z" id="Path" fill="#000000" fill-rule="nonzero" opacity="0.05"></path>
                    <path d="M361.113512,312 C361.113512,312 361.730528,317.70767 359,320 C359,320 363.972969,318.772793 361.113512,312 Z" id="Path" fill="#000000" fill-rule="nonzero" opacity="0.1"></path>
                    <path d="M361,295 C361,295 348.424473,306.703515 343.670514,305.966606 C338.916554,305.229696 361,295 361,295 Z" id="Path" fill="#000000" fill-rule="nonzero" opacity="0.1"></path>
                    <path d="M332,335 C332,335 322.146774,337.79246 322.001545,342.043402 C321.856316,346.294344 332,335 332,335 Z" id="Path" fill="#000000" fill-rule="nonzero" opacity="0.1"></path>
                    <path d="M335.465814,383 C335.465814,383 321.736508,386.330863 325.727586,388.0523 C329.718663,389.773738 336.225495,391 336.225495,391 C336.225495,391 340.684492,391.082502 335.465814,383 Z" id="Path" fill="#000000" fill-rule="nonzero" opacity="0.05"></path>
                    <g id="Group" opacity="0.05" transform="translate(306.000000, 261.000000)" fill="#000000" fill-rule="nonzero">
                        <path d="M16.653913,129.793457 C15.9359392,129.382831 15.4442444,128.674912 15.3156522,127.866691 L15.1834783,128.116357 C15.1834783,128.116357 14.0104348,131.286022 16.2849275,132.588625 C16.5492754,132.735167 16.7915942,132.88171 17.0284058,133.028253 C17.4304348,132.935985 17.8765217,132.865428 18.2950725,132.740595 C20.1785507,132.208699 18.9394203,131.096059 16.653913,129.793457 Z" id="Path"></path>
                        <path d="M34.4202899,128.19777 C34.7892754,127.834126 34.7397101,126.949442 34.4643478,125.815093 C33.8750725,126.73777 33.775942,128.132639 33.8089855,129.191004 C33.9358315,128.8195 34.1445998,128.480298 34.4202899,128.19777 L34.4202899,128.19777 Z" id="Path"></path>
                        <path d="M30.0695652,70.7638662 C29.6127236,72.1492615 29.3532422,73.5904514 29.2985507,75.046171 C29.5247792,74.0314132 29.84556,73.039399 30.2568116,72.0827509 C30.2568116,72.0827509 30.1852174,71.5888476 30.0695652,70.7638662 Z" id="Path"></path>
                        <path d="M61.5104348,63.5127138 C61.5884123,63.0940255 61.6161391,62.6677501 61.5930435,62.2426766 C61.4498551,63.1165056 61.3617391,63.919777 61.3011594,64.6253532 C61.3617391,64.250855 61.4333333,63.8926394 61.5104348,63.5127138 Z" id="Path"></path>
                        <path d="M31.3417391,111.877249 C31.517971,111.589591 31.5895652,110.628922 31.5895652,109.299182 C31.1980891,110.340439 31.0111916,111.445588 31.0388406,112.555688 C31.1119036,112.318414 31.2135969,112.090639 31.3417391,111.877249 Z" id="Path"></path>
                        <path d="M35.0976812,133.560149 C34.2330435,136.197918 33.7594203,140.719033 33.7594203,140.719033 L19.6443478,142.890037 C19.6443478,142.890037 18.2785507,141.321487 16.2463768,137.104312 C16.0701449,136.735242 15.9214493,136.404164 15.8057971,136.100223 C14.9742029,136.518141 14.6713043,137.397398 15.8884058,139.89948 C17.9315942,144.105799 19.2918841,145.674349 19.2918841,145.674349 L33.4069565,143.503346 C33.4069565,143.503346 34.177971,136.181636 35.5327536,134.737918 C36.1881159,134.043197 35.7310145,133.722974 35.0976812,133.560149 Z" id="Path"></path>
                        <path d="M15.5524638,113.516357 C15.5524638,113.516357 15.982029,121.489368 17.1715942,121.907286 L17.1715942,121.907286 C17.7223188,120.561264 18.0582609,119.296654 17.524058,119.112119 C16.3344928,118.694201 15.9049275,110.72119 15.9049275,110.72119 C15.9049275,110.72119 13.1898551,101.337026 13.702029,98.7806691 C14.2142029,96.2243123 11.4991304,90.1834944 11.4991304,90.1834944 L10.3976812,82.9377695 C5.89826087,75.930855 7.28057971,69.2821561 7.28057971,69.2821561 L6.84,58.0743494 C6.84,58.0743494 2.70956522,36.4728625 1.81188406,25.5092937 C1.26115942,18.4915242 0.947246377,8.89026022 0.815072464,2.89828996 C0.815072464,1.8127881 0.771014493,0.857546468 0.754492754,0.0488475836 L0.352463768,0.103122677 C0.352463768,0.103122677 0.352463768,2.32840149 0.451594203,5.69345725 C0.589275362,11.6637175 0.875652174,21.2812639 1.45391304,28.2990335 C2.3515942,39.2626022 6.48202899,60.8640892 6.48202899,60.8640892 L6.88405797,72.0664684 C6.88405797,72.0664684 5.50173913,78.7151673 10.0011594,85.7220818 L11.1026087,92.9732342 C11.1026087,92.9732342 13.8066667,99.003197 13.3055072,101.564981 C12.8043478,104.126766 15.5524638,113.516357 15.5524638,113.516357 Z" id="Path"></path>
                        <path d="M58.3272464,138.282082 C57.1079129,136.685626 56.2667576,134.840365 55.8655072,132.88171 C54.4666667,134.222305 56.3281159,139.155911 57.9637681,141.077249 C59.6875362,143.096283 71.9301449,143.904981 74.1275362,139.991747 L74.0394203,137.788178 C70.993913,141.017546 59.9518841,140.192565 58.3272464,138.282082 Z" id="Path"></path>
                        <path d="M75.6365217,124.550483 C75.0354032,125.682598 74.5324536,126.862759 74.1330435,128.078364 L74.1936232,129.706617 C74.435942,129.104164 74.7884058,128.300892 75.2950725,127.345651 C75.630762,126.422933 75.7676814,125.441405 75.6971014,124.463643 C75.664058,124.496208 75.6530435,124.523346 75.6365217,124.550483 Z" id="Path"></path>
                        <path d="M58.6081159,127.02 C59.0180711,126.113492 59.3676051,125.181601 59.6544928,124.23026 C59.6544928,124.23026 57.6773913,124.773011 54.3675362,121.190855 C51.9608696,118.585651 51.613913,113.510929 51.8286957,110.178439 C51.3165217,112.164907 50.6997101,120.403866 54.0315942,123.980595 C56.173913,126.319851 57.7655072,126.900595 58.6081159,127.02 Z" id="Path"></path>
                        <path d="M51.4927536,101.624684 C51.7853035,103.893616 51.952603,106.176532 51.993913,108.463346 C52.0371396,108.097817 52.103354,107.735285 52.1921739,107.377844 C52.7043478,105.391375 51.8507246,98.8295167 51.8507246,98.8295167 C51.8507246,98.8295167 51.7901449,94.1998513 50.7933333,92.7344238 C49.7965217,91.2689963 47.4889855,82.7912268 47.4889855,82.7912268 C47.4889855,82.7912268 47.3788406,79.9037918 45.6771014,78.4492193 C43.9753623,76.9946468 42.6811594,71.1709294 42.6811594,71.1709294 C41.6607119,69.7356171 41.1779252,67.9955059 41.3153623,66.2481784 C41.5521739,63.344461 39.1124638,60.3159108 39.1124638,60.3159108 L34.602029,47.9683271 L30.4826087,38.7415613 L28.5826087,44.2776208 C28.5826087,44.2776208 28.5826087,44.961487 28.5826087,46.0361338 L30.1246377,41.5584387 L34.244058,50.7852045 L38.7214493,63.1165056 C38.7214493,63.1165056 41.1886957,66.1504833 40.9243478,69.0487732 C40.7888375,70.7976147 41.2713922,72.5388069 42.2901449,73.9769517 C42.2901449,73.9769517 43.5788406,79.8278067 45.2750725,81.2715242 C46.9713043,82.7152416 47.0924638,85.6135316 47.0924638,85.6135316 C47.0924638,85.6135316 49.4165217,94.0913011 50.3968116,95.5567286 C51.3771014,97.0221561 51.4927536,101.624684 51.4927536,101.624684 Z" id="Path"></path>
                    </g>
                    <path d="M358.852961,148.660796 L358.136852,152.990555 L358.263548,154.89587 L358.351685,156.304146 L353.482147,157 L352.892735,156.005923 L352.892735,156.005923 C351.791029,154.205538 349.560076,150.54402 348.860493,149.991755 C347.924044,149.268287 345.852838,137.394586 347.819382,138.024168 C349.018669,138.438346 350.023076,139.282088 350.639747,140.393386 C350.639747,140.393386 360.296194,141.127898 358.852961,148.660796 Z" id="Path" fill="#FFCDD3" fill-rule="nonzero"></path>
                    <path d="M358,155.464209 L353.539859,156 L353,155.234584 L353,155.234584 C354.189721,153.999243 356.24858,153.643299 357.919273,154.384122 L358,155.464209 Z" id="Path" fill="#000000" fill-rule="nonzero" opacity="0.1"></path>
                    <path d="M359,158.408446 L352.635865,160 L352.460454,159.128675 L352,156.7766 C352,156.7766 354.411903,153.573347 358.183242,155.769288 L358.555991,156.962953 L359,158.408446 Z" id="Path" fill="#DCE6F2" fill-rule="nonzero"></path>
                    <path d="M255,153.073257 L248.244625,157 C248.244625,157 247.957632,156.454619 247.565776,155.734716 C246.859332,154.398533 245.799665,152.386077 245.501634,151.666174 C245.049068,150.575412 242.112908,149.233775 242.112908,149.233775 C234.623493,142.689204 243.001483,136.49913 243.001483,136.49913 C247.201516,127.265831 252.759247,139.226035 252.759247,139.226035 C252.759247,139.226035 253.708531,145.590631 253.22837,146.043297 C252.748208,146.495963 252.814438,148.224821 252.814438,148.224821 C253.525148,149.445745 254.132478,150.722651 254.63022,152.042487 C254.873061,152.680583 255,153.073257 255,153.073257 Z" id="Path" fill="#FFCDD3" fill-rule="nonzero"></path>
                    <path d="M255,153.014661 L247.730512,157 C247.730512,157 247.421678,156.446481 247,155.715835 C248.01559,154.863416 251.614699,151.918693 252.844098,152.001721 C253.436681,152.05409 254.033252,152.05409 254.625835,152.001721 C254.8634,152.616127 255,153.014661 255,153.014661 Z" id="Path" fill="#000000" fill-rule="nonzero" opacity="0.1"></path>
                    <path d="M256,154.77166 L248.37621,159 L248.15491,157.299595 L248,156.120648 C248,156.120648 252.359613,151.988664 253.692946,152.08502 C254.370242,152.15628 255.054014,152.127649 255.723375,152 L255.86722,153.434008 L256,154.77166 Z" id="Path" fill="#DCE6F2" fill-rule="nonzero"></path>
                    <path d="M341,177.630813 C341,177.630813 307.572902,182.68158 313.765135,180.415001 C318.077779,178.834934 319.710775,176.007158 319.951888,172.928751 C320.149163,170.351607 319.403903,167.600111 318.40657,165.251804 C317.531381,163.175475 316.446278,161.192935 315.167977,159.334724 C315.167977,159.334724 340.293099,144.313188 335.673584,157.264291 C334.953968,159.22407 334.541813,161.282244 334.451577,163.36662 C334.372586,165.436083 334.675316,167.50244 335.344793,169.4635 C336.434984,172.653025 338.392419,175.479974 341,177.630813 Z" id="Path" fill="#FFCDD3" fill-rule="nonzero"></path>
                    <path d="M336.434185,157.302965 C335.7165,159.276696 335.305451,161.349524 335.215457,163.44874 C332.881839,165.577812 330.231243,165.544888 326.837387,165.676583 C324.225046,165.775354 321.37224,166.521627 319.229902,165.341858 C318.357061,163.250747 317.27487,161.254091 316,159.382651 C316,159.382651 341.041304,144.259655 336.434185,157.302965 Z" id="Path" fill="#000000" fill-rule="nonzero" opacity="0.1"></path>
                    <circle id="Oval" fill="#FFCDD3" fill-rule="nonzero" cx="326" cy="153" r="14"></circle>
                    <path d="M341,177.574098 C341,177.574098 307.572902,182.709887 313.765135,180.405153 C318.077779,178.798488 319.710775,175.923111 319.951888,172.792884 C321.557485,170.898127 324.883755,169.468749 326.993498,168.659876 C328.938083,167.915868 331.06262,167.797828 333.076134,168.321922 C333.868842,168.526755 334.627625,168.847798 335.328353,169.274841 C336.424007,172.517993 338.387205,175.390719 341,177.574098 Z" id="Path" fill="#000000" fill-rule="nonzero" opacity="0.1"></path>
                    <path d="M359,158.501855 L352.187762,160 L352,159.179813 C353.427326,157.458809 356.036698,156.645422 358.524728,157.145939 L359,158.501855 Z" id="Path" fill="#000000" fill-rule="nonzero" opacity="0.1"></path>
                    <path d="M256,155.201629 L248.22567,159 L248,157.472505 C250.770099,155.863544 255.458392,154.147658 255.864598,154 L256,155.201629 Z" id="Path" fill="#000000" fill-rule="nonzero" opacity="0.1"></path>
                    <path d="M357,261.549103 C344.176583,264.135781 325.909469,267.566183 322.961932,266.772417 C320.514715,266.117421 312.797825,266.500427 306.103327,267 C306.027191,263.558497 306,261.282664 306,261.282664 L355.825336,254 C355.825336,254 355.847089,256.359095 357,261.549103 Z" id="Path" fill="#000000" fill-rule="nonzero" opacity="0.1"></path>
                    <path d="M370,256.495685 C370,256.495685 327.900029,265.371689 323.295768,264.166239 C318.691508,262.960789 295.40447,265.350067 295.40447,265.350067 C285.165549,272.771963 289.156992,262.247249 289.156992,262.247249 C289.156992,262.247249 288.023552,256.874077 289.124453,252.452292 C289.848926,249.212321 290.302411,245.918013 290.480243,242.603279 C290.480243,242.603279 289.981312,235.705727 291.190676,234.046206 C292.400041,232.386685 293.452133,220.818689 293.452133,220.818689 C293.452133,220.818689 294.303569,212.942722 294.124605,211.223739 C293.94564,209.504757 294.216798,204.650523 294.216798,204.650523 L295.40447,196.542115 C286.727418,195.720463 259.752633,180.617201 259.752633,180.617201 C258.272111,175.254841 247.968112,162.973305 247.968112,162.973305 C247.786696,161.914017 247.475237,160.880996 247.040752,159.897516 C246.276087,158.081232 256.525854,154 256.525854,154 C256.525854,154 264.628051,163.140879 266.341769,165.611241 C268.055487,168.081602 273.782341,172.584472 273.782341,172.584472 C274.640855,172.46963 275.514329,172.550964 276.336648,172.822318 C276.382948,172.830593 276.428348,172.843264 276.472227,172.860157 L276.472227,172.860157 C278.358817,173.522741 280.139675,174.453072 281.759806,175.622422 C285.903098,175.233218 288.902104,178.000888 288.902104,178.000888 C288.902104,178.000888 293.609405,177.130586 294.449994,177.903587 C295.290583,178.676589 299.298297,177.719797 299.298297,177.719797 C299.298297,177.719797 303.01316,169.0438 305.7627,171.416861 C308.512241,173.789922 319.781562,173.243955 319.781562,173.243955 C321.207853,171.195231 324.803406,169.627605 327.05944,168.805953 C328.983906,168.080024 331.086462,167.964852 333.079144,168.476211 C333.9433,168.695681 334.763254,169.061364 335.503296,169.557333 L342.596786,175.968381 C342.596786,175.968381 344.462352,173.362879 344.223733,172.79529 C343.985114,172.227702 346.496036,171.670924 346.496036,171.670924 C346.496036,171.670924 349.804162,170.503313 351.062334,170.11411 C352.320507,169.724906 353.535294,171.043874 353.638334,171.162797 C353.594949,171.016846 352.61878,168.265393 352.873669,166.124773 C353.128557,163.984153 351.328069,162.03273 351.328069,162.03273 C354.9887,151.978304 364.430417,159.919138 364.430417,159.919138 C364.430417,159.919138 365.677744,165.286904 364.831731,167.39509 C363.985718,169.503276 366.003133,173.806138 365.818746,174.962938 C365.634358,176.119738 366.399023,178.054944 366.485794,180.238809 C366.572565,182.422674 365.563857,186.563367 364.923925,188.449924 C364.283992,190.33648 358.958451,194.671775 358.958451,194.671775 C358.958451,194.671775 358.866258,201.244992 356.588532,205.131622 C354.310806,209.018252 356.311951,221.975489 356.311951,221.975489 C356.311951,221.975489 359.023529,232.013698 362.022535,235.127327 C365.021541,238.240955 370,256.495685 370,256.495685 Z" id="Path" fill="#656691" fill-rule="nonzero"></path>
                    <path d="M305.771013,184 C305.771013,184 304.171706,180.174803 302.848141,179.871654 C301.532293,179.484531 300.246709,179.018661 299,178.477165 L299.778207,177 C299.778207,177 304.735446,178.041732 305.568802,179.303937 C306.402157,180.566142 305.771013,184 305.771013,184 Z" id="Path" fill="#000000" fill-rule="nonzero" opacity="0.1"></path>
                    <path d="M281,176.605 C280.799688,177.68 270,179 270,179 L275.271072,174 L275.271072,174 L275.408429,174.04 L275.408429,174.04 C277.404046,174.655098 279.287385,175.519035 281,176.605 Z" id="Path" fill="#000000" fill-rule="nonzero" opacity="0.1"></path>
                    <circle id="Oval" fill="#575988" fill-rule="nonzero" cx="251" cy="161" r="1"></circle>
                    <circle id="Oval" fill="#575988" fill-rule="nonzero" cx="252" cy="163" r="1"></circle>
                    <circle id="Oval" fill="#575988" fill-rule="nonzero" cx="253" cy="165" r="1"></circle>
                    <circle id="Oval" fill="#575988" fill-rule="nonzero" cx="255" cy="167" r="1"></circle>
                    <circle id="Oval" fill="#575988" fill-rule="nonzero" cx="364.5" cy="162.5" r="1"></circle>
                    <circle id="Oval" fill="#575988" fill-rule="nonzero" cx="364.5" cy="164.5" r="1"></circle>
                    <circle id="Oval" fill="#575988" fill-rule="nonzero" cx="365.5" cy="165.5" r="1"></circle>
                    <path d="M307,216.000445 C306.888026,215.860699 333.808512,248.71211 353,228.331602 C353.021384,228.331602 321.693491,234.061174 307,216.000445 Z" id="Path" fill="#000000" fill-rule="nonzero" opacity="0.1"></path>
                    <path d="M292,234.000987 C292,234.000987 307.972222,233.815221 309.816667,238.540636 L310,243.533089 C309.098374,244.108967 307.975454,244.155111 307.033333,243.654998 C305.366667,242.807442 295.555556,238.076222 292.244444,240.676942 L292,234.000987 Z" id="Path" fill="#000000" fill-rule="nonzero" opacity="0.1"></path>
                    <path d="M292,234.000928 C292,234.000928 307.972894,233.830983 309.814134,238.090569 L310,242.580402 C309.096985,243.09792 307.975054,243.139365 307.031946,242.690043 C305.38819,241.933515 295.554695,237.668447 292.24395,240.014783 L292,234.000928 Z" id="Path" fill="#656691" fill-rule="nonzero"></path>
                    <path d="M300,198 C301.708229,201.831102 303.837534,205.428261 306.342342,208.714491 C309.069997,212.35404 312.332124,215.490465 316,218 C316,218 300.341675,200.226686 300,198 Z" id="Path" fill="#000000" fill-rule="nonzero" opacity="0.1"></path>
                    <path d="M293,180 C293,180 296.069742,191.367837 303,195 L293,180 Z" id="Path" fill="#000000" fill-rule="nonzero" opacity="0.1"></path>
                    <path d="M289.178829,182.003528 C289.09747,181.790782 287.069311,191.252386 299,196 C299,196.005582 293.955754,194.561148 289.178829,182.003528 Z" id="Path" fill="#000000" fill-rule="nonzero" opacity="0.1"></path>
                    <path d="M357.004354,172.015141 C356.809189,172.015141 363.231322,175.393219 365,177 C365,177 360.694183,171.680624 357.004354,172.015141 Z" id="Path" fill="#000000" fill-rule="nonzero" opacity="0.1"></path>
                    <path d="M321.987493,164.938917 C322.20742,165.629498 322.475623,166.38432 323.119311,166.726934 C323.52503,166.90788 323.968439,166.988673 324.412051,166.962481 C328.563838,167.064194 332.881912,167.080254 336.65285,165.356478 C337.35963,165.075672 337.986069,164.625169 338.476633,164.044909 C339.125685,163.188374 339.21151,162.053465 339.447529,161.004209 C339.903475,158.959232 340.981652,157.106975 341.732621,155.147651 C342.996368,151.834164 343.322962,148.2377 342.676697,144.751458 C342.530083,143.679826 342.135212,142.657048 341.523423,141.764292 C340.364784,140.238589 338.337167,139.681841 336.835229,138.493399 C335.33329,137.304957 334.324846,135.431287 332.592252,134.558692 C331.031309,133.77175 329.164614,133.943057 327.453477,134.301731 C324.083169,135.009875 320.880199,136.356468 318.018084,138.268559 C317.057916,138.905607 316.006559,139.644368 314.864013,139.473061 C313.860933,139.328521 313.109963,138.520166 312.439455,137.765344 C311.702953,139.656186 311.432522,141.695972 311.650937,143.712909 C311.70188,144.008744 311.70188,144.311083 311.650937,144.606918 C311.522687,144.966386 311.319786,145.294757 311.055526,145.57052 C310.079266,146.796435 309.510675,148.691519 310.567396,149.853194 C311.028706,150.356409 311.715306,150.613369 312.176616,151.12729 C312.981226,152.053419 312.777391,153.434581 312.804212,154.655144 C312.776294,155.079938 312.899796,155.500901 313.152876,155.843586 C313.618621,156.242407 314.258938,156.370214 314.842557,156.180847 C315.414187,155.983008 316.019653,155.901106 316.623427,155.939946 C317.274501,156.122611 317.842735,156.52336 318.232647,157.074855 C320.222715,159.40356 321.075602,162.042758 321.987493,164.938917 Z" id="Path" fill="#2D293D" fill-rule="nonzero"></path>
                    <g id="Group" opacity="0.1" transform="translate(310.000000, 137.000000)" fill="#000000" fill-rule="nonzero">
                        <path d="M29.8418182,25.92 C29.3448053,26.5095132 28.7095308,26.9667609 27.9927273,27.2509091 C24.1745455,29.0236364 19.7672727,29.0072727 15.54,28.8872727 C15.0891272,28.910425 14.639058,28.8282546 14.2254545,28.6472727 C13.5763636,28.2981818 13.2981818,27.5236364 13.0745455,26.82 C12.1472727,23.8745455 11.28,21.18 9.25636364,18.78 C8.85740561,18.2216973 8.28030827,17.8158055 7.62,17.6290909 C7.00648314,17.5900736 6.39126446,17.6716087 5.80909091,17.8690909 C5.21480447,18.0633699 4.56227231,17.9353414 4.08545455,17.5309091 C3.8306407,17.1784225 3.70539731,16.7487413 3.73090909,16.3145455 C3.70363636,15.0709091 3.91090909,13.6636364 3.09818182,12.7254545 C2.64,12.18 1.94181818,11.94 1.46181818,11.4218182 C0.842398581,10.639025 0.700128679,9.58036951 1.09090909,8.66181818 C0.398181818,9.86181818 0.136363636,11.3890909 1.03636364,12.3709091 C1.5,12.8836364 2.20363636,13.1454545 2.67272727,13.6745455 C3.49090909,14.6127273 3.28363636,16.02 3.31090909,17.2636364 C3.28252046,17.6964614 3.40810541,18.1253823 3.66545455,18.4745455 C4.13905599,18.8809056 4.79017342,19.0111291 5.38363636,18.8181818 C5.96554005,18.6192638 6.58068638,18.5358855 7.19454545,18.5727273 C7.85660133,18.7588449 8.43442057,19.1671705 8.83090909,19.7290909 C10.8763636,22.1290909 11.7381818,24.8181818 12.6490909,27.7690909 C12.8727273,28.4727273 13.1454545,29.2418182 13.8,29.5963636 C14.2133058,29.7783178 14.6636076,29.8605306 15.1145455,29.8363636 C19.3363636,29.9345455 23.7272727,29.9509091 27.5618182,28.2 C28.2790814,27.9138673 28.9156797,27.4570144 29.4163636,26.8690909 C29.6603471,26.5201058 29.8446733,26.1330207 29.9618182,25.7236364 C29.9290909,25.7890909 29.8909091,25.8436364 29.8418182,25.92 Z" id="Path"></path>
                        <path d="M2.17636364,6.81272727 C2.35595964,6.60474015 2.48976901,6.36128143 2.56909091,6.09818182 C2.62363836,5.79882822 2.62363836,5.49208087 2.56909091,5.19272727 C2.38549767,3.50472723 2.53939081,1.79706955 3.02181818,0.169090909 L2.94,0.0763636364 C2.19128278,2.0030037 1.91629668,4.08130004 2.13818182,6.13636364 C2.17246842,6.36008267 2.18525405,6.58657083 2.17636364,6.81272727 Z" id="Path"></path>
                    </g>
                    <path d="M321,172.674835 C321,172.674835 338.528712,173.746002 340,172" id="Path" fill="#000000" fill-rule="nonzero" opacity="0.1"></path>
                    <path d="M353,165.009471 C353,165.009471 362.722708,164.673746 365,168" id="Path" fill="#000000" fill-rule="nonzero" opacity="0.1"></path>
                    <path d="M562.811698,348 C562.811698,348 566.014948,352.167528 561.331613,358.464529 C556.648278,364.761531 552.791413,370.074457 554.352525,374 C554.352525,374 561.418041,362.309411 567.165525,362.142709 C572.913009,361.976008 569.137171,355.022958 562.811698,348 Z" id="Path" fill="#04CCFC" fill-rule="nonzero"></path>
                    <path d="M562.730062,348 C563.01477,348.400712 563.237535,348.840704 563.391099,349.305642 C569.067278,355.860715 572.088382,361.980574 566.636191,362.131019 C561.555491,362.27609 555.458652,371.211407 554,373.462699 C554.048489,373.644737 554.106846,373.824094 554.17482,374 C554.17482,374 561.320577,362.319074 567.133334,362.152511 C572.946091,361.985948 569.127372,355.017152 562.730062,348 Z" id="Path" fill="#000000" fill-rule="nonzero" opacity="0.1"></path>
                    <path d="M568,353.782943 C568,355.008159 567.773723,356 567.49635,356 C567.218978,356 567,355.008159 567,353.782943 C567,352.557727 567.277372,353.136675 567.554745,353.136675 C567.832117,353.136675 568,352.557727 568,353.782943 Z" id="Path" fill="#FFD037" fill-rule="nonzero"></path>
                    <path d="M569.28883,356.02365 C568.115675,356.715341 567.094052,357.135677 567.006065,356.960094 C566.918078,356.78451 567.797945,356.076857 568.961324,355.363883 C570.124703,354.650909 569.670105,355.172338 569.76298,355.363883 C569.855855,355.555428 570.457097,355.326638 569.28883,356.02365 Z" id="Path" fill="#FFD037" fill-rule="nonzero"></path>
                    <path d="M546.188603,348 C546.188603,348 542.985219,352.167528 547.663348,358.464529 C552.341477,364.761531 556.209307,370.074457 554.64813,374 C554.64813,374 547.582318,362.309411 541.834594,362.142709 C536.086869,361.976008 539.862865,355.022958 546.188603,348 Z" id="Path" fill="#04CCFC" fill-rule="nonzero"></path>
                    <path d="M546.269938,348 C545.98523,348.400712 545.762465,348.840704 545.608901,349.305642 C539.932722,355.860715 536.911618,361.980574 542.363809,362.131019 C547.444509,362.27609 553.535885,371.211407 555,373.462699 C554.951511,373.644737 554.893154,373.824094 554.82518,374 C554.82518,374 547.679423,362.319074 541.866666,362.152511 C536.053909,361.985948 539.872628,355.017152 546.269938,348 Z" id="Path" fill="#000000" fill-rule="nonzero" opacity="0.1"></path>
                    <path d="M539,353.782943 C539,355.008159 539.226277,356 539.50365,356 C539.781022,356 540,355.008159 540,353.782943 C540,352.557727 539.722628,353.136675 539.445255,353.136675 C539.167883,353.136675 539,352.557727 539,353.782943 Z" id="Path" fill="#FFD037" fill-rule="nonzero"></path>
                    <path d="M536.71131,356.02365 C537.884394,356.715341 538.905954,357.135677 538.993935,356.960094 C539.081917,356.78451 538.202104,356.076857 537.038796,355.363883 C535.875487,354.650909 536.32517,355.172338 536.237188,355.363883 C536.149207,355.555428 535.538226,355.326638 536.71131,356.02365 Z" id="Path" fill="#FFD037" fill-rule="nonzero"></path>
                    <ellipse id="Oval" fill="#04CCFC" fill-rule="nonzero" opacity="0.1" cx="554" cy="400.5" rx="34" ry="5.5"></ellipse>
                    <path d="M569.99243,368.916239 L569.832674,370.19726 L569.614341,372.007629 L569.523812,372.764596 L569.300154,374.574965 L569.2043,375.331932 L568.980642,377.137008 L566.456498,397.728631 C566.227515,399.565468 563.208127,401 559.565692,401 L546.433753,401 C542.785992,401 539.77193,399.565468 539.548272,397.728631 L537.013478,377.137008 L536.795144,375.331932 L536.704616,374.574965 L536.475633,372.764596 L536.385104,372.007629 L536.161446,370.19726 L536.007015,368.916239 C535.87921,367.857543 537.514046,367 539.574898,367 L566.445848,367 C568.485399,367 570.12556,367.873424 569.99243,368.916239 Z" id="Path" fill="#65617D" fill-rule="nonzero"></path>
                    <polygon id="Path" fill="#9D9CB5" fill-rule="nonzero" points="570 369 569.774158 371 536.220465 371 536 369"></polygon>
                    <polygon id="Path" fill="#9D9CB5" fill-rule="nonzero" points="570 372 569.78195 374 537.223368 374 537 372"></polygon>
                    <polygon id="Path" fill="#9D9CB5" fill-rule="nonzero" points="570 375 569.777686 377 537.227736 377 537 375"></polygon>
                </g>
            </g>
        </g>
    </g>
</svg>