<?xml version="1.0" encoding="UTF-8"?>
<svg width="260px" height="199px" viewBox="0 0 260 199" version="1.1" xmlns="http://www.w3.org/2000/svg" xmlns:xlink="http://www.w3.org/1999/xlink">
    <!-- Generator: Sketch 64 (93537) - https://sketch.com -->
    <title>undraw_profile_data_mk6k</title>
    <desc>Created with Sketch.</desc>
    <g id="WebDesktop" stroke="none" stroke-width="1" fill="none" fill-rule="evenodd">
        <g id="Landing" transform="translate(-200.000000, -2512.000000)" fill-rule="nonzero">
            <g id="footer" transform="translate(0.000000, 2512.000000)">
                <g id="undraw_profile_data_mk6k" transform="translate(200.000000, 0.000000)">
                    <circle id="Oval" fill="#F2F2F2" cx="100.597378" cy="92.796518" r="92.796518"></circle>
                    <path d="M49.9499467,42.3507473 L48.0284448,57.8889924 C50.3869645,62.5048298 52.8850977,67.7522749 55.2675323,73.4125201 L59.7925734,49.9824801 L60.0212575,50.191128 C56.7129201,46.8437001 53.2328272,44.1187813 49.7175791,42.1635473 L49.9499467,42.3507473 Z" id="Path" fill="#04CCFC"></path>
                    <path d="M47.6132483,57.0800218 L49.4747295,42.0285963 C45.5203445,39.8701493 41.5255393,38.690847 37.6841963,38.7120233 C37.4843415,38.7131351 37.2868971,38.7200213 37.0897526,38.7275667 C37.8612905,39.9068803 42.3433822,46.8590398 47.6132483,57.0800218 Z" id="Path" fill="#04CCFC"></path>
                    <path d="M78.3658984,81.3231121 L78.5730242,81.602605 C77.8853906,79.511477 77.1274581,77.4629429 76.2992266,75.4570028 L64.6297532,101.598982 L64.5300592,101.475027 C64.8253407,102.761217 65.0974118,104.034992 65.3462725,105.296351 L78.3658984,81.3231121 Z" id="Path" fill="#04CCFC"></path>
                    <path d="M70.4640004,63.9512078 L70.684528,64.2001741 C67.7622955,59.2130054 64.2596776,54.58949 60.2498622,50.426237 L55.6383987,74.3026679 C57.8471444,79.6179883 59.750501,84.8064887 61.3484683,89.8681691 L70.4640004,63.9512078 Z" id="Path" fill="#04CCFC"></path>
                    <path d="M18.7660135,62.7280733 C18.4591824,66.8337041 18.5679388,70.9598309 19.0906259,75.0435972 L59.7899027,86.472074 C58.3154311,82.109489 56.728523,77.9814161 55.1496015,74.1961669 L18.8151193,63.0720514 L18.7660135,62.7280733 Z" id="Path" fill="#04CCFC"></path>
                    <path d="M19.8260666,79.7758433 L19.770615,79.4314013 L61.0652296,90.4000855 C60.7297532,89.3215919 60.3862929,88.2552704 60.0348487,87.2011208 L19.1853802,75.730464 L19.1322797,75.3859343 C19.3154566,76.8251856 19.5467189,78.2884886 19.8260666,79.7758433 Z" id="Path" fill="#04CCFC"></path>
                    <path d="M75.9253613,74.8054044 L76.1391639,75.0712437 C74.6245167,71.4420903 72.8667172,67.9192737 70.8777428,64.526798 L61.6389922,90.7942699 C62.6853616,94.1755128 63.5900738,97.487264 64.3531291,100.729523 L75.9253613,74.8054044 Z" id="Path" fill="#04CCFC"></path>
                    <path d="M67.2351286,119.848206 C67.6565832,127.348487 67.1106455,134.277091 65.5971795,140.556394 C68.8051665,135.964336 81.2982768,116.802958 81.2954001,96.9344118 L67.2351286,119.848206 Z" id="Path" fill="#04CCFC"></path>
                    <path d="M25.0018235,95.6857243 C26.7048192,99.0579848 28.6318644,102.312344 30.7700098,105.426934 L30.731188,105.048092 L66.7114479,119.163758 C66.4362771,114.968764 65.9097499,110.794049 65.1347021,106.662101 L25.0018235,95.6857243 Z" id="Path" fill="#04CCFC"></path>
                    <path d="M47.247845,57.2761619 C41.5434224,46.2192305 36.7772971,39.030355 36.7086503,38.9273791 L36.8403534,38.7379328 C31.0101859,39.0429476 26.3899943,42.1760777 23.2565643,47.3247058 L47.247845,57.2761619 Z" id="Path" fill="#04CCFC"></path>
                    <path d="M65.5330339,106.273682 C65.6072457,106.665377 65.6837095,107.058342 65.7534427,107.447558 C66.4286601,111.178667 66.9002249,114.943773 67.1660433,118.726158 L81.092973,96.0295637 L81.2892433,96.3086237 C81.2595616,92.8106625 80.7868098,89.3305559 79.8822812,85.9514374 C79.5208878,84.625328 79.129459,83.3130938 78.707995,82.0147347 L65.5330339,106.273682 Z" id="Path" fill="#04CCFC"></path>
                    <path d="M54.8328033,73.4415983 C52.4734914,67.8472866 50.0030359,62.6625301 47.6712603,58.1008231 L23.1295576,47.9208498 L23.0986348,47.5835967 C20.7794546,51.5068185 19.3060044,56.56396 18.79424,62.4080725 L54.8328033,73.4415983 Z" id="Path" fill="#04CCFC"></path>
                    <path d="M66.7520322,119.830097 L31.0350966,105.817678 C43.850839,124.497054 63.5261112,140.522764 64.7832579,141.538068 C66.6485528,134.605147 67.1619693,127.241692 66.7520322,119.830097 Z" id="Path" fill="#04CCFC"></path>
                    <path d="M64.9856703,105.960322 L64.9981412,105.937363 C64.028095,100.935576 62.7893525,95.9896666 61.2872962,91.1211258 L19.8910723,80.1254004 C20.278509,82.1387605 20.7553624,84.1884064 21.3216324,86.2743382 C22.1570425,89.2510487 23.2622244,92.1453553 24.6234429,94.9212875 L64.9856703,105.960322 Z" id="Path" fill="#04CCFC"></path>
                    <path d="M119.731615,107.853676 L108.341168,118.59551 C107.213625,123.654878 105.790761,129.289743 104.015498,135.168767 L122.44466,120.009333 L122.487714,120.315889 C122.074705,115.627628 121.132376,111.309252 119.672053,107.561285 L119.731615,107.853676 Z" id="Path" fill="#04CCFC"></path>
                    <path d="M108.537368,117.707617 L119.5711,107.302445 C117.902177,103.117865 115.577579,99.6616335 112.605522,97.2278864 C112.450888,97.1012729 112.294427,96.9806431 112.137776,96.8607121 C111.979799,98.2611106 110.997661,106.474335 108.537368,117.707617 Z" id="Path" fill="#04CCFC"></path>
                    <path d="M116.760118,155.993913 L116.741381,156.341286 C117.545527,154.292131 118.268357,152.230948 118.909871,150.157736 L93.2484172,162.849049 L93.2506805,162.689993 C92.6577542,163.868943 92.0548701,165.023524 91.4420283,166.153736 L116.760118,155.993913 Z" id="Path" fill="#04CCFC"></path>
                    <path d="M121.754229,137.574293 L121.765285,137.9067 C122.695502,132.20179 122.94677,126.406783 122.513839,120.642768 L103.73338,136.090898 C102.044344,141.593473 100.200986,146.803592 98.2033071,151.721252 L121.754229,137.574293 Z" id="Path" fill="#04CCFC"></path>
                    <path d="M82.7171101,103.658498 C79.8621568,106.62491 77.3142128,109.872176 75.1120931,113.350829 L99.1689991,148.11153 C100.8159,143.811074 102.226627,139.619517 103.424845,135.697104 L82.5355345,103.954754 L82.7171101,103.658498 Z" id="Path" fill="#04CCFC"></path>
                    <path d="M72.6602252,117.464623 L72.837212,117.163971 L97.6459027,151.950262 C98.0754035,150.905646 98.4909904,149.865315 98.8926635,148.829266 L74.7469785,113.940285 L74.9258296,113.641061 C74.1489341,114.866394 73.3937327,116.140914 72.6602252,117.464623 Z" id="Path" fill="#04CCFC"></path>
                    <path d="M119.037537,149.417423 L119.032651,149.758538 C120.180813,145.997338 121.07388,142.162951 121.705765,138.281504 L97.8363874,152.619823 C96.4856831,155.891409 95.0701986,159.019124 93.5899338,162.002968 L119.037537,149.417423 Z" id="Path" fill="#04CCFC"></path>
                    <path d="M83.615437,178.566162 C79.1562446,184.611609 74.3166091,189.59975 69.1459108,193.470683 C74.5455591,191.980034 96.3890446,185.19043 109.059275,169.886049 L83.615437,178.566162 Z" id="Path" fill="#04CCFC"></path>
                    <path d="M66.4989806,133.019433 C65.6597308,136.702909 65.0682426,140.438482 64.728491,144.201048 L64.9402226,143.884504 L83.6486542,177.704993 C86.1123503,174.298545 88.3695193,170.747397 90.4080035,167.070676 L66.4989806,133.019433 Z" id="Path" fill="#04CCFC"></path>
                    <path d="M108.130829,117.625636 C110.789624,105.471326 111.703973,96.8946337 111.716792,96.7715312 L111.939059,96.7096235 C107.254182,93.2259743 101.697404,92.6922557 96.0001933,94.6591232 L108.130829,117.625636 Z" id="Path" fill="#04CCFC"></path>
                    <path d="M90.9625362,167.025582 C90.7698703,167.374593 90.5781153,167.726024 90.3835765,168.07027 C88.5238637,171.374595 86.4856155,174.57521 84.2778825,177.657905 L109.480489,169.06003 L109.453663,169.400141 C111.661855,166.687117 113.517411,163.705247 114.976003,160.525763 C115.543477,159.273904 116.078965,158.013577 116.582469,156.744781 L90.9625362,167.025582 Z" id="Path" fill="#04CCFC"></path>
                    <path d="M103.662124,134.913888 C105.413144,129.100401 106.817342,123.531464 107.93096,118.530841 L95.5221328,95.0372662 L95.7134237,94.757793 C91.424926,96.3002098 87.0645676,99.2553771 82.942948,103.430041 L103.662124,134.913888 Z" id="Path" fill="#04CCFC"></path>
                    <path d="M83.2549112,178.244087 L64.6834422,144.671071 C62.6400063,167.231806 67.5722544,192.123827 67.8929201,193.707625 C73.7514642,189.557675 78.8434128,184.213885 83.2549112,178.244087 Z" id="Path" fill="#04CCFC"></path>
                    <path d="M90.7408374,166.435105 L90.765089,166.425376 C93.2081816,161.954341 95.4086894,157.354966 97.3570509,152.647234 L72.4873465,117.775313 C71.5015966,119.573093 70.5615697,121.455853 69.6672659,123.423594 C68.4120989,126.249062 67.4172672,129.183128 66.6951349,132.189328 L90.7408374,166.435105 Z" id="Path" fill="#04CCFC"></path>
                    <path d="M24.5590625,108.388532 L27.5344923,123.759808 C31.2042579,127.4206 35.2020252,131.638915 39.2173589,136.285579 L36.2786572,112.604218 L36.560637,112.731964 C32.3796276,110.57105 28.2276851,109.05525 24.2802259,108.282308 L24.5590625,108.388532 Z" id="Path" fill="#04CCFC"></path>
                    <path d="M26.8895565,123.118774 L24.0075343,108.229027 C19.5796126,107.398569 15.4159347,107.5118 11.7692466,108.719281 C11.579523,108.782111 11.3938762,108.849688 11.208716,108.917803 C12.3070024,109.800906 18.7184864,115.02722 26.8895565,123.118774 Z" id="Path" fill="#04CCFC"></path>
                    <path d="M63.6297406,136.669162 L63.9131123,136.870949 C62.6127898,135.094762 61.2587735,133.380819 59.8510635,131.729123 L56.8334396,160.197943 L56.7003134,160.110875 C57.3786955,161.242812 58.0311663,162.370113 58.6577258,163.492779 L63.6297406,136.669162 Z" id="Path" fill="#04CCFC"></path>
                    <path d="M50.7451874,122.590403 L51.0318692,122.759021 C46.7112148,118.919325 41.9510014,115.604869 36.850694,112.884908 L39.8451867,137.017528 C43.5887227,141.389842 47.0026227,145.735942 50.0868866,150.055829 L50.7451874,122.590403 Z" id="Path" fill="#04CCFC"></path>
                    <path d="M1.20075582,137.406849 C2.17798788,141.40627 3.55679161,145.296727 5.31616257,149.018953 L47.5549251,147.307762 C44.8041959,143.614574 42.0190244,140.179148 39.3474126,137.067304 L1.35378237,137.718807 L1.20075582,137.406849 Z" id="Path" fill="#04CCFC"></path>
                    <path d="M7.47830446,153.292136 L7.31910468,152.981698 L49.9819332,150.649212 C49.3295284,149.727228 48.673291,148.819287 48.0132211,147.925388 L5.6185802,149.642896 L5.46158716,149.331649 C6.08066442,150.64381 6.75290352,151.963973 7.47830446,153.292136 Z" id="Path" fill="#04CCFC"></path>
                    <path d="M59.2941062,131.224983 L59.5796111,131.411708 C57.0173749,128.428446 54.2567617,125.621471 51.3165819,123.009911 L50.6494429,150.846747 C52.6897045,153.738983 54.5737661,156.608916 56.3016279,159.456547 L59.2941062,131.224983 Z" id="Path" fill="#04CCFC"></path>
                    <path d="M17.3183114,166.823113 C19.980267,169.503846 22.818858,172.003198 25.8150096,174.304374 L25.66099,173.956082 L64.2424239,176.259124 C62.6840673,172.354612 60.8929323,168.547079 58.8786664,164.857035 L17.3183114,166.823113 Z" id="Path" fill="#04CCFC"></path>
                    <path d="M26.6026794,123.418269 C17.7599323,114.665999 11.0051465,109.302363 10.9080242,109.22565 L10.9747217,109.004772 C5.52434081,111.096937 2.09883373,115.504726 0.710269641,121.369763 L26.6026794,123.418269 Z" id="Path" fill="#04CCFC"></path>
                    <path d="M59.1374329,164.364512 C59.3290831,164.714086 59.5232655,165.064164 59.7098912,165.412776 C61.5053167,168.752467 63.1175708,172.187439 64.5394945,175.702439 L70.7689813,149.812516 L71.0418964,150.017242 C69.9324583,146.699749 68.4071667,143.536188 66.5024577,140.60213 C65.7488651,139.452664 64.9709973,138.325679 64.1688544,137.221174 L59.1374329,164.364512 Z" id="Path" fill="#04CCFC"></path>
                    <path d="M38.8128934,136.447608 C34.8399321,131.856503 30.8878614,127.689249 27.2602616,124.07167 L0.77375321,121.975971 L0.640100762,121.664788 C-0.352853101,126.112746 -0.191005223,131.377681 1.12869706,137.093794 L38.8128934,136.447608 Z" id="Path" fill="#04CCFC"></path>
                    <path d="M58.5200163,164.235697 L58.5247806,164.210006 C56.0561991,159.752993 53.3493517,155.432174 50.4160002,151.266323 L7.64818433,153.604498 C8.63897011,155.399507 9.72601153,157.201389 10.9093086,159.010142 C12.6239002,161.582862 14.569583,163.993828 16.7221758,166.213075 L58.5200163,164.235697 Z" id="Path" fill="#04CCFC"></path>
                    <path d="M64.4869852,176.880287 L26.1878931,174.594041 C44.1497937,188.39739 67.8150757,197.556768 69.3244875,198.133768 C68.955494,190.963797 67.1677493,183.802234 64.4869852,176.880287 Z" id="Path" fill="#04CCFC"></path>
                    <path d="M64.9520202,176.748188 C67.6711534,183.750913 69.2935704,190.508972 69.7951186,196.948592 C71.4266313,191.589822 77.3852287,169.505187 71.2411882,150.610481 L64.9520202,176.748188 Z" id="Path" fill="#04CCFC"></path>
                    <path d="M72.3427904,183.281512 C72.389163,183.917514 72.4677172,184.550759 72.5781513,185.178813 C72.5781513,185.178813 77.7394738,188.688514 78.1523787,184.765909 C78.4207643,182.210021 77.813793,181.055943 77.3554744,180.562532 L77.3482403,180.554658 C77.0728192,180.263464 76.9175943,179.878956 76.9136612,179.478162 L76.9136612,174.856168 L72.3716988,176.301338 L72.5781513,180.223946 C72.2726046,181.039435 72.2684712,182.2575 72.3427904,183.281512 Z" id="Path" fill="#FFB9B9"></path>
                    <path d="M72.3427904,183.281512 C72.389163,183.917514 72.4677172,184.550759 72.5781513,185.178813 C72.5781513,185.178813 77.7394738,188.688514 78.1523787,184.765909 C78.4207643,182.210021 77.813793,181.055943 77.3554744,180.562532 C76.9902007,180.286645 76.5021664,180.235778 76.0878514,180.43041 C75.2620387,180.062916 74.35364,180.676089 73.6021495,181.46886 C73.0928987,182.005741 72.6682576,182.616946 72.3427904,183.281512 L72.3427904,183.281512 Z" id="Path" fill="#000000" opacity="0.05"></path>
                    <path d="M76.0878514,180.843304 C76.0878514,180.843304 78.3588198,179.604586 78.7717388,185.178813 C79.1846579,190.753041 79.3910962,190.133684 79.3910962,190.133684 C79.3910962,190.133684 81.4556263,195.088554 77.1201277,194.469196 C72.7846292,193.849839 70.7200877,193.436931 70.926526,190.959496 C71.0509639,189.466264 71.4004107,187.29804 71.6584048,185.810959 C71.9042473,184.337991 72.5802493,182.970638 73.6013517,181.88095 C74.3546642,181.087989 75.2620387,180.476276 76.0878514,180.843304 Z" id="Path" fill="#2F2E41"></path>
                    <path d="M100.341964,187.929548 L102.708782,189.07107 C102.708782,189.07107 110.103052,190.206192 107.757761,185.995607 C107.079059,184.737445 106.560939,183.399081 106.215545,182.011886 C105.721527,180.079868 105.446867,178.09832 105.396769,176.104771 L99.1411064,176.977486 C101.181062,179.693959 100.922669,184.100985 100.606918,186.409012 C100.479147,187.339297 100.341964,187.929548 100.341964,187.929548 Z" id="Path" fill="#FFB9B9"></path>
                    <path d="M100.341964,187.929548 L102.708782,189.07107 C102.708782,189.07107 110.103052,190.206192 107.757761,185.995607 C107.079059,184.737445 106.560939,183.399081 106.215545,182.011886 C104.779123,182.288312 103.686232,184.356051 103.686232,184.356051 C102.527829,188.377623 101.485783,187.372608 100.606918,186.409012 C100.479147,187.339297 100.341964,187.929548 100.341964,187.929548 Z" id="Path" fill="#000000" opacity="0.05"></path>
                    <path d="M103.822374,184.745867 C103.822374,184.745867 105.666139,181.259057 107.711218,182.731631 C109.756298,184.204204 108.741599,186.30804 115.365556,188.368247 C121.989513,190.428454 117.611936,194.8002 113.559023,194.466223 C109.50611,194.132246 100.865011,192.557865 100.865011,192.557865 C100.865011,192.557865 98.6186309,186.125912 99.6612422,185.980459 C100.703854,185.835007 102.142675,190.580875 103.822374,184.745867 Z" id="Path" fill="#2F2E41"></path>
                    <path d="M113.286733,193.686605 C115.918012,193.903423 118.684859,192.136764 118.490411,190.306947 C119.747829,192.373345 116.564883,194.713933 113.559034,194.466237 C109.506118,194.132271 100.865022,192.557879 100.865022,192.557879 C100.865022,192.557879 100.759311,192.255122 100.604649,191.780426 C100.856249,191.82617 109.294426,193.35765 113.286733,193.686605 Z" id="Path" fill="#FFFFFF" opacity="0.3"></path>
                    <path d="M70.9372259,190.840708 C71.1752801,192.698002 73.2352751,193.088404 77.1201136,193.643384 C79.0957571,193.925618 79.7405939,193.049794 79.859232,192.013345 C79.9883776,193.340825 79.6113719,194.825094 77.1201136,194.469196 C72.7846037,193.849836 70.7200736,193.436931 70.9265119,190.959496 C70.9297399,190.920949 70.9337234,190.880135 70.9372259,190.840708 Z" id="Path" fill="#FFFFFF" opacity="0.3"></path>
                    <path d="M61.4938873,110.257313 L60.8085652,120.537161 C60.8085652,120.537161 60.2603047,130.954076 64.5093101,131.776463 C68.7583156,132.598849 64.5093101,118.481192 64.5093101,118.481192 L64.5093101,109.1608 L61.4938873,110.257313 Z" id="Path" fill="#FBBEBE"></path>
                    <path d="M65.0575791,72.8386614 L64.5093101,74.0722524 C64.5093101,74.0722524 64.6463745,82.7073249 64.5093101,83.3926442 C64.3722457,84.0779634 62.5904054,89.4234899 62.5904054,89.9717476 C62.5904054,90.5200052 61.2197584,106.419506 60.9456296,107.37896 C60.6715008,108.338413 59.4379182,111.353836 60.5344363,111.76503 C61.6309545,112.176223 63.6869236,110.531447 64.5093101,111.76503 C65.3316966,112.998612 66.0170215,111.76503 66.0170215,111.353836 C66.0170215,110.942643 66.2911504,103.129954 67.9359262,100.936921 C69.5807021,98.7438873 71.0884135,93.8095597 71.3625423,92.850106 C71.6366712,91.8906522 72.0478672,78.0471234 72.1849317,77.7729946 C72.3219961,77.4988657 71.6366712,73.798118 71.6366712,73.798118 L65.0575791,72.8386614 Z" id="Path" fill="#3F3D56"></path>
                    <path d="M72.8702538,87.3675151 C72.8702538,87.3675151 71.2254779,93.8095541 70.1289626,95.0431367 C69.0324472,96.2767193 63.5498592,105.460049 65.1946209,117.658802 C66.8393826,129.857555 69.717775,145.757059 69.717775,145.757059 C69.717775,145.757059 70.1289711,151.376709 69.5807106,152.88442 C69.0324501,154.392131 72.0478757,178.378447 72.0478757,178.378447 C72.0478757,178.378447 76.2968783,181.667999 78.6269791,177.556058 C78.6269791,177.556058 78.0787186,168.646856 78.6269791,167.824467 C79.1752396,167.002078 78.6269791,152.199098 78.6269791,152.199098 C78.6269791,152.199098 79.0381724,115.328704 81.2312059,116.836416 C83.4242394,118.344127 90.14041,143.975216 90.14041,143.975216 C90.14041,143.975216 93.0187684,153.843874 92.8817012,154.66626 C92.7446339,155.488647 95.3488522,165.768509 95.3488522,165.768509 C95.3488522,165.768509 97.8160146,180.023243 98.7754683,180.297363 C99.7349221,180.571483 105.628701,180.708556 106.176961,179.200845 L104.532185,166.316767 C104.532185,166.316767 102.887409,151.650849 102.06502,149.59488 C101.242631,147.538911 99.8719865,118.344139 95.8971099,109.709069 C95.8971099,109.709069 94.3893985,95.8655402 93.2928831,93.8095711 C93.2928831,93.8095711 92.6496194,90.9850176 93.4433946,88.3482215 C93.4434115,88.3482046 74.3779708,88.4640305 72.8702538,87.3675151 Z" id="Path" fill="#2F2E41"></path>
                    <ellipse id="Oval" fill="#2F2E41" cx="81.0256022" cy="47.0705055" rx="11.5134309" ry="14.5973845"></ellipse>
                    <path d="M104.669244,64.2035889 L102.887404,68.0413983 L81.7794466,74.2093084 C81.7794466,74.2093084 67.1135284,78.458311 65.605817,71.6050646 C64.0981055,64.7518183 71.362531,64.0665103 71.362531,64.0665103 C71.362531,64.0665103 74.103825,62.1476028 77.5304411,60.2286982 C78.6762999,59.5858644 79.0559706,58.5455419 79.0532263,57.4449158 C79.0503983,57.1175974 79.0196746,56.7911157 78.9613889,56.4690161 C78.8952839,56.0967521 78.8036922,55.7294673 78.6872601,55.3697536 C78.3970945,54.4819771 78.0091038,53.6292215 77.5304411,52.8272083 C77.5304411,52.8272083 86.5767097,49.2635249 86.4396453,51.1824324 C86.3817211,51.8736522 86.4561505,52.5695771 86.6589449,53.2329129 C86.84612,53.8137761 87.0985666,54.3715381 87.4114455,54.8955069 C87.5649388,55.1600335 87.7362701,55.4341793 87.9267915,55.7247569 C88.1735143,56.1016834 88.4544868,56.5032829 88.7697432,56.9391465 C90.5515835,59.4063116 96.4453647,59.4063116 96.4453647,59.4063116 C101.105575,58.8580653 104.669244,64.2035889 104.669244,64.2035889 Z" id="Path" fill="#FBBEBE"></path>
                    <path d="M126.462534,86.1339325 C126.462534,86.1339325 136.33119,93.3983721 138.250094,93.2612936 C140.168999,93.124215 151.408301,92.4389071 148.804074,95.0431367 C146.199847,97.6473663 134.412285,96.0025876 134.412285,96.0025876 L123.584173,89.1493554 L126.462534,86.1339325 Z" id="Path" fill="#FBBEBE"></path>
                    <path d="M86.6589563,53.2329271 C84.624804,55.4040473 81.5346275,56.2323809 78.6872714,55.3697678 C78.3971058,54.4819913 78.0091151,53.6292357 77.5304524,52.8272224 C77.5304524,52.8272224 86.576721,49.2635391 86.4396566,51.1824466 C86.3817324,51.8736664 86.4561618,52.5695913 86.6589563,53.2329271 L86.6589563,53.2329271 Z" id="Path" fill="#000000" opacity="0.1"></path>
                    <circle id="Oval" fill="#FBBEBE" cx="80.9570686" cy="46.9334411" r="7.81268596"></circle>
                    <path d="M71.2254779,69.6861741 C71.2254779,69.6861741 105.217513,62.0105526 105.354577,63.1070707 C105.491642,64.2035889 106.862289,66.3966224 106.862289,66.3966224 L98.9125384,75.442891 C98.9125384,75.442891 99.8719922,79.828958 97.9530875,80.7884118 C96.0341828,81.7478655 95.7600511,89.012291 93.9782109,89.1493554 C92.1963706,89.2864198 71.3625423,89.012291 71.2254779,87.9157728 C71.0884135,86.8192546 71.7737384,86.1339325 71.2254779,85.8598037 C70.6772174,85.5856749 69.8548309,85.5856749 70.5401558,84.2150279 C71.2254807,82.8443808 71.2254779,77.0876668 71.2254779,77.0876668 L64.7834333,74.0722524 C64.7834333,74.0722524 63.8999878,71.5182235 65.5067595,71.0819299 C67.1135312,70.6456363 71.2254779,69.6861741 71.2254779,69.6861741 Z" id="Path" fill="#3F3D56"></path>
                    <path d="M105.628706,66.1224936 L106.862289,66.1224936 C106.862289,66.1224936 110.563034,68.5896559 111.522485,70.7826894 C112.481936,72.975723 115.908555,75.8540814 116.730941,76.6764679 C117.553328,77.4988544 128.79263,85.3115432 128.655576,86.4080585 C128.518523,87.5045739 125.366025,88.6010949 125.22896,89.8346746 C125.091896,91.0682544 126.599607,91.6165149 125.640156,91.6165149 C124.680706,91.6165149 118.786921,88.1898988 116.593888,86.956319 C114.400854,85.7227393 109.87772,82.1590559 109.329462,81.1996022 C108.781205,80.2401484 105.080457,78.5953726 104.669267,77.9100505 C104.258076,77.2247284 97.8160202,74.0722524 97.8160202,74.0722524 L105.628706,66.1224936 Z" id="Path" fill="#3F3D56"></path>
                    <circle id="Oval" fill="#2F2E41" cx="69.5121713" cy="38.229835" r="4.38606986"></circle>
                    <circle id="Oval" fill="#2F2E41" cx="88.8382853" cy="32.473121" r="4.38606986"></circle>
                    <ellipse id="Oval" fill="#2F2E41" cx="82.0535867" cy="41.8620492" rx="8.15534559" ry="5.00286115"></ellipse>
                    <path d="M87.4114427,54.8955267 C83.6531299,56.3744542 80.6829397,56.5498962 78.9614087,56.4690303 C79.0196882,56.7911306 79.05041,57.1176119 79.0532405,57.4449299 C79.2533556,57.4531543 79.4685473,57.4572651 79.6974407,57.4572651 C81.5985301,57.4572651 84.4385082,57.1269406 87.9268028,55.7247682 L87.4114427,54.8955267 Z" id="Path" fill="#2F2E41"></path>
                    <rect id="Rectangle" fill="#3F3D56" x="140.77148" y="95.7040261" width="119.107726" height="71.2948857" rx="21.43307"></rect>
                    <rect id="Rectangle" fill="#04CCFC" opacity="0.3" x="153.61397" y="145.709467" width="93.3623504" height="3.39499456"></rect>
                    <rect id="Rectangle" fill="#04CCFC" opacity="0.3" x="153.674366" y="136.797606" width="93.3623504" height="3.39499456"></rect>
                    <rect id="Rectangle" fill="#04CCFC" opacity="0.3" x="230.34466" y="124.632209" width="16.6920566" height="3.39499456"></rect>
                    <rect id="Rectangle" fill="#04CCFC" opacity="0.3" x="185.926815" y="115.57889" width="61.1099021" height="3.39499456"></rect>
                    <rect id="Rectangle" fill="#04CCFC" opacity="0.3" x="153.61397" y="154.762786" width="46.7415721" height="3.39499456"></rect>
                    <rect id="Rectangle" fill="#04CCFC" x="153.674366" y="104.545158" width="23.4820457" height="23.4820457" rx="10.16535"></rect>
                </g>
            </g>
        </g>
    </g>
</svg>