<?xml version="1.0" encoding="UTF-8"?>
<svg width="180px" height="145px" viewBox="0 0 180 145" version="1.1" xmlns="http://www.w3.org/2000/svg" xmlns:xlink="http://www.w3.org/1999/xlink">
    <!-- Generator: Sketch 64 (93537) - https://sketch.com -->
    <title>undraw_real-time_sync_o57k</title>
    <desc>Created with Sketch.</desc>
    <defs>
        <linearGradient x1="50.006697%" y1="100.641097%" x2="50.006697%" y2="0.321467971%" id="linearGradient-1">
            <stop stop-color="#808080" stop-opacity="0.25" offset="0%"></stop>
            <stop stop-color="#808080" stop-opacity="0.12" offset="54%"></stop>
            <stop stop-color="#808080" stop-opacity="0.1" offset="100%"></stop>
        </linearGradient>
        <linearGradient x1="50%" y1="100%" x2="50%" y2="0%" id="linearGradient-2">
            <stop stop-color="#808080" stop-opacity="0.25" offset="0%"></stop>
            <stop stop-color="#808080" stop-opacity="0.12" offset="54%"></stop>
            <stop stop-color="#808080" stop-opacity="0.1" offset="100%"></stop>
        </linearGradient>
        <linearGradient x1="49.9870096%" y1="100%" x2="49.9870096%" y2="-0.00176692385%" id="linearGradient-3">
            <stop stop-color="#808080" stop-opacity="0.25" offset="0%"></stop>
            <stop stop-color="#808080" stop-opacity="0.12" offset="54%"></stop>
            <stop stop-color="#808080" stop-opacity="0.1" offset="100%"></stop>
        </linearGradient>
        <linearGradient x1="50.005957%" y1="99.9507874%" x2="50.005957%" y2="-0.0984251969%" id="linearGradient-4">
            <stop stop-color="#808080" stop-opacity="0.25" offset="0%"></stop>
            <stop stop-color="#808080" stop-opacity="0.12" offset="54%"></stop>
            <stop stop-color="#808080" stop-opacity="0.1" offset="100%"></stop>
        </linearGradient>
        <linearGradient x1="49.903479%" y1="100.782987%" x2="49.903479%" y2="0.579830118%" id="linearGradient-5">
            <stop stop-color="#808080" stop-opacity="0.25" offset="0%"></stop>
            <stop stop-color="#808080" stop-opacity="0.12" offset="54%"></stop>
            <stop stop-color="#808080" stop-opacity="0.1" offset="100%"></stop>
        </linearGradient>
        <linearGradient x1="50%" y1="100%" x2="50%" y2="0%" id="linearGradient-6">
            <stop stop-color="#808080" stop-opacity="0.25" offset="0%"></stop>
            <stop stop-color="#808080" stop-opacity="0.12" offset="54%"></stop>
            <stop stop-color="#808080" stop-opacity="0.1" offset="100%"></stop>
        </linearGradient>
        <linearGradient x1="-0.0196850389%" y1="49.9898921%" x2="100.078738%" y2="49.9898921%" id="linearGradient-7">
            <stop stop-color="#808080" stop-opacity="0.25" offset="0%"></stop>
            <stop stop-color="#808080" stop-opacity="0.12" offset="54%"></stop>
            <stop stop-color="#808080" stop-opacity="0.1" offset="100%"></stop>
        </linearGradient>
        <linearGradient x1="49.8890943%" y1="100.047312%" x2="49.8890943%" y2="0.0894121147%" id="linearGradient-8">
            <stop stop-color="#808080" stop-opacity="0.25" offset="0%"></stop>
            <stop stop-color="#808080" stop-opacity="0.12" offset="54%"></stop>
            <stop stop-color="#808080" stop-opacity="0.1" offset="100%"></stop>
        </linearGradient>
        <linearGradient x1="50%" y1="99.9862259%" x2="50%" y2="0%" id="linearGradient-9">
            <stop stop-color="#808080" stop-opacity="0.25" offset="0%"></stop>
            <stop stop-color="#808080" stop-opacity="0.12" offset="54%"></stop>
            <stop stop-color="#808080" stop-opacity="0.1" offset="100%"></stop>
        </linearGradient>
        <linearGradient x1="50.007216%" y1="100.888465%" x2="50.007216%" y2="0.431617168%" id="linearGradient-10">
            <stop stop-color="#808080" stop-opacity="0.25" offset="0%"></stop>
            <stop stop-color="#808080" stop-opacity="0.12" offset="54%"></stop>
            <stop stop-color="#808080" stop-opacity="0.1" offset="100%"></stop>
        </linearGradient>
        <linearGradient x1="50.006267%" y1="101.015402%" x2="50.006267%" y2="0.555237963%" id="linearGradient-11">
            <stop stop-color="#000000" stop-opacity="0.09" offset="0%"></stop>
            <stop stop-color="#000000" stop-opacity="0.07" offset="55%"></stop>
            <stop stop-color="#000000" stop-opacity="0.02" offset="100%"></stop>
        </linearGradient>
        <linearGradient x1="-0.0196656834%" y1="49.9766127%" x2="99.9803343%" y2="49.9766127%" id="linearGradient-12">
            <stop stop-color="#808080" stop-opacity="0.25" offset="0%"></stop>
            <stop stop-color="#808080" stop-opacity="0.12" offset="54%"></stop>
            <stop stop-color="#808080" stop-opacity="0.1" offset="100%"></stop>
        </linearGradient>
    </defs>
    <g id="WebDesktop" stroke="none" stroke-width="1" fill="none" fill-rule="evenodd">
        <g id="Landing" transform="translate(-551.000000, -1559.000000)">
            <g id="features" transform="translate(0.000000, 1365.000000)">
                <g transform="translate(88.000000, 181.000000)" id="mobile-friendly">
                    <g transform="translate(403.000000, 13.000000)">
                        <g id="undraw_real-time_sync_o57k" transform="translate(60.000000, 0.000000)">
                            <rect id="Rectangle" fill="url(#linearGradient-1)" fill-rule="nonzero" x="16.4434024" y="37.6277851" width="29.3103599" height="51.6792923" rx="10"></rect>
                            <rect id="Rectangle" fill="#FFFFFF" fill-rule="nonzero" x="17.1186478" y="38.4772608" width="27.9598691" height="49.628768" rx="10"></rect>
                            <polygon id="Rectangle" fill="#E6E6E6" fill-rule="nonzero" transform="translate(31.206998, 62.100992) rotate(-0.080000) translate(-31.206998, -62.100992) " points="20.3825163 41.9069312 42.0296251 41.907894 42.0314806 82.2950526 20.3843718 82.2940897"></polygon>
                            <ellipse id="Oval" fill="#DBDBDB" fill-rule="nonzero" transform="translate(31.238355, 85.204007) rotate(-0.080000) translate(-31.238355, -85.204007) " cx="31.2383549" cy="85.2040068" rx="1.72540884" ry="1.71225437"></ellipse>
                            <circle id="Oval" fill="#DBDBDB" fill-rule="nonzero" transform="translate(27.897087, 40.026719) rotate(-0.080000) translate(-27.897087, -40.026719) " cx="27.8970871" cy="40.0267191" r="1"></circle>
                            <path d="M29.706288,39.7643429 L34.544132,39.7645581 C34.6858242,39.7645644 34.800685,39.8794304 34.800685,40.0211226 C34.800685,40.1628066 34.6858274,40.2776642 34.5441434,40.2776642 C34.5441396,40.2776642 34.5441358,40.2776642 34.544132,40.2776642 L29.706288,40.2774491 C29.5645958,40.2774428 29.4497349,40.1625768 29.4497349,40.0208846 C29.4497349,39.8792005 29.5645925,39.7643429 29.7062766,39.7643429 C29.7062804,39.7643429 29.7062842,39.7643429 29.706288,39.7643429 Z" id="Rectangle" fill="#DBDBDB" fill-rule="nonzero" transform="translate(32.125210, 40.021004) rotate(-0.080000) translate(-32.125210, -40.021004) "></path>
                            <rect id="Rectangle" fill="url(#linearGradient-2)" fill-rule="nonzero" x="25.0782988" y="65.3279161" width="12.2564885" height="12.4589777"></rect>
                            <rect id="Rectangle" fill="#04CCFC" fill-rule="nonzero" x="25.6122137" y="65.8695282" width="11.1906216" height="11.3757536"></rect>
                            <g id="Group" opacity="0.5" transform="translate(27.284624, 66.893840)" fill="url(#linearGradient-3)" fill-rule="nonzero">
                                <path d="M4.76990185,4.13145478 L4.76990185,3.91671035 L5.35877863,3.91671035 L5.35877863,2.8163827 C5.85246235,2.09071167 5.72588064,1.12492514 5.06063565,0.541626951 C4.39539065,-0.0416712426 3.39020206,-0.0682402753 2.69307465,0.479047842 C1.99594723,1.02633596 1.81512448,1.98399721 2.26717557,2.73466579 L2.26717557,3.91671035 L2.91690294,3.91671035 L2.91690294,4.16946265 C1.2812485,4.60619768 0.147948137,6.0463197 0.147219193,7.68899083 L0.147219193,10.8930537 L7.70250818,10.8930537 L7.70250818,7.68899083 C7.70164554,5.98609722 6.48482343,4.50997392 4.76990185,4.13145478 Z" id="Path"></path>
                            </g>
                            <rect id="Rectangle" fill="#F55F44" fill-rule="nonzero" x="29.7147219" y="68.7942333" width="2.79716467" height="2.16644823"></rect>
                            <path d="M30.3193021,71.0747051 L32.0859324,71.0747051 C33.480075,71.0747051 34.6102508,72.1688789 34.6102508,73.5186107 L34.6102508,77.2775885 L27.7949836,77.2775885 L27.7949836,73.51481 C27.7971494,72.1665627 28.9266912,71.0747051 30.3193021,71.0747051 L30.3193021,71.0747051 Z" id="Path" fill="#FDD835" fill-rule="nonzero"></path>
                            <rect id="Rectangle" fill="#FDA57D" fill-rule="nonzero" x="30.3016358" y="69.991481" width="1.67044711" height="2.02201835" rx="0.835223555"></rect>
                            <polygon id="Path" fill="#FDA57D" fill-rule="nonzero" points="30.8178844 71.9526868 31.1299891 72.393578 31.4577972 71.9526868"></polygon>
                            <path d="M29.078735,73.5452163 C29.078735,73.5452163 28.7470011,76.7416776 28.9609597,76.9488204" id="Path" fill="#000000" fill-rule="nonzero" opacity="0.1"></path>
                            <path d="M33.1812432,73.5452163 C33.1812432,73.5452163 33.5129771,76.7416776 33.2990185,76.9488204" id="Path" fill="#000000" fill-rule="nonzero" opacity="0.1"></path>
                            <path d="M31.1378408,70.9739849 C31.4345631,70.9742691 31.7235455,70.8823425 31.9622683,70.71173 C31.8977012,70.3192197 31.5483747,70.0301404 31.1378408,70.0294889 L31.1378408,70.0294889 C30.7273069,70.0301404 30.3779804,70.3192197 30.3134133,70.71173 C30.5521361,70.8823425 30.8411185,70.9742691 31.1378408,70.9739849 L31.1378408,70.9739849 Z" id="Path" fill="#000000" fill-rule="nonzero" opacity="0.05"></path>
                            <ellipse id="Oval" fill="#F55F44" fill-rule="nonzero" cx="31.1378408" cy="69.0887942" rx="1.64689204" ry="1.59442988"></ellipse>
                            <ellipse id="Oval" fill="#FDA57D" fill-rule="nonzero" cx="31.1378408" cy="69.5866972" rx="1.3917121" ry="1.34737877"></ellipse>
                            <ellipse id="Oval" fill="#FDA57D" fill-rule="nonzero" cx="29.7422028" cy="69.4992792" rx="1" ry="1"></ellipse>
                            <ellipse id="Oval" fill="#FDA57D" fill-rule="nonzero" cx="32.5354417" cy="69.4992792" rx="1" ry="1"></ellipse>
                            <rect id="Rectangle" fill="#FFFFFF" fill-rule="nonzero" x="21.7609597" y="44.5186107" width="18.8911668" height="1"></rect>
                            <rect id="Rectangle" fill="#FFFFFF" fill-rule="nonzero" x="21.7609597" y="46.1073394" width="18.8911668" height="1"></rect>
                            <rect id="Rectangle" fill="#FFFFFF" fill-rule="nonzero" x="21.7609597" y="47.6979685" width="10.6782988" height="1"></rect>
                            <rect id="Rectangle" fill="#FFFFFF" fill-rule="nonzero" x="21.7609597" y="49.2885976" width="15.6052345" height="1"></rect>
                            <rect id="Rectangle" fill="#FFFFFF" fill-rule="nonzero" x="21.7609597" y="50.8792267" width="13.1417666" height="1"></rect>
                            <rect id="Rectangle" fill="#FFFFFF" fill-rule="nonzero" x="21.7609597" y="52.4698558" width="18.8911668" height="1"></rect>
                            <rect id="Rectangle" fill="#FFFFFF" fill-rule="nonzero" x="22.5834242" y="54.8548493" width="16.427699" height="6.36061599"></rect>
                            <path d="M138.478299,86.8726737 C138.478299,86.8726737 141.22639,105.152556 157.359651,111.224312 L124.716249,111.268021 L92.0728462,111.31173 C108.180589,105.196265 110.887459,86.9087811 110.887459,86.9087811 L138.478299,86.8726737 Z" id="Path" fill="#E0E0E0" fill-rule="nonzero"></path>
                            <polygon id="Rectangle" fill="url(#linearGradient-4)" fill-rule="nonzero" transform="translate(124.701975, 113.195856) rotate(-0.080000) translate(-124.701975, -113.195856) " points="91.7503069 111.263591 157.653465 111.266522 157.653643 115.128121 91.7504843 115.12519"></polygon>
                            <polygon id="Rectangle" fill="#F5F5F5" fill-rule="nonzero" transform="translate(124.722931, 112.754938) rotate(-0.080000) translate(-124.722931, -112.754938) " points="92.0794622 111.263578 157.366263 111.266482 157.3664 114.246299 92.0795991 114.243395"></polygon>
                            <path d="M177.691603,21.0943644 L71.517121,21.2368938 C70.3144079,21.2648978 69.3627483,22.2313309 69.3906509,23.3957405 L69.4737186,83.3683486 L69.4737186,85.3656619 C69.4737186,89.9266055 73.1306434,93.6114679 77.6296619,93.6057733 L171.773391,93.4803408 C176.270447,93.4803408 179.911668,89.7764744 179.905787,85.2193316 L179.905787,83.2239187 L179.823337,23.2513106 C179.836496,22.6914908 179.619203,22.1495773 179.21934,21.7449853 C178.819477,21.3403932 178.269861,21.1063268 177.691603,21.0943644 Z" id="Path" fill="url(#linearGradient-5)" fill-rule="nonzero"></path>
                            <path d="M72.7773173,23.1030791 L176.31952,23.1030791 C177.484919,23.1030791 178.429662,24.0177276 178.429662,25.1460026 L178.429662,82.2186107 L70.6652126,82.2186107 L70.6652126,25.1460026 C70.6652126,24.6038564 70.8877997,24.0839428 71.2839527,23.7007658 C71.6801057,23.3175888 72.2173329,23.1030791 72.7773173,23.1030791 Z" id="Path" fill="#FFFFFF" fill-rule="nonzero"></path>
                            <path d="M171.051036,91.7053735 L78.3304253,91.8289053 C76.3354877,91.8314208 74.4212231,91.0665974 73.0087486,89.7026816 C71.5962742,88.3387657 70.8012927,86.4874827 70.7986914,84.5560944 L70.7986914,82.0855832 L178.56315,81.9411533 L178.56315,84.4116645 C178.566267,86.3433818 177.776508,88.1971554 176.367658,89.5650463 C174.958809,90.9329373 173.046314,91.7028554 171.051036,91.7053735 L171.051036,91.7053735 Z" id="Path" fill="#F5F5F5" fill-rule="nonzero"></path>
                            <rect id="Rectangle" fill="#E6E6E6" fill-rule="nonzero" x="75.9886587" y="27.8920708" width="97.5199564" height="47.7226737"></rect>
                            <rect id="Rectangle" fill="url(#linearGradient-6)" fill-rule="nonzero" x="147.851254" y="31.0391219" width="17.2619411" height="17.5482307"></rect>
                            <rect id="Rectangle" fill="#04CCFC" fill-rule="nonzero" x="148.601091" y="31.8030799" width="15.7622683" height="16.0222149"></rect>
                            <g id="Group" opacity="0.5" transform="translate(151.145038, 33.446920)" fill="url(#linearGradient-7)" fill-rule="nonzero">
                                <path d="M6.41483097,5.48073394 L6.21853871,5.41231979 L6.20676118,5.42942333 L6.19498364,5.42942333 L6.19498364,4.91251638 C6.19500042,4.84886556 6.18974916,4.78531576 6.17928026,4.72247706 C6.49728112,4.49592421 6.74067952,4.18503138 6.88004362,3.82739187 C7.64382913,2.86888368 7.52294221,1.50392128 6.60176513,0.68528467 C5.68058805,-0.133351936 4.26554063,-0.133351936 3.34436355,0.68528467 C2.42318647,1.50392128 2.30229955,2.86888368 3.06608506,3.82739187 C3.20544916,4.18503138 3.44884756,4.49592421 3.76684842,4.72247706 C3.75637953,4.78531576 3.75112826,4.84886556 3.75114504,4.91251638 L3.75114504,5.48263434 L3.75114504,5.48263434 C1.5861893,6.06127701 0.0866031555,7.96800113 0.0863685932,10.1423984 L0.0863685932,14.3821756 L10.0580155,14.3821756 L10.0580155,10.1366972 C10.0587171,7.96960354 8.56981958,6.06680324 6.41483097,5.48073394 L6.41483097,5.48073394 Z" id="Path"></path>
                            </g>
                            <path d="M155.91494,38.8231257 L156.523446,38.8231257 C159.009269,38.8231257 161.024427,40.7740971 161.024427,43.1807339 L161.024427,47.5516383 L151.406107,47.5516383 L151.406107,43.1807339 C151.406107,42.0237079 151.881392,40.9141813 152.727189,40.0967536 C153.572985,39.279326 154.719846,38.821114 155.91494,38.8231257 L155.91494,38.8231257 Z" id="Path" fill="#514ABF" fill-rule="nonzero"></path>
                            <rect id="Rectangle" fill="#FDA57D" fill-rule="nonzero" x="154.945256" y="37.3047182" width="2.35354417" height="2.84868938" rx="1.17677208"></rect>
                            <polygon id="Path" fill="#000000" fill-rule="nonzero" opacity="0.05" points="154.12868 39.3267366 154.917775 40.9648755 155.700981 40.2066186 154.917775 39.0416776"></polygon>
                            <path d="M154.156161,39.2469201 L154.94133,40.885059 L155.726499,40.1249017 L154.94133,38.9618611 L154.580153,39.0682831 C154.544702,39.0788757 154.509959,39.0915689 154.476118,39.106291 L154.156161,39.2469201 Z" id="Path" fill="#FFFFFF" fill-rule="nonzero"></path>
                            <polygon id="Path" fill="#000000" fill-rule="nonzero" opacity="0.05" points="158.117339 39.2469201 157.326281 40.9648755 156.541112 40.2066186 157.347874 38.980865"></polygon>
                            <path d="M158.089858,39.1671035 L157.304689,40.8774574 L156.51952,40.1173001 L157.326281,38.8915465 L157.473501,38.9333552 C157.633253,38.9775346 157.789948,39.0314876 157.942639,39.0948886 L158.089858,39.1671035 Z" id="Path" fill="#FFFFFF" fill-rule="nonzero"></path>
                            <polygon id="Path" fill="#FDA57D" fill-rule="nonzero" points="155.669575 40.0659895 156.109269 40.6855177 156.572519 40.0659895"></polygon>
                            <path d="M153.219847,42.3103539 C153.219847,42.3103539 152.752672,46.8123853 153.054962,47.1050459" id="Path" fill="#000000" fill-rule="nonzero" opacity="0.1"></path>
                            <path d="M158.998691,42.3103539 C158.998691,42.3103539 159.465867,46.8123853 159.163577,47.1050459" id="Path" fill="#000000" fill-rule="nonzero" opacity="0.1"></path>
                            <path d="M156.121047,38.6863041 C156.539063,38.6863382 156.946176,38.5571763 157.283097,38.3176278 C157.191557,37.7649552 156.699197,37.3583317 156.121047,37.3579292 L156.121047,37.3579292 C155.542897,37.3583317 155.050537,37.7649552 154.958997,38.3176278 C155.295918,38.5571763 155.70303,38.6863382 156.121047,38.6863041 L156.121047,38.6863041 Z" id="Path" fill="#000000" fill-rule="nonzero" opacity="0.05"></path>
                            <ellipse id="Oval" fill="#000000" fill-rule="nonzero" cx="156.121047" cy="36.0314548" rx="2.31821156" ry="2.24436435"></ellipse>
                            <ellipse id="Oval" fill="#FDA57D" fill-rule="nonzero" cx="156.121047" cy="36.7346003" rx="1.96095965" ry="1.89849279"></ellipse>
                            <path d="M154.540894,34.853211 L155.035551,35.4385321 C155.035551,35.4385321 157.208506,35.6285714 157.455834,35.1458716 C157.703162,34.6631717 156.024864,34.3192005 156.024864,34.3192005 L154.540894,34.853211 Z" id="Path" fill="#000000" fill-rule="nonzero" opacity="0.05"></path>
                            <path d="M154.540894,34.8 L155.035551,35.3853211 C155.035551,35.3853211 157.208506,35.5753604 157.455834,35.0926606 C157.703162,34.6099607 156.024864,34.2659895 156.024864,34.2659895 L154.540894,34.8 Z" id="Path" fill="#000000" fill-rule="nonzero"></path>
                            <ellipse id="Oval" fill="#FDA57D" fill-rule="nonzero" cx="154.156161" cy="36.6110747" rx="1" ry="1"></ellipse>
                            <ellipse id="Oval" fill="#FDA57D" fill-rule="nonzero" cx="158.089858" cy="36.6110747" rx="1" ry="1"></ellipse>
                            <rect id="Rectangle" fill="url(#linearGradient-6)" fill-rule="nonzero" x="147.951363" y="52.0897772" width="17.2619411" height="17.5482307"></rect>
                            <rect id="Rectangle" fill="#04CCFC" fill-rule="nonzero" x="148.7012" y="52.8518349" width="15.7622683" height="16.0222149"></rect>
                            <g id="Group" opacity="0.5" transform="translate(151.145038, 53.591088)" fill="url(#linearGradient-8)" fill-rule="nonzero">
                                <path d="M6.62878953,6.48034076 L6.62878953,5.89121887 C6.62878953,5.86271298 6.62878953,5.83230668 6.62878953,5.80380079 C6.96260748,5.5618303 7.21745773,5.23197478 7.36292257,4.85360419 C7.85234636,4.23908554 8.01645918,3.43820667 7.80641428,2.68934209 C7.59636939,1.9404775 7.03638288,1.32996384 6.29312977,1.03951507 C6.369787,0.710007698 6.23609302,0.367992081 5.95330725,0.170181902 C5.67052148,-0.0276282777 5.2931393,-0.0431132047 4.99407957,0.130822411 C4.69501984,0.304758026 4.53191408,0.634595213 4.57949836,0.969200524 C3.77633076,1.20846938 3.14545523,1.81390175 2.89126185,2.58935058 C2.63706847,3.36479941 2.79188777,4.21163639 3.30556161,4.85550459 C3.45102646,5.23387517 3.70587671,5.5637307 4.03969466,5.80570118 C4.03969466,5.83420708 4.03969466,5.86271298 4.03969466,5.89311927 L4.03969466,6.51644823 C1.77904858,6.93611007 0.143318418,8.84889144 0.139367503,11.0773919 L0.139367503,16.0773263 L10.7587786,16.0773263 L10.7587786,11.0849934 C10.7580852,8.76875168 8.99750434,6.80582563 6.62878953,6.48034076 L6.62878953,6.48034076 Z" id="Path"></path>
                            </g>
                            <path d="M156.278081,60.1778506 L156.886587,60.1778506 C158.080321,60.1778506 159.225163,60.6369537 160.069261,61.4541625 C160.913359,62.2713714 161.387568,63.3797444 161.387568,64.5354522 L161.387568,68.9063565 L151.769248,68.9063565 L151.769248,64.5354522 C151.769248,62.1288153 153.784406,60.1778506 156.270229,60.1778506 L156.278081,60.1778506 Z" id="Path" fill="#FFFFFF" fill-rule="nonzero"></path>
                            <rect id="Rectangle" fill="#FDB797" fill-rule="nonzero" x="155.306434" y="58.6594364" width="2.35354417" height="2.84868938" rx="1.17677208"></rect>
                            <polygon id="Path" fill="#FDB797" fill-rule="nonzero" points="156.032715 61.4207077 156.47241 62.0402359 156.933697 61.4207077"></polygon>
                            <path d="M153.582988,63.6631717 C153.582988,63.6631717 153.115812,68.1652031 153.418103,68.4578637" id="Path" fill="#000000" fill-rule="nonzero" opacity="0.1"></path>
                            <path d="M159.361832,63.6631717 C159.361832,63.6631717 159.829008,68.1652031 159.526718,68.4578637" id="Path" fill="#000000" fill-rule="nonzero" opacity="0.1"></path>
                            <path d="M156.492039,60.0410223 C156.910056,60.0410565 157.317168,59.9118945 157.654089,59.672346 C157.562549,59.1196734 157.070189,58.7130499 156.492039,58.7126474 L156.492039,58.7126474 C155.907954,58.705521 155.406727,59.1139482 155.314286,59.672346 C155.655527,59.9149938 156.06866,60.0443181 156.492039,60.0410223 L156.492039,60.0410223 Z" id="Path" fill="#000000" fill-rule="nonzero" opacity="0.05"></path>
                            <ellipse id="Oval" fill="#FDD835" fill-rule="nonzero" cx="156.484188" cy="57.386173" rx="2.31821156" ry="2.24436435"></ellipse>
                            <ellipse id="Oval" fill="#FDB797" fill-rule="nonzero" cx="156.484188" cy="58.0893185" rx="1.96095965" ry="1.89849279"></ellipse>
                            <ellipse id="Oval" fill="#FDB797" fill-rule="nonzero" cx="154.517339" cy="57.9657929" rx="1" ry="1"></ellipse>
                            <ellipse id="Oval" fill="#FDB797" fill-rule="nonzero" cx="158.452999" cy="57.9657929" rx="1" ry="1"></ellipse>
                            <ellipse id="Oval" fill="#FDD835" fill-rule="nonzero" cx="156.582334" cy="55.1418087" rx="1" ry="1"></ellipse>
                            <path d="M155.006107,55.9038663 C155.006107,55.9038663 155.791276,57.4241809 158.158561,56.6640236 L157.373391,55.9038663 L155.006107,55.9038663 Z" id="Path" fill="#FDD835" fill-rule="nonzero"></path>
                            <rect id="Rectangle" fill="#FFFFFF" fill-rule="nonzero" x="83.8187568" y="33.8802097" width="43.376663" height="1.82627785"></rect>
                            <rect id="Rectangle" fill="#FFFFFF" fill-rule="nonzero" x="83.8187568" y="37.530865" width="43.376663" height="1.82627785"></rect>
                            <rect id="Rectangle" fill="#FFFFFF" fill-rule="nonzero" x="83.8187568" y="41.1834207" width="24.5169029" height="1.82627785"></rect>
                            <rect id="Rectangle" fill="#FFFFFF" fill-rule="nonzero" x="83.8187568" y="44.834076" width="35.8331516" height="1.82627785"></rect>
                            <rect id="Rectangle" fill="#FFFFFF" fill-rule="nonzero" x="83.8187568" y="48.4866317" width="30.1740458" height="1.82627785"></rect>
                            <rect id="Rectangle" fill="#FFFFFF" fill-rule="nonzero" x="83.8187568" y="52.137287" width="43.376663" height="1.82627785"></rect>
                            <rect id="Rectangle" fill="#FFFFFF" fill-rule="nonzero" x="85.7051254" y="57.6161206" width="37.7175573" height="14.606422"></rect>
                            <path d="M26.2960025,116.043709 L6.4953108,116.043709 L6.4953108,6.49174312 L123.495311,6.49174312 L123.495311,15.621232" id="Path" stroke="#FFFFFF" stroke-width="2" stroke-dasharray="12"></path>
                            <g id="Group" opacity="0.5" fill="url(#linearGradient-9)" fill-rule="nonzero">
                                <ellipse id="Oval" cx="7.12540894" cy="6.89842726" rx="7.12540894" ry="6.89842726"></ellipse>
                            </g>
                            <ellipse id="Oval" fill="#69F0AE" fill-rule="nonzero" cx="7.12540894" cy="6.89842726" rx="6.70534351" ry="6.49174312"></ellipse>
                            <polygon id="Path" fill="#FFFFFF" fill-rule="nonzero" points="4.61090513 6.49174312 7.12540894 8.72280472 10.6861505 3.65065531 11.9443839 4.66546527 7.12540894 10.7524246 3.56270447 6.89842726"></polygon>
                            <path d="M49.4777713,63.1302631 L69.54213,63.1311556 C79.0242528,63.1331299 86.7109306,70.8197965 86.7129188,80.3019192 L86.7150922,127.610417 C86.7170803,137.093146 79.0301626,144.78077 69.5474335,144.781206 C69.546916,144.781206 69.5463985,144.781206 69.5458811,144.779654 L49.4815224,144.778761 C39.9993996,144.776787 32.3127218,137.09012 32.3107335,127.607997 L32.3085601,80.2994994 C32.306572,70.8167704 39.9934897,63.1291464 49.4762188,63.1287107 C49.4767363,63.1287107 49.4772538,63.1287107 49.4777713,63.1302631 Z" id="Rectangle" fill="url(#linearGradient-10)" fill-rule="nonzero" transform="translate(59.511826, 103.954958) rotate(-0.080000) translate(-59.511826, -103.954958) "></path>
                            <polygon id="Rectangle" fill="url(#linearGradient-11)" fill-rule="nonzero" transform="translate(59.608491, 103.608006) rotate(-0.080000) translate(-59.608491, -103.608006) " points="36.115643 69.3666244 83.0981919 69.3687141 83.1013381 137.849387 36.1187892 137.847297"></polygon>
                            <path d="M37.9616708,64.3631069 L81.0565422,64.3650237 C83.26554,64.3654836 85.0562628,66.1562038 85.056726,68.3652016 L85.0599368,138.252821 C85.0603999,140.46196 83.2696212,142.252904 81.0604822,142.253005 C81.0603616,142.253005 81.0602411,142.253005 81.0601205,142.252643 L37.9652491,142.250727 C35.7562514,142.250267 33.9655285,140.459546 33.9650654,138.250549 L33.9618546,68.362929 C33.9613914,66.15379 35.7521702,64.3628467 37.9613092,64.3627452 C37.9614297,64.3627452 37.9615503,64.3627452 37.9616708,64.3631069 Z" id="Rectangle" fill="#FFFFFF" fill-rule="nonzero" transform="translate(59.510896, 103.307875) rotate(-0.080000) translate(-59.510896, -103.307875) "></path>
                            <polygon id="Rectangle" fill="#E6E6E6" fill-rule="nonzero" transform="translate(59.601696, 102.979937) rotate(-0.080000) translate(-59.601696, -102.979937) " points="37.5379284 70.3149954 81.6624622 70.316958 81.6654635 135.644878 37.5409297 135.642916"></polygon>
                            <ellipse id="Oval" fill="#DBDBDB" fill-rule="nonzero" cx="59.553108" cy="139.00616" rx="1.8176663" ry="1.80347313"></ellipse>
                            <ellipse id="Oval" fill="#DBDBDB" fill-rule="nonzero" transform="translate(51.915749, 67.500516) rotate(-0.080000) translate(-51.915749, -67.500516) " cx="51.9157489" cy="67.5005157" rx="1" ry="1"></ellipse>
                            <path d="M55.2466418,67.1298567 L62.5253158,67.1301805 C62.6911482,67.1301879 62.8255779,67.2646236 62.8255779,67.430456 C62.8255779,67.5962788 62.691152,67.7307048 62.5253292,67.7307048 C62.5253247,67.7307048 62.5253203,67.7307048 62.5253158,67.7307048 L55.2466418,67.730381 C55.0808094,67.7303737 54.9463796,67.5959379 54.9463796,67.4301055 C54.9463796,67.2642827 55.0808056,67.1298567 55.2466284,67.1298567 C55.2466329,67.1298567 55.2466373,67.1298567 55.2466418,67.1298567 Z" id="Rectangle" fill="#DBDBDB" fill-rule="nonzero" transform="translate(58.885979, 67.430281) rotate(-0.080000) translate(-58.885979, -67.430281) "></path>
                            <rect id="Rectangle" fill="url(#linearGradient-6)" fill-rule="nonzero" x="59.3352236" y="110.564875" width="17.2619411" height="17.5482307"></rect>
                            <rect id="Rectangle" fill="#04CCFC" fill-rule="nonzero" x="60.08506" y="111.328834" width="15.7622683" height="16.0222149"></rect>
                            <g id="Group" opacity="0.5" transform="translate(62.813522, 112.883355)" fill="url(#linearGradient-12)" fill-rule="nonzero">
                                <path d="M6.49334787,5.57195282 L6.29705562,5.50353866 L6.28527808,5.5206422 L6.27350055,5.5206422 L6.27350055,5.00373526 C6.27351732,4.94008443 6.26826606,4.87653463 6.25779716,4.81369594 C6.57579803,4.58714308 6.81919643,4.27625025 6.95856052,3.91861075 C7.72234604,2.96010256 7.60145911,1.59514015 6.68028203,0.776503543 C5.75910495,-0.0421330632 4.34405753,-0.0421330632 3.42288045,0.776503543 C2.50170338,1.59514015 2.38081645,2.96010256 3.14460196,3.91861075 C3.28396606,4.27625025 3.52736446,4.58714308 3.84536532,4.81369594 C3.83489643,4.87653463 3.82964516,4.94008443 3.82966194,5.00373526 L3.82966194,5.57385321 L3.82966194,5.57385321 C1.6647062,6.15249588 0.165120058,8.05922 0.164885496,10.2336173 L0.164885496,14.4733945 L10.1463468,14.4733945 L10.1463468,10.2260157 C10.1449364,8.05695272 8.65152729,6.15429135 6.49334787,5.57195282 L6.49334787,5.57195282 Z" id="Path"></path>
                            </g>
                            <path d="M67.6619411,118.348879 L68.2704471,118.348879 C70.7562705,118.348879 72.7714286,120.299851 72.7714286,122.706488 L72.7714286,127.077392 L63.153108,127.077392 L63.153108,122.706488 C63.153108,121.549461 63.628393,120.439935 64.4741897,119.622507 C65.3199864,118.80508 66.4668468,118.346868 67.6619411,118.348879 Z" id="Path" fill="#3AD29F" fill-rule="nonzero"></path>
                            <rect id="Rectangle" fill="#BE7C5E" fill-rule="nonzero" x="66.6922574" y="116.830472" width="2.35354417" height="2.84868938" rx="1.17677208"></rect>
                            <polygon id="Path" fill="#BE7C5E" fill-rule="nonzero" points="67.4165758 119.591743 67.8562704 120.211271 68.3195202 119.591743"></polygon>
                            <path d="M64.9668484,121.836107 C64.9668484,121.836107 64.4996728,126.338139 64.8019629,126.630799" id="Path" fill="#000000" fill-rule="nonzero" opacity="0.1"></path>
                            <path d="M70.7456925,121.836107 C70.7456925,121.836107 71.212868,126.338139 70.910578,126.630799" id="Path" fill="#000000" fill-rule="nonzero" opacity="0.1"></path>
                            <path d="M67.868048,118.204456 C68.2860645,118.20449 68.6931768,118.075328 69.0300981,117.83578 C68.9385578,117.283107 68.4461982,116.876484 67.868048,116.876081 L67.868048,116.876081 C67.2898978,116.876484 66.7975381,117.283107 66.7059978,117.83578 C67.0429191,118.075328 67.4500315,118.20449 67.868048,118.204456 L67.868048,118.204456 Z" id="Path" fill="#000000" fill-rule="nonzero" opacity="0.05"></path>
                            <ellipse id="Oval" fill="#444444" fill-rule="nonzero" cx="67.868048" cy="115.557208" rx="2.31821156" ry="2.24436435"></ellipse>
                            <ellipse id="Oval" fill="#BE7C5E" fill-rule="nonzero" cx="67.868048" cy="116.260354" rx="1.96095965" ry="1.89849279"></ellipse>
                            <path d="M66.2878953,114.378965 L66.7825518,114.964286 C66.7825518,114.964286 68.9555071,115.154325 69.2028353,114.671625 C69.4501636,114.188925 67.7718648,113.844954 67.7718648,113.844954 L66.2878953,114.378965 Z" id="Path" fill="#000000" fill-rule="nonzero" opacity="0.05"></path>
                            <path d="M66.2878953,114.325754 L66.7825518,114.911075 C66.7825518,114.911075 68.9555071,115.101114 69.2028353,114.618414 C69.4501636,114.135714 67.7718648,113.791743 67.7718648,113.791743 L66.2878953,114.325754 Z" id="Path" fill="#444444" fill-rule="nonzero"></path>
                            <ellipse id="Oval" fill="#BE7C5E" fill-rule="nonzero" cx="65.9031625" cy="116.136828" rx="1" ry="1"></ellipse>
                            <ellipse id="Oval" fill="#BE7C5E" fill-rule="nonzero" cx="69.8368593" cy="116.136828" rx="1" ry="1"></ellipse>
                            <path d="M66.3350055,113.470577 C66.4885315,113.280892 66.7001849,113.143176 66.9395856,113.077195 C67.3733915,112.909961 67.8248637,112.738925 68.2900763,112.769332 C68.3353692,112.768813 68.3797926,112.781385 68.4176663,112.805439 C68.448815,112.837498 68.4746399,112.87404 68.4942203,112.913761 C68.6355507,113.117104 69.0320611,113.103801 69.0830971,113.34325 C69.0968375,113.421166 69.0634678,113.504784 69.0830971,113.580799 C69.134133,113.770839 69.4109051,113.751835 69.5738277,113.860157 C69.7542546,114.017852 69.7716835,114.286144 69.6130862,114.464482 C69.4515192,114.630367 69.2422949,114.745547 69.0124318,114.795151 C68.6090927,114.944848 68.1705518,114.982369 67.7463468,114.903473 C67.1515812,114.753342 65.7598691,114.380865 66.3350055,113.470577 Z" id="Path" fill="#444444" fill-rule="nonzero"></path>
                            <rect id="Rectangle" fill="url(#linearGradient-6)" fill-rule="nonzero" x="41.6689204" y="110.374836" width="17.2619411" height="17.5482307"></rect>
                            <rect id="Rectangle" fill="#04CCFC" fill-rule="nonzero" x="42.4187568" y="111.138794" width="15.7622683" height="16.0222149"></rect>
                            <g id="Group" opacity="0.5" transform="translate(45.147219, 112.693316)" fill="url(#linearGradient-12)" fill-rule="nonzero">
                                <path d="M6.49334787,5.57195282 L6.29705562,5.50353866 L6.28527808,5.5206422 L6.27350055,5.5206422 L6.27350055,5.00373526 C6.27351732,4.94008443 6.26826606,4.87653463 6.25779716,4.81369594 C6.57579803,4.58714308 6.81919643,4.27625025 6.95856052,3.91861075 C7.72234604,2.96010256 7.60145911,1.59514015 6.68028203,0.776503543 C5.75910495,-0.0421330632 4.34405753,-0.0421330632 3.42288045,0.776503543 C2.50170338,1.59514015 2.38081645,2.96010256 3.14460196,3.91861075 C3.28396606,4.27625025 3.52736446,4.58714308 3.84536532,4.81369594 C3.83489643,4.87653463 3.82964516,4.94008443 3.82966194,5.00373526 L3.82966194,5.57385321 L3.82966194,5.57385321 C1.6647062,6.15249588 0.165120058,8.05922 0.164885496,10.2336173 L0.164885496,14.4733945 L10.1463468,14.4733945 L10.1463468,10.2260157 C10.1449364,8.05695272 8.65152729,6.15429135 6.49334787,5.57195282 Z" id="Path"></path>
                            </g>
                            <path d="M49.9956379,118.15884 L50.6041439,118.15884 C51.7978785,118.15884 52.9427207,118.61795 53.7868185,119.435159 C54.6309162,120.252367 55.1051254,121.36074 55.1051254,122.516448 L55.1051254,126.887353 L45.4868048,126.887353 L45.4868048,122.516448 C45.4868048,121.359422 45.9620898,120.249896 46.8078865,119.432468 C47.6536832,118.61504 48.8005436,118.156828 49.9956379,118.15884 L49.9956379,118.15884 Z" id="Path" fill="#514ABF" fill-rule="nonzero"></path>
                            <rect id="Rectangle" fill="#FDA57D" fill-rule="nonzero" x="49.0259542" y="116.640433" width="2.35354417" height="2.84868938" rx="1.17677208"></rect>
                            <path d="M47.3005453,121.646068 C47.3005453,121.646068 46.8333697,126.1481 47.1356598,126.44076" id="Path" fill="#000000" fill-rule="nonzero" opacity="0.1"></path>
                            <path d="M53.0793893,121.646068 C53.0793893,121.646068 53.5465649,126.1481 53.2442748,126.44076" id="Path" fill="#000000" fill-rule="nonzero" opacity="0.1"></path>
                            <path d="M50.2017448,118.014417 C50.6197613,118.014451 51.0268737,117.885289 51.363795,117.64574 C51.2722547,117.093068 50.779895,116.686444 50.2017448,116.686042 L50.2017448,116.686042 C49.6235946,116.686444 49.131235,117.093068 49.0396947,117.64574 C49.376616,117.885289 49.7837283,118.014451 50.2017448,118.014417 L50.2017448,118.014417 Z" id="Path" fill="#000000" fill-rule="nonzero" opacity="0.05"></path>
                            <ellipse id="Oval" fill="#444444" fill-rule="nonzero" cx="50.2017448" cy="115.367169" rx="2.31821156" ry="2.24436435"></ellipse>
                            <ellipse id="Oval" fill="#FDA57D" fill-rule="nonzero" cx="50.2017448" cy="116.070315" rx="1.96095965" ry="1.89849279"></ellipse>
                            <path d="M48.6215921,114.188925 L49.1162486,114.774246 C49.1162486,114.774246 51.2892039,114.964286 51.5365322,114.481586 C51.7838604,113.998886 50.1055616,113.654915 50.1055616,113.654915 L48.6215921,114.188925 Z" id="Path" fill="#000000" fill-rule="nonzero" opacity="0.05"></path>
                            <path d="M48.6215921,114.135714 L49.1162486,114.721035 C49.1162486,114.721035 51.2892039,114.911075 51.5365322,114.428375 C51.7838604,113.945675 50.1055616,113.601704 50.1055616,113.601704 L48.6215921,114.135714 Z" id="Path" fill="#444444" fill-rule="nonzero"></path>
                            <ellipse id="Oval" fill="#FDA57D" fill-rule="nonzero" cx="48.2368593" cy="115.946789" rx="1" ry="1"></ellipse>
                            <ellipse id="Oval" fill="#FDA57D" fill-rule="nonzero" cx="52.1705562" cy="115.946789" rx="1" ry="1"></ellipse>
                            <rect id="Rectangle" fill="#FFFFFF" fill-rule="nonzero" x="42.3284624" y="78.6439712" width="32.0604144" height="1.34927916"></rect>
                            <rect id="Rectangle" fill="#FFFFFF" fill-rule="nonzero" x="42.3284624" y="81.3425295" width="32.0604144" height="1.34927916"></rect>
                            <rect id="Rectangle" fill="#FFFFFF" fill-rule="nonzero" x="42.3284624" y="84.0410878" width="18.1217012" height="1.34927916"></rect>
                            <rect id="Rectangle" fill="#FFFFFF" fill-rule="nonzero" x="42.3284624" y="86.7415465" width="26.4857143" height="1.34927916"></rect>
                            <rect id="Rectangle" fill="#FFFFFF" fill-rule="nonzero" x="42.3284624" y="89.4401048" width="22.3027263" height="1.34927916"></rect>
                            <rect id="Rectangle" fill="#FFFFFF" fill-rule="nonzero" x="42.3284624" y="92.1386632" width="32.0604144" height="1.34927916"></rect>
                            <rect id="Rectangle" fill="#FFFFFF" fill-rule="nonzero" x="43.7221374" y="96.188401" width="27.8793893" height="10.7961337"></rect>
                            <path d="M48.8394766,115.353866 C48.9383957,115.184375 49.0205493,115.006213 49.0848419,114.821756 C49.2972874,114.376222 49.7498409,114.083648 50.2563155,114.064403 C50.7627902,114.045158 51.2376366,114.302493 51.4854962,114.730537 C51.6464558,115.009895 51.6994547,115.340564 51.8780807,115.610419 C51.9293216,115.647601 51.9942698,115.662382 52.0572546,115.651197 C52.1202394,115.640011 52.1755404,115.603875 52.2098146,115.551507 C52.2726377,115.440391 52.2805651,115.307826 52.2314068,115.190433 C52.1901854,115.072608 52.1214831,114.964286 52.0763359,114.848362 C52.0312945,114.659657 51.9654878,114.476171 51.8800436,114.301048 C51.7750554,114.168435 51.6409685,114.060039 51.4874591,113.983683 C51.0536532,113.725229 50.551145,113.457274 50.0604144,113.603604 C49.8948339,113.658436 49.7381837,113.735866 49.5952017,113.833552 L48.9709924,114.21363 C48.7702726,114.322475 48.5908795,114.464635 48.4410033,114.633617 C48.3055616,114.804653 48.0484188,115.315858 48.168157,115.536304 C48.3094875,115.787156 48.7158124,115.511599 48.8394766,115.353866 Z" id="Path" fill="#444444" fill-rule="nonzero"></path>
                            <polygon id="Path" fill="#FFFFFF" fill-rule="nonzero" points="49.7090513 119.344692 49.7090513 126.894954 50.8612868 126.894954 50.6905125 119.344692"></polygon>
                            <polygon id="Path" fill="#FDA57D" fill-rule="nonzero" points="49.5166848 119.242071 50.1840785 120.182765 50.8868048 119.242071"></polygon>
                        </g>
                    </g>
                </g>
            </g>
        </g>
    </g>
</svg>