<?xml version="1.0" encoding="UTF-8"?>
<svg width="180px" height="105px" viewBox="0 0 180 105" version="1.1" xmlns="http://www.w3.org/2000/svg" xmlns:xlink="http://www.w3.org/1999/xlink">
    <!-- Generator: Sketch 64 (93537) - https://sketch.com -->
    <title>undraw_safe_bnk7</title>
    <desc>Created with Sketch.</desc>
    <defs>
        <linearGradient x1="0%" y1="50.0010198%" x2="100%" y2="50.0010198%" id="linearGradient-1">
            <stop stop-color="#808080" stop-opacity="0.25" offset="0%"></stop>
            <stop stop-color="#808080" stop-opacity="0.12" offset="54%"></stop>
            <stop stop-color="#808080" stop-opacity="0.1" offset="100%"></stop>
        </linearGradient>
        <linearGradient x1="1.83026383e-13%" y1="50%" x2="100%" y2="50%" id="linearGradient-2">
            <stop stop-color="#808080" stop-opacity="0.25" offset="0%"></stop>
            <stop stop-color="#808080" stop-opacity="0.12" offset="54%"></stop>
            <stop stop-color="#808080" stop-opacity="0.1" offset="100%"></stop>
        </linearGradient>
        <linearGradient x1="-4.7330074e-13%" y1="50%" x2="100%" y2="50%" id="linearGradient-3">
            <stop stop-color="#808080" stop-opacity="0.25" offset="0%"></stop>
            <stop stop-color="#808080" stop-opacity="0.12" offset="54%"></stop>
            <stop stop-color="#808080" stop-opacity="0.1" offset="100%"></stop>
        </linearGradient>
        <linearGradient x1="50.0019157%" y1="100%" x2="50.0019157%" y2="-7.68154309e-15%" id="linearGradient-4">
            <stop stop-color="#808080" stop-opacity="0.25" offset="0%"></stop>
            <stop stop-color="#808080" stop-opacity="0.12" offset="54%"></stop>
            <stop stop-color="#808080" stop-opacity="0.1" offset="100%"></stop>
        </linearGradient>
        <linearGradient x1="50%" y1="100%" x2="50%" y2="0%" id="linearGradient-5">
            <stop stop-color="#808080" stop-opacity="0.25" offset="0%"></stop>
            <stop stop-color="#808080" stop-opacity="0.12" offset="54%"></stop>
            <stop stop-color="#808080" stop-opacity="0.1" offset="100%"></stop>
        </linearGradient>
        <linearGradient x1="50%" y1="100.042319%" x2="50%" y2="0.0423190859%" id="linearGradient-6">
            <stop stop-color="#808080" stop-opacity="0.25" offset="0%"></stop>
            <stop stop-color="#808080" stop-opacity="0.12" offset="54%"></stop>
            <stop stop-color="#808080" stop-opacity="0.1" offset="100%"></stop>
        </linearGradient>
        <linearGradient x1="50%" y1="100%" x2="50%" y2="0%" id="linearGradient-7">
            <stop stop-color="#808080" stop-opacity="0.25" offset="0%"></stop>
            <stop stop-color="#808080" stop-opacity="0.12" offset="54%"></stop>
            <stop stop-color="#808080" stop-opacity="0.1" offset="100%"></stop>
        </linearGradient>
        <linearGradient x1="50%" y1="100%" x2="50%" y2="0%" id="linearGradient-8">
            <stop stop-color="#808080" stop-opacity="0.25" offset="0%"></stop>
            <stop stop-color="#808080" stop-opacity="0.12" offset="54%"></stop>
            <stop stop-color="#808080" stop-opacity="0.1" offset="100%"></stop>
        </linearGradient>
        <linearGradient x1="50%" y1="100%" x2="50%" y2="0%" id="linearGradient-9">
            <stop stop-color="#808080" stop-opacity="0.25" offset="0%"></stop>
            <stop stop-color="#808080" stop-opacity="0.12" offset="54%"></stop>
            <stop stop-color="#808080" stop-opacity="0.1" offset="100%"></stop>
        </linearGradient>
        <linearGradient x1="50%" y1="100%" x2="50%" y2="0%" id="linearGradient-10">
            <stop stop-color="#808080" stop-opacity="0.25" offset="0%"></stop>
            <stop stop-color="#808080" stop-opacity="0.12" offset="54%"></stop>
            <stop stop-color="#808080" stop-opacity="0.1" offset="100%"></stop>
        </linearGradient>
        <linearGradient x1="49.9962502%" y1="100%" x2="49.9962502%" y2="0.809888927%" id="linearGradient-11">
            <stop stop-color="#808080" stop-opacity="0.25" offset="0%"></stop>
            <stop stop-color="#808080" stop-opacity="0.12" offset="54%"></stop>
            <stop stop-color="#808080" stop-opacity="0.1" offset="100%"></stop>
        </linearGradient>
        <linearGradient x1="49.9606758%" y1="100%" x2="49.9606758%" y2="0.10502694%" id="linearGradient-12">
            <stop stop-color="#808080" stop-opacity="0.25" offset="0%"></stop>
            <stop stop-color="#808080" stop-opacity="0.12" offset="54%"></stop>
            <stop stop-color="#808080" stop-opacity="0.1" offset="100%"></stop>
        </linearGradient>
    </defs>
    <g id="WebDesktop" stroke="none" stroke-width="1" fill="none" fill-rule="evenodd">
        <g id="Landing" transform="translate(-951.000000, -1546.000000)" fill-rule="nonzero">
            <g id="features" transform="translate(0.000000, 1365.000000)">
                <g transform="translate(88.000000, 181.000000)" id="privacy">
                    <g transform="translate(803.000000, 0.000000)">
                        <g id="undraw_safe_bnk7" transform="translate(60.000000, 0.000000)">
                            <polygon id="Rectangle" fill="#F5F5F5" transform="translate(130.579511, 19.055953) rotate(-81.360000) translate(-130.579511, -19.055953) " points="128.582636 -28.1950511 132.576386 -28.1950511 132.576386 66.3069578 128.582636 66.3069578"></polygon>
                            <polygon id="Rectangle" fill="url(#linearGradient-1)" transform="translate(125.568961, 53.130744) rotate(-81.360000) translate(-125.568961, -53.130744) " points="87.8011043 3.88286472 163.336819 3.88286472 163.336819 102.378624 87.8011043 102.378624"></polygon>
                            <polygon id="Rectangle" fill="#F5F5F5" transform="translate(125.103322, 55.078585) rotate(-81.360000) translate(-125.103322, -55.078585) " points="90.6632549 7.82758019 159.543389 7.82758019 159.543389 102.329589 90.6632549 102.329589"></polygon>
                            <circle id="Oval" fill="#FF5252" transform="translate(86.145944, 12.303976) rotate(-81.360000) translate(-86.145944, -12.303976) " cx="86.1459439" cy="12.3039765" r="1"></circle>
                            <circle id="Oval" fill="#FFFF00" transform="translate(88.800074, 12.706137) rotate(-81.360000) translate(-88.800074, -12.706137) " cx="88.8000741" cy="12.7061366" r="1"></circle>
                            <circle id="Oval" fill="#69F0AE" transform="translate(91.454204, 13.110306) rotate(-81.360000) translate(-91.454204, -13.110306) " cx="91.4542042" cy="13.1103057" r="1"></circle>
                            <polygon id="Rectangle" fill="url(#linearGradient-2)" transform="translate(126.657430, 39.328441) rotate(-81.360000) translate(-126.657430, -39.328441) " points="114.17897 -3.09812155 139.13589 -3.09812155 139.13589 81.7550035 114.17897 81.7550035"></polygon>
                            <polygon id="Rectangle" fill="#04CCFC" transform="translate(126.732391, 39.423148) rotate(8.640000) translate(-126.732391, -39.423148) " points="85.2208956 27.8597553 168.243887 27.8597553 168.243887 50.9865411 85.2208956 50.9865411"></polygon>
                            <polygon id="Rectangle" fill="url(#linearGradient-3)" transform="translate(98.133218, 59.814535) rotate(-81.360000) translate(-98.133218, -59.814535) " points="95.7204945 56.985964 100.545941 56.985964 100.545941 62.6431069 95.7204945 62.6431069"></polygon>
                            <polygon id="Rectangle" fill="#04CCFC" transform="translate(98.233349, 59.745521) rotate(8.640000) translate(-98.233349, -59.745521) " points="95.5715183 57.7486463 100.895179 57.7486463 100.895179 61.7423963 95.5715183 61.7423963"></polygon>
                            <polygon id="Rectangle" fill="#FF5252" transform="translate(97.205765, 66.489773) rotate(8.640000) translate(-97.205765, -66.489773) " points="94.5439346 64.492898 99.8675953 64.492898 99.8675953 68.486648 94.5439346 68.486648"></polygon>
                            <polygon id="Rectangle" fill="#FF9800" transform="translate(96.182176, 73.234327) rotate(8.640000) translate(-96.182176, -73.234327) " points="93.5203459 71.2374515 98.8440066 71.2374515 98.8440066 75.2312015 93.5203459 75.2312015"></polygon>
                            <polygon id="Rectangle" fill="#04CCFC" opacity="0.4" transform="translate(130.800988, 64.693363) rotate(8.640000) translate(-130.800988, -64.693363) " points="109.338599 63.529189 152.263376 63.529189 152.263376 65.8575372 109.338599 65.8575372"></polygon>
                            <polygon id="Rectangle" fill="#04CCFC" opacity="0.4" transform="translate(129.775390, 71.437917) rotate(8.640000) translate(-129.775390, -71.437917) " points="108.313002 70.2737425 151.237779 70.2737425 151.237779 72.6020908 108.313002 72.6020908"></polygon>
                            <polygon id="Rectangle" fill="#04CCFC" opacity="0.4" transform="translate(128.751802, 78.182470) rotate(8.640000) translate(-128.751802, -78.182470) " points="107.289413 77.018296 150.21419 77.018296 150.21419 79.3466443 107.289413 79.3466443"></polygon>
                            <polygon id="Rectangle" fill="#F5F5F5" transform="translate(51.711691, 14.872121) rotate(-12.600000) translate(-51.711691, -14.872121) " points="1.40410154 12.9073889 102.01928 12.9073889 102.01928 16.8368532 1.40410154 16.8368532"></polygon>
                            <polygon id="Rectangle" fill="url(#linearGradient-4)" transform="translate(59.276649, 47.907794) rotate(-12.600000) translate(-59.276649, -47.907794) " points="6.84361341 10.7426151 111.709685 10.7426151 111.709685 85.0729722 6.84361341 85.0729722"></polygon>
                            <polygon id="Rectangle" fill="#F5F5F5" transform="translate(59.532613, 49.866175) rotate(-12.600000) translate(-59.532613, -49.866175) " points="9.22502335 15.97555 109.840202 15.97555 109.840202 83.7568 9.22502335 83.7568"></polygon>
                            <ellipse id="Oval" fill="#FF5252" transform="translate(5.012763, 25.310155) rotate(-12.600000) translate(-5.012763, -25.310155) " cx="5.0127625" cy="25.3101549" rx="1.03861607" ry="1"></ellipse>
                            <ellipse id="Oval" fill="#FFFF00" transform="translate(7.803012, 24.688321) rotate(-12.600000) translate(-7.803012, -24.688321) " cx="7.80301157" cy="24.6883208" rx="1.03861607" ry="1"></ellipse>
                            <ellipse id="Oval" fill="#69F0AE" transform="translate(10.591300, 24.064916) rotate(-12.600000) translate(-10.591300, -24.064916) " cx="10.5913001" cy="24.0649161" rx="1.03861607" ry="1"></ellipse>
                            <polygon id="Rectangle" fill="url(#linearGradient-5)" transform="translate(55.275277, 34.880360) rotate(-12.600000) translate(-55.275277, -34.880360) " points="10.104518 22.6007844 100.446036 22.6007844 100.446036 47.1599362 10.104518 47.1599362"></polygon>
                            <polygon id="Rectangle" fill="#04CCFC" transform="translate(55.380109, 34.939515) rotate(-12.600000) translate(-55.380109, -34.939515) " points="11.18368 23.560944 99.5765372 23.560944 99.5765372 46.3180868 11.18368 46.3180868"></polygon>
                            <polygon id="Rectangle" fill="url(#linearGradient-6)" transform="translate(34.441268, 64.280840) rotate(-12.600000) translate(-34.441268, -64.280840) " points="31.4298846 61.9072907 37.4526524 61.9072907 37.4526524 66.654389 31.4298846 66.654389"></polygon>
                            <polygon id="Rectangle" fill="#04CCFC" transform="translate(34.964196, 64.478250) rotate(-12.652557) translate(-34.964196, -64.478250) " points="32.1171533 62.504892 37.8112396 62.504892 37.8112396 66.451608 32.1171533 66.451608"></polygon>
                            <polygon id="Rectangle" fill="#FF5252" transform="translate(35.974466, 70.732943) rotate(-12.600000) translate(-35.974466, -70.732943) " points="33.1398675 68.7682105 38.8090639 68.7682105 38.8090639 72.6976748 33.1398675 72.6976748"></polygon>
                            <polygon id="Rectangle" fill="#FF9800" transform="translate(37.930741, 77.628295) rotate(-12.652557) translate(-37.930741, -77.628295) " points="35.0836979 75.6549366 40.7777842 75.6549366 40.7777842 79.6016527 35.0836979 79.6016527"></polygon>
                            <polygon id="Rectangle" fill="#04CCFC" opacity="0.4" transform="translate(68.737228, 56.530154) rotate(-12.600000) translate(-68.737228, -56.530154) " points="45.8866697 55.3840602 91.5877858 55.3840602 91.5877858 57.6762477 45.8866697 57.6762477"></polygon>
                            <polygon id="Rectangle" fill="#04CCFC" opacity="0.4" transform="translate(70.201352, 63.082150) rotate(-12.600000) translate(-70.201352, -63.082150) " points="47.3507938 61.9360564 93.0519098 61.9360564 93.0519098 64.2282439 47.3507938 64.2282439"></polygon>
                            <polygon id="Rectangle" fill="#04CCFC" opacity="0.4" transform="translate(71.665476, 69.632138) rotate(-12.600000) translate(-71.665476, -69.632138) " points="48.8149178 68.4860438 94.5160339 68.4860438 94.5160339 70.7782313 48.8149178 70.7782313"></polygon>
                            <rect id="Rectangle" fill="#F5F5F5" x="34.1658482" y="3.91339286" width="114.107143" height="4.82142857"></rect>
                            <rect id="Rectangle" fill="url(#linearGradient-7)" x="31.9560268" y="2.30625" width="118.928571" height="91.2053571"></rect>
                            <rect id="Rectangle" fill="#FFFFFF" x="34.1658482" y="8.73482143" width="114.107143" height="83.1696429"></rect>
                            <circle id="Oval" fill="#FF5252" cx="36.9522321" cy="6.32410714" r="1.17924107"></circle>
                            <circle id="Oval" fill="#FFFF00" cx="40.1926339" cy="6.32410714" r="1.17924107"></circle>
                            <circle id="Oval" fill="#69F0AE" cx="43.4330357" cy="6.32410714" r="1.17924107"></circle>
                            <rect id="Rectangle" fill="url(#linearGradient-8)" x="38.9872768" y="16.1678571" width="102.455357" height="30.1339286"></rect>
                            <rect id="Rectangle" fill="#04CCFC" x="40.1926339" y="17.3732143" width="100.245536" height="27.9241071"></rect>
                            <rect id="Rectangle" fill="url(#linearGradient-9)" x="56.4649554" y="57.9535714" width="6.83035714" height="5.82589286"></rect>
                            <rect id="Rectangle" fill="#04CCFC" x="56.7662946" y="58.3553571" width="6.42857143" height="4.82142857"></rect>
                            <rect id="Rectangle" fill="#FF5252" x="56.7662946" y="66.5919643" width="6.42857143" height="4.82142857"></rect>
                            <rect id="Rectangle" fill="#FF9800" x="56.7662946" y="74.8285714" width="6.42857143" height="4.82142857"></rect>
                            <rect id="Rectangle" fill="#04CCFC" opacity="0.4" x="73.8421875" y="59.3598214" width="51.8303571" height="2.8125"></rect>
                            <rect id="Rectangle" fill="#04CCFC" opacity="0.4" x="73.8421875" y="67.5964286" width="51.8303571" height="2.8125"></rect>
                            <rect id="Rectangle" fill="#04CCFC" opacity="0.4" x="73.8421875" y="75.8330357" width="51.8303571" height="2.8125"></rect>
                            <rect id="Rectangle" fill="url(#linearGradient-10)" x="73.1390625" y="73.4223214" width="37.3660714" height="30.7366071"></rect>
                            <path d="M81.7613839,68.5345982 C81.7613839,62.7557643 86.4460544,58.0710937 92.2248884,58.0710937 C98.0037223,58.0710937 102.688393,62.7557643 102.688393,68.5345982 L102.688393,75.2303571 L105.617411,75.2303571 L105.617411,68.5345982 C105.676491,63.7108233 103.136891,59.2279737 98.9689482,56.7988699 C94.8010051,54.3697661 89.6487716,54.3697661 85.4808286,56.7988699 C81.3128855,59.2279737 78.7732853,63.7108233 78.8323661,68.5345982 L78.8323661,75.2303571 L81.7613839,75.2303571 L81.7613839,68.5345982 Z" id="Path" fill="url(#linearGradient-11)"></path>
                            <path d="M82.1792411,68.4 C82.1792411,62.8524969 86.6763809,58.3553571 92.2238839,58.3553571 C97.771387,58.3553571 102.268527,62.8524969 102.268527,68.4 L102.268527,74.8285714 L105.081027,74.8285714 L105.081027,68.4 C105.081027,61.2991961 99.3246879,55.5428571 92.2238839,55.5428571 C85.12308,55.5428571 79.3667411,61.2991961 79.3667411,68.4 L79.3667411,74.8285714 L82.1792411,74.8285714 L82.1792411,68.4 Z" id="Path" fill="#FFFFFF"></path>
                            <rect id="Rectangle" fill="#04CCFC" x="74.7462054" y="74.4267857" width="34.9553571" height="28.5267857"></rect>
                            <rect id="Rectangle" fill="#FFFFFF" x="74.7462054" y="74.4267857" width="34.9553571" height="28.5267857"></rect>
                            <rect id="Rectangle" fill="#04CCFC" x="74.7462054" y="80.0517857" width="34.9553571" height="17.2767857"></rect>
                            <path d="M94.7893142,85.4276786 C94.7946985,84.2737425 94.0284108,83.2584316 92.9172158,82.9472352 C91.8060208,82.6360388 90.6238647,83.1056771 90.0291635,84.0945796 C89.4344623,85.0834821 89.5738295,86.3478514 90.3696429,87.1834821 L90.3696429,92.6517857 C90.3696429,93.6814023 91.204312,94.5160714 92.2339286,94.5160714 C93.2635451,94.5160714 94.0982143,93.6814023 94.0982143,92.6517857 L94.0982143,87.1834821 C94.5444845,86.7080328 94.7917702,86.0797545 94.7893142,85.4276786 L94.7893142,85.4276786 Z" id="Path" fill="url(#linearGradient-12)"></path>
                            <path d="M94.433709,85.8776786 C94.4354937,84.8849292 93.7750345,84.0128356 92.8189547,83.7455047 C91.8628749,83.4781738 90.8458694,83.8812291 90.3324873,84.730931 C89.8191052,85.5806329 89.9353696,86.6683995 90.6167411,87.3904018 L90.6167411,92.1053571 C90.6167411,92.9929576 91.3362834,93.7125 92.2238839,93.7125 C93.1114844,93.7125 93.8310268,92.9929576 93.8310268,92.1053571 L93.8310268,87.3904018 C94.2171497,86.9812579 94.43269,86.4402517 94.433709,85.8776786 L94.433709,85.8776786 Z" id="Path" fill="#000000" opacity="0.2"></path>
                        </g>
                    </g>
                </g>
            </g>
        </g>
    </g>
</svg>