<?xml version="1.0" encoding="UTF-8"?>
<svg width="400px" height="289px" viewBox="0 0 400 289" version="1.1" 
    xmlns="http://www.w3.org/2000/svg" 
    xmlns:xlink="http://www.w3.org/1999/xlink">
    <!-- Generator: Sketch 64 (93537) - https://sketch.com -->
    <title>undraw_searching_p5ux</title>
    <desc>Created with Sketch.</desc>
    <g id="WebDesktop" stroke="none" stroke-width="1" fill="none" fill-rule="evenodd">
        <g id="Landing" transform="translate(-142.000000, -858.000000)" fill-rule="nonzero">
            <g id="why" transform="translate(142.000000, 713.000000)">
                <g id="undraw_searching_p5ux" transform="translate(0.000000, 145.000000)">
                    <rect id="Rectangle" fill="#3F3D56" x="347" y="142" width="3" height="140"></rect>
                    <path d="M383.9989,158.837971 C384.223704,208.543596 349.907041,249 349.907041,249 C349.907041,249 315.225903,208.867658 315.0011,159.162029 C314.776296,109.456401 349.092959,69 349.092959,69 C349.092959,69 383.774111,109.132342 383.9989,158.837971 Z" id="Path" fill="#3F3D56"></path>
                    <rect id="Rectangle" fill="#3F3D56" x="279" y="206" width="1" height="72"></rect>
                    <path d="M296.999442,215.418085 C297.113475,240.547042 279.70647,261 279.70647,261 C279.70647,261 262.11459,240.710871 262.000558,215.581915 C261.886525,190.452958 279.29353,170 279.29353,170 C279.29353,170 296.885413,190.289136 296.999442,215.418085 Z" id="Path" fill="#3F3D56"></path>
                    <ellipse id="Oval" fill="#3F3D56" cx="317" cy="282" rx="49" ry="7"></ellipse>
                    <path d="M320.567689,104.339112 C316.347126,97.3519876 307.997074,97.0263567 307.997074,97.0263567 C307.997074,97.0263567 299.860427,96.0069081 294.640819,106.648394 C289.775727,116.567126 283.061278,126.143868 293.559849,128.465779 L295.456193,122.682948 L296.630589,128.896302 C298.125383,129.001639 299.624941,129.026749 301.122536,128.97152 C312.365654,128.61587 323.073025,129.075571 322.728261,125.122716 C322.269963,119.867939 324.628722,111.062126 320.567689,104.339112 Z" id="Path" fill="#2F2E41"></path>
                    <path d="M305,116.864198 C305,116.864198 310.204082,124.382716 307.081633,130.469136 C303.959184,136.555556 314.367347,143 314.367347,143 L322,125.814815 C322,125.814815 312.979592,119.728395 315.408163,114 L305,116.864198 Z" id="Path" fill="#FBBEBE"></path>
                    <circle id="Oval" fill="#FBBEBE" cx="308" cy="111" r="9"></circle>
                    <path d="M275,122.257905 L282.819516,112.113788 C282.819516,112.113788 285.572823,101.480781 289.56054,102.019824 C293.548258,102.558866 287.985484,114.77148 287.985484,114.77148 L280.215848,126 L275,122.257905 Z" id="Path" fill="#FBBEBE"></path>
                    <polygon id="Path" fill="#FBBEBE" points="316 257.090909 318.227273 270.545455 323 272 321.727273 256"></polygon>
                    <polygon id="Path" fill="#FBBEBE" points="370 242.72 379.765957 255.3 383.744681 257 387 251.9 377.234043 240"></polygon>
                    <path d="M313.39993,137.035081 L307.555672,129.330051 C307.555672,129.330051 296.232679,131.421044 295.181623,132.473676 C294.130566,133.526308 297.984439,152.824559 297.984439,152.824559 C297.984439,152.824559 298.685143,158.087718 301.838312,160.894736 L304.99148,163 L330.917533,157.736841 L331.892373,146.183925 C332.610356,137.675063 329.712305,129.257465 323.910502,123 L323.910502,123 L319.399439,123.617621 L313.39993,137.035081 Z" id="Path" fill="#575A89"></path>
                    <path d="M295.797618,132.524265 L293.962299,131.818617 L285.519833,131.112968 C285.519833,131.112968 282.583323,130.40732 283.31745,128.996023 C284.051578,127.584726 284.785705,127.231902 283.31745,126.879078 C281.849195,126.526254 281.482131,126.173429 281.849195,125.114957 C282.216259,124.056484 284.418641,121.939539 284.418641,121.939539 L278.178558,117 C278.178558,117 277.840822,117.229622 277.294925,117.654457 C274.196749,120.065573 264.393666,128.76469 271.57141,137.463804 C280.013876,147.695706 289.924598,153.693718 298,151.576772 L295.797618,132.524265 Z" id="Path" fill="#575A89"></path>
                    <path d="M303.396027,163.628013 L303.396027,168.70723 C303.396027,168.70723 300.134768,174.874852 301.221854,180.679672 C302.30894,186.484493 302.671302,189.386903 302.671302,189.386903 C302.789576,194.323802 303.644541,199.21524 305.207837,203.898954 C307.744371,211.154979 299.410044,258.681945 309.918543,259.407548 C320.427042,260.133151 326.224835,260.858753 329.486093,257.23074 C332.747351,253.602728 324.050662,191.200909 324.050662,191.200909 C324.050662,191.200909 353.764349,253.239926 359.924504,250.700318 C366.084658,248.160709 381.666226,242.355888 379.854415,239.090677 C378.042605,235.825465 332.384989,163.265211 332.384989,163.265211 L330.935541,160 L303.396027,163.628013 Z" id="Path" fill="#2F2E41"></path>
                    <path d="M322.118812,268.029535 C322.118812,268.029535 316.943894,267.667726 316.943894,269.476772 C316.943894,271.285817 314.356436,277.436571 314.356436,277.436571 C314.356436,277.436571 312.415842,284.672752 317.590759,283.949133 C322.765677,283.225515 326,276.712953 326,276.712953 L324.706271,269.838581 L322.118812,268.029535 Z" id="Path" fill="#2F2E41"></path>
                    <path d="M381.760834,255.711877 C381.760834,255.711877 376.653868,252.387604 377.018651,254.603786 C377.383435,256.819968 377.748218,262.729788 380.301701,263.099152 C382.855184,263.468515 390.515634,265.684698 390.880417,266.423425 C391.2452,267.162152 400,270.117062 400,265.315334 C400,260.513606 394.52825,256.819968 394.52825,256.819968 L388.326934,252.01824 C388.326934,252.01824 384.314318,251.648876 383.584751,254.234422 C382.855184,256.819968 381.760834,255.711877 381.760834,255.711877 Z" id="Path" fill="#2F2E41"></path>
                    <circle id="Oval" fill="#2F2E41" cx="309" cy="97" r="6"></circle>
                    <path d="M301.333332,94 C301.33366,90.9309744 303.778483,88.3568915 307,88.0337297 C306.778549,88.011502 306.556025,88.0002434 306.333335,88 C302.835531,88 300,90.6862915 300,94 C300,97.3137085 302.835531,100 306.333335,100 C306.556025,99.9997566 306.778549,99.988498 307,99.9662703 C303.778483,99.6431067 301.33366,97.0690227 301.333332,94 Z" id="Path" fill="#2F2E41"></path>
                    <polygon id="Path" fill="#2F2E41" points="316.613797 102.258226 308.508891 98 297.315789 99.742132 295 110 300.764822 109.777486 302.375371 106.009077 302.375371 109.715497 305.035207 109.613019 306.578947 103.613019 307.543919 110 317 109.806509"></polygon>
                    <path d="M318,163.192705 L305.274176,163.518254 C305.274176,163.518254 294.41548,165.517507 295.024709,161.370421 C295.633939,157.223335 306.227339,158.673804 306.227339,158.673804 L317.823057,157 L318,163.192705 Z" id="Path" fill="#FBBEBE"></path>
                    <path d="M328.304698,125.030348 C329.606252,124.83341 330.857706,125.61217 331.255186,126.866391 C333.709,134.594383 341.268516,160.455572 333.757672,164.003592 C324.911226,168.182536 318.455432,167.9988 318.455432,167.9988 L315,159.496004 L318.145607,156.545621 L321.503979,134.96447 L323.113232,125.816306 L328.304698,125.030348 Z" id="Path" fill="#575A89"></path>
                    <polygon id="Path" fill="#000000" opacity="0.4" points="324 138 322.564103 152.545455 310 158 324 154.727273"></polygon>
                    <path d="M258.188005,90 L258.188005,90 C262.12102,91.0785781 265.523805,93.6368148 267.730846,97.174372 L268.871986,99.0034503 L268.929409,99.0791059 L288.950149,105.142013 C289.713637,105.373222 290.157548,106.194675 289.948232,106.988958 L288.393909,112.887079 C288.29165,113.275115 288.044062,113.60491 287.706028,113.803359 C287.367994,114.001808 286.967438,114.052517 286.593152,113.944245 L266.567388,108.151243 L266.566952,108.151821 L264.555685,108.938779 C260.852197,110.387861 256.790004,110.53074 253,109.345227 L253,109.345227 L258.188005,90 Z" id="Path" fill="#3F3D56"></path>
                    <ellipse id="Oval" fill="#575A89" transform="translate(276.322518, 106.151864) rotate(-73.690060) translate(-276.322518, -106.151864) " cx="276.322518" cy="106.151864" rx="1.26951132" ry="2.37859499"></ellipse>
                    <circle id="Oval" fill="#3F3D56" cx="277.5" cy="106.5" r="1"></circle>
                    <ellipse id="Oval" fill="#04CCFC" transform="translate(254.091668, 99.447165) rotate(-72.034200) translate(-254.091668, -99.447165) " cx="254.091668" cy="99.4471645" rx="10.1764477" ry="4.5986854"></ellipse>
                    <path d="M258.303334,99.1241972 C260.015134,94.3815343 259.549569,89.9615174 257.296915,89 C257.43248,89.0151985 257.566162,89.0417743 257.696208,89.0793791 C260.173732,89.8011283 260.742025,94.3762513 258.965509,99.2982675 C257.188993,104.220284 253.740408,107.625236 251.26287,106.90351 C251.173052,106.877111 251.085243,106.845486 251,106.808835 C253.436979,107.087616 256.620384,103.786957 258.303334,99.1241972 Z" id="Path" fill="#000000" opacity="0.4"></path>
                    <path d="M257,90.1241437 L209.855516,53.3392587 C201.518812,46.7875352 193.51879,39.8135372 185.886452,32.444292 C172.447539,19.5590681 154.204033,9.25711092 132.963383,3.77225272 C81.3579642,-9.5535295 40.4759784,14.0747051 21.8816809,48.7690448 C-6.53239793,101.785717 -28.3080074,187.817364 97.67976,142.02278 C125.233126,132.007549 153.123553,130.942984 174.271295,125.667525 L250.8462,109.786396 L257,90.1241437 Z" id="Path" fill="#04CCFC"></path>
                    <circle id="Oval" fill="#F2F2F2" cx="114.5" cy="25.5" r="2.5"></circle>
                    <polygon id="Path" fill="#F2F2F2" points="164 31.4555 163.5445 31.4555 163.5445 31 163.4555 31 163.4555 31.4555 163 31.4555 163 31.5445 163.4555 31.5445 163.4555 32 163.5445 32 163.5445 31.5445 164 31.5445"></polygon>
                    <polygon id="Path" fill="#F2F2F2" points="231 85.4555 230.5445 85.4555 230.5445 85 230.4555 85 230.4555 85.4555 230 85.4555 230 85.5445 230.4555 85.5445 230.4555 86 230.5445 86 230.5445 85.5445 231 85.5445"></polygon>
                    <polygon id="Path" fill="#F2F2F2" points="226 103.4555 225.5445 103.4555 225.5445 103 225.4555 103 225.4555 103.4555 225 103.4555 225 103.5445 225.4555 103.5445 225.4555 104 225.5445 104 225.5445 103.5445 226 103.5445"></polygon>
                    <polygon id="Path" fill="#F2F2F2" points="23 117.4555 22.5445 117.4555 22.5445 117 22.4555 117 22.4555 117.4555 22 117.4555 22 117.5445 22.4555 117.5445 22.4555 118 22.5445 118 22.5445 117.5445 23 117.5445"></polygon>
                    <polygon id="Path" fill="#F2F2F2" points="52 37.4555 51.5445 37.4555 51.5445 37 51.4555 37 51.4555 37.4555 51 37.4555 51 37.5445 51.4555 37.5445 51.4555 38 51.5445 38 51.5445 37.5445 52 37.5445"></polygon>
                    <polygon id="Path" fill="#F2F2F2" points="164 106.4555 163.5445 106.4555 163.5445 106 163.4555 106 163.4555 106.4555 163 106.4555 163 106.5445 163.4555 106.5445 163.4555 107 163.5445 107 163.5445 106.5445 164 106.5445"></polygon>
                    <polygon id="Path" fill="#F2F2F2" points="95 14.4555 94.5445 14.4555 94.5445 14 94.4555 14 94.4555 14.4555 94 14.4555 94 14.5445 94.4555 14.5445 94.4555 15 94.5445 15 94.5445 14.5445 95 14.5445"></polygon>
                    <path d="M96.5717884,68 L96,68.1487252 C96.1788413,70.0779037 96.3198992,72.0495751 96.4231738,74 L97,73.9150142 C96.8967204,71.939102 96.7531436,69.9504377 96.5717884,68 Z" id="Path" fill="#E6E6E6"></path>
                    <path d="M94.3806228,57 L94,57.2857143 C94.2301038,59.1620469 94.4359862,61.0852878 94.6107266,63 L95,62.782516 C94.8217976,60.8464904 94.6124619,58.9019275 94.3806228,57 Z" id="Path" fill="#E6E6E6"></path>
                    <path d="M90.836,49 L90,49.3490909 C90.768,50.8727273 91.488,52.4363636 92.14,54 L93,53.7054545 C92.34002,52.1236218 91.61602,50.5381745 90.836,49 Z" id="Path" fill="#E6E6E6"></path>
                    <path d="M85.6423841,38 L85,38.4673252 C85.8178808,39.9414666 86.602649,41.468845 87.3311258,43 L88,42.5820669 C87.2649073,41.0319301 86.4701987,39.4893541 85.6423841,38 Z" id="Path" fill="#E6E6E6"></path>
                    <path d="M78.8365201,32 L78,32.6032389 C79.4244742,34.0202429 80.8107075,35.5020243 82.1204589,37 L83,36.4453441 C81.6806405,34.93117 80.2800717,33.4331903 78.8365201,32 Z" id="Path" fill="#E6E6E6"></path>
                    <path d="M72.655527,24 L72,24.7566372 C73.4738646,26.1150442 74.9177378,27.5442478 76.2930591,29 L77,28.2876106 C75.6075707,26.8141549 74.1465253,25.3716726 72.655527,24 Z" id="Path" fill="#E6E6E6"></path>
                    <path d="M63.5098814,17 L63,17.9462151 C64.5098814,19.2260956 66.0039526,20.5906375 67.4387352,22 L68,21.0985757 C66.5454506,19.6743028 65.0355692,18.2948406 63.5098814,17 Z" id="Path" fill="#E6E6E6"></path>
                    <path d="M57,12 L57,13.2 C57.8712029,13.7769231 58.7351154,14.3815385 59.5808019,15 L60,14.0815385 C59.0157861,13.3615231 58.0157861,12.6676769 57,12 Z" id="Path" fill="#E6E6E6"></path>
                    <path d="M96,79.0180708 L96.9853327,79 C97.003435,80.0039259 97.004781,81.013176 96.9893706,82 L96.0041194,81.9844768 C96.0191011,81.0088854 96.0178109,80.0108246 96,79.0180708 Z" id="Path" fill="#E6E6E6"></path>
                    <path d="M46.5717884,138 L46,138.148725 C46.1788413,140.077904 46.3198992,142.049575 46.4231738,144 L47,143.915014 C46.8967204,141.939102 46.7531436,139.950438 46.5717884,138 Z" id="Path" fill="#E6E6E6"></path>
                    <path d="M45.3806228,129 L45,129.285714 C45.2301038,131.162047 45.4359862,133.085288 45.6107266,135 L46,134.782516 C45.8217976,132.84649 45.6124706,130.901928 45.3806228,129 Z" id="Path" fill="#E6E6E6"></path>
                    <path d="M40.836,120 L40,120.349091 C40.768,121.872727 41.488,123.436364 42.14,125 L43,124.705455 C42.34,123.123622 41.616,121.538175 40.836,120 Z" id="Path" fill="#E6E6E6"></path>
                    <path d="M35.6423841,110 L35,110.467325 C35.8178808,111.941467 36.602649,113.468845 37.3311258,115 L38,114.582067 C37.2649238,113.03193 36.4701987,111.489354 35.6423841,110 Z" id="Path" fill="#E6E6E6"></path>
                    <path d="M30.8365201,103 L30,103.603239 C31.4244742,105.020243 32.8107075,106.502024 34.1204589,108 L35,107.445344 C33.6806405,105.93117 32.2800717,104.43319 30.8365201,103 Z" id="Path" fill="#E6E6E6"></path>
                    <path d="M23.655527,95 L23,95.7566372 C24.4738646,97.1150442 25.9177378,98.5442478 27.2930591,100 L28,99.2876106 C26.6075707,97.8141549 25.1465253,96.3716726 23.655527,95 Z" id="Path" fill="#E6E6E6"></path>
                    <path d="M15.5098814,87 L15,87.9462151 C16.5098617,89.2260956 18.0039526,90.5906375 19.4387352,92 L20,91.0985757 C18.5454506,89.6743028 17.0355692,88.2948406 15.5098814,87 Z" id="Path" fill="#E6E6E6"></path>
                    <path d="M9,83 L9,84.2 C9.87120292,84.7769231 10.7351154,85.3815385 11.5808019,86 L12,85.0815385 C11.0157861,84.3615231 10.0157861,83.6676769 9,83 Z" id="Path" fill="#E6E6E6"></path>
                    <path d="M48,150.018071 L48.9853327,150 C49.003435,151.003926 49.004781,152.013176 48.9893706,153 L48.0041194,152.984477 C48.0191011,152.008885 48.0178109,151.010825 48,150.018071 Z" id="Path" fill="#E6E6E6"></path>
                    <path d="M215.571788,103 L215,103.148725 C215.178841,105.077904 215.319899,107.049575 215.423174,109 L216,108.915014 C215.89672,106.939102 215.753144,104.950438 215.571788,103 Z" id="Path" fill="#E6E6E6"></path>
                    <path d="M213.380623,92 L213,92.2857143 C213.230104,94.1620469 213.435986,96.0852878 213.610727,98 L214,97.782516 C213.821798,95.8464904 213.612471,93.9019275 213.380623,92 Z" id="Path" fill="#E6E6E6"></path>
                    <path d="M209.836,83 L209,83.3490909 C209.768,84.8727273 210.488,86.4363636 211.14,88 L212,87.7054545 C211.34,86.1236218 210.616,84.5381745 209.836,83 Z" id="Path" fill="#E6E6E6"></path>
                    <path d="M205.642384,75 L205,75.4673252 C205.817881,76.9414666 206.602649,78.468845 207.331126,80 L208,79.5820669 C207.264924,78.0319301 206.470199,76.4893541 205.642384,75 Z" id="Path" fill="#E6E6E6"></path>
                    <path d="M197.83652,66 L197,66.6032389 C198.424474,68.0202429 199.810707,69.5020243 201.120459,71 L202,70.4453441 C200.680641,68.93117 199.280072,67.4331903 197.83652,66 Z" id="Path" fill="#E6E6E6"></path>
                    <path d="M189.655527,58 L189,58.7566372 C190.473865,60.1150442 191.917738,61.5442478 193.293059,63 L194,62.2876106 C192.607571,60.8141549 191.146525,59.3716726 189.655527,58 Z" id="Path" fill="#E6E6E6"></path>
                    <path d="M181.509881,53 L181,53.9462151 C182.509881,55.2260956 184.003953,56.5906375 185.438735,58 L186,57.0985757 C184.545451,55.6743028 183.035569,54.2948406 181.509881,53 Z" id="Path" fill="#E6E6E6"></path>
                    <path d="M174,49 L174,50.2 C174.871203,50.7769231 175.735115,51.3815385 176.580802,52 L177,51.0815385 C176.015786,50.3615231 175.015786,49.6676769 174,49 Z" id="Path" fill="#E6E6E6"></path>
                    <path d="M215,113.018071 L215.985333,113 C216.003435,114.003926 216.004781,115.013176 215.989371,116 L215.004119,115.984477 C215.019101,115.008885 215.017811,114.010825 215,113.018071 Z" id="Path" fill="#E6E6E6"></path>
                    <polygon id="Path" fill="#F2F2F2" points="53 71.455669 52.5445997 71.455669 52.5445997 71 52.455669 71 52.455669 71.455669 52 71.455669 52 71.544331 52.455669 71.544331 52.455669 72 52.5445997 72 52.5445997 71.544331 53 71.544331"></polygon>
                    <polygon id="Path" fill="#F2F2F2" points="46 108.455669 45.5445997 108.455669 45.5445997 108 45.455669 108 45.455669 108.455669 45 108.455669 45 108.5446 45.455669 108.5446 45.455669 109 45.5445997 109 45.5445997 108.5446 46 108.5446"></polygon>
                    <polygon id="Path" fill="#F2F2F2" points="26 140.4554 25.544331 140.4554 25.544331 140 25.4554003 140 25.4554003 140.4554 25 140.4554 25 140.544331 25.4554003 140.544331 25.4554003 141 25.544331 141 25.544331 140.544331 26 140.544331"></polygon>
                    <path d="M83.5211155,101.312244 C71.3887687,83.3361715 74.2489628,59.2221313 90.2523553,44.5617646 C106.255748,29.9013978 130.602802,29.0914582 147.551214,42.6556359 C164.499627,56.2198136 168.966442,80.0901104 158.06351,98.8324848 C147.160578,117.574859 124.157769,125.568333 103.928225,117.644491 C102.180888,123.861116 96.4416093,128.116765 89.9658099,127.997558 C83.4900104,127.878351 77.9122847,123.414377 76.396418,117.137683 C74.8805513,110.860988 77.8091725,104.35591 83.5211155,101.312244 L83.5211155,101.312244 Z" id="Path" fill="#3F3D56"></path>
                    <path d="M119.603958,51 C129.90966,51 137,56.6333311 137,64.7312448 C137,70.093744 134.361738,73.80416 129.277591,76.7562415 C124.495744,79.4916596 122.874322,81.495824 122.874322,84.9624887 L122.874322,84.9624887 C122.874323,85.5299405 122.645587,86.0741512 122.238433,86.4754002 C121.831279,86.8766492 121.27906,87.1020672 120.703257,87.1020672 L115.434754,87.1020672 C114.265167,87.1020672 113.305783,86.1890065 113.265007,85.0370823 L113.255655,84.7729024 C112.788465,79.1937146 114.76716,75.7270715 119.741383,72.8562536 C124.38582,70.1208355 126.337032,68.3875031 126.337032,65.0291718 C126.337032,61.6708406 123.039208,59.206258 118.94441,59.206258 C115.832084,59.206258 113.36902,60.6992265 112.239258,63.1367248 C111.428526,64.8215817 109.697728,65.8881256 107.80569,65.8687556 L107.80569,65.8687556 C104.235995,65.8687556 101.877818,62.1276803 103.547251,59.0181507 C106.188053,54.0992377 111.759981,51 119.603958,51 Z M112.376218,97.4208122 C112.376218,94.3062322 115.014484,91.841646 118.257342,91.841646 C121.527688,91.841646 124.165942,94.2791588 124.165942,97.4208122 C124.165942,100.562466 121.527681,103 118.257339,103 C114.986997,103 112.376218,100.562487 112.376218,97.4208122 L112.376218,97.4208122 Z" id="Shape" fill="#04CCFC"></path>
                </g>
            </g>
        </g>
    </g>
</svg>