<?xml version="1.0" encoding="UTF-8"?>
<svg width="512px" height="443px" viewBox="0 0 512 443" version="1.1" 
    xmlns="http://www.w3.org/2000/svg" 
    xmlns:xlink="http://www.w3.org/1999/xlink">
    <!-- Generator: Sketch 64 (93537) - https://sketch.com -->
    <title>not_found_illustration</title>
    <desc>Created with Sketch.</desc>
    <defs>
        <linearGradient x1="50%" y1="100.004407%" x2="50%" y2="-3.13124773e-15%" id="linearGradient-1">
            <stop stop-color="#808080" stop-opacity="0.25" offset="0%"></stop>
            <stop stop-color="#808080" stop-opacity="0.12" offset="54%"></stop>
            <stop stop-color="#808080" stop-opacity="0.1" offset="100%"></stop>
        </linearGradient>
        <linearGradient x1="36.8468285%" y1="103.528257%" x2="64.0850387%" y2="4.65100432%" id="linearGradient-2">
            <stop stop-color="#808080" stop-opacity="0.25" offset="0%"></stop>
            <stop stop-color="#808080" stop-opacity="0.12" offset="54%"></stop>
            <stop stop-color="#808080" stop-opacity="0.1" offset="100%"></stop>
        </linearGradient>
        <linearGradient x1="36.9255995%" y1="102.990254%" x2="64.1638096%" y2="4.11300106%" id="linearGradient-3">
            <stop stop-color="#808080" stop-opacity="0.25" offset="0%"></stop>
            <stop stop-color="#808080" stop-opacity="0.12" offset="54%"></stop>
            <stop stop-color="#808080" stop-opacity="0.1" offset="100%"></stop>
        </linearGradient>
        <linearGradient x1="50%" y1="100%" x2="50%" y2="-9.17895279e-15%" id="linearGradient-4">
            <stop stop-color="#808080" stop-opacity="0.25" offset="0%"></stop>
            <stop stop-color="#808080" stop-opacity="0.12" offset="54%"></stop>
            <stop stop-color="#808080" stop-opacity="0.1" offset="100%"></stop>
        </linearGradient>
    </defs>
    <g id="WebDesktop" stroke="none" stroke-width="1" fill="none" fill-rule="evenodd">
        <g id="404" transform="translate(-384.000000, -354.000000)" fill-rule="nonzero">
            <g id="not_found_illustration" transform="translate(384.000000, 354.000000)">
                <g id="Group" opacity="0.8" transform="translate(172.996587, 9.611440)" fill="url(#linearGradient-1)">
                    <ellipse id="Oval" cx="89.556314" cy="70.0914634" rx="89.2273316" ry="69.5702689"></ellipse>
                </g>
                <ellipse id="Oval" fill="#04CCFC" cx="262.552901" cy="79.9497041" rx="87.8088737" ry="67.7169625"></ellipse>
                <path d="M191.207587,89.0182188 C191.207587,51.8029464 230.147308,21.6334903 278.185718,21.6334903 C293.100222,21.5513982 307.866038,24.5993748 321.52901,30.5804621 C306.241025,20.254697 286.239699,13.9802761 264.349393,13.9802761 C216.310982,13.9802761 177.365188,44.1497323 177.365188,81.3650046 C177.365188,106.353356 194.924809,128.165017 221.012174,139.802761 C202.747982,127.448287 191.207587,109.281014 191.207587,89.0182188 Z" id="Path" fill="#FFFFFF" opacity="0.1"></path>
                <polygon id="Path" fill="#04CCFC" opacity="0.2" points="262.989761 108.34714 359.972696 275.676613 456.955631 443 262.989761 443 69.0238908 443 166.006826 275.676613"></polygon>
                <g id="Group" opacity="0.3" transform="translate(207.071672, 273.489152)" fill="url(#linearGradient-2)">
                    <path d="M78.3074384,72.162827 L85.8113687,50.0152189 C91.1091474,34.1803799 85.3776031,16.7620166 71.6920513,7.10611969 L71.7529104,7.06980221 C68.8013141,5.00311577 65.5645557,3.37210498 62.1432543,2.22747193 L62.1432543,2.22747193 L62.0397938,2.19115445 L61.9241615,2.15483698 L61.9241615,2.15483698 C58.6032184,1.03770592 55.1410379,0.389774829 51.638969,0.230010688 C50.4002956,0.1664372 49.1591499,0.1664372 47.9204764,0.230010688 C45.7712527,0.341889032 43.6355033,0.635506249 41.536354,1.10768305 C40.9277627,1.24084713 40.3191715,1.39216996 39.7653534,1.5555986 C39.2115354,1.71902725 38.5907723,1.89456172 38.0126106,2.08220202 C36.8562872,2.46353553 35.7182215,2.89329234 34.6044995,3.38357828 C34.0445955,3.6256948 33.4907775,3.87991714 32.9491312,4.15229822 C31.3112946,4.95658489 29.7348839,5.87909521 28.2325489,6.91242648 C27.7274181,7.25744251 27.2344592,7.61456437 26.7475862,7.97773914 C20.7319361,12.5276678 16.2286473,18.7694083 13.8211077,25.8943612 L2.02660892,60.7894038 C0.17033635,66.2619593 -0.387890915,72.0874199 0.395584324,77.8101947 C0.517302577,78.6878671 0.669450394,79.5594865 0.845941862,80.4250531 C1.02243333,81.2906196 1.24152619,82.1440803 1.45453313,82.9914881 C1.61885277,83.554409 1.78925833,84.1173299 1.97792162,84.6741979 C2.2578736,85.5034469 2.58651289,86.332696 2.89689443,87.1437863 C3.1220732,87.6824956 3.3594238,88.2212048 3.60894622,88.7538611 C4.10190514,89.8131209 4.64963728,90.848169 5.23997081,91.8590054 C5.83030434,92.8698419 6.45715335,93.8564667 7.16311922,94.8128269 C7.67433588,95.5270706 8.21598211,96.2292085 8.77588608,96.9071348 C9.53053925,97.8150717 10.3217079,98.7230086 11.1615638,99.528046 C14.7965989,103.172971 19.1469801,106.034835 23.9419805,107.935542 L23.9419805,107.935542 L23.9419805,107.935542 L24.1489015,108.020283 C24.4063923,107.565991 24.6909071,107.127385 25.0009293,106.706801 C26.8267031,104.219053 30.0035495,102.469762 33.0282481,103.123476 C33.2473409,103.1719 33.4664338,103.238482 33.6855267,103.305064 C35.2191767,103.843773 36.728483,104.806186 38.2073598,105.278313 C39.2961764,105.764897 40.5452864,105.749395 41.6215568,105.235943 C44.5793103,103.668238 43.4838461,98.7230086 46.0216716,96.5560658 C46.1398226,96.4560954 46.2637835,96.3631235 46.3929123,96.2776318 C46.3570177,96.2336996 46.3244691,96.1871648 46.2955377,96.1384148 C48.2552016,94.9278322 50.9695187,95.7328697 53.2273923,96.5136954 C55.6617573,97.3671561 58.8386037,97.9421828 60.5304875,95.9628803 C61.674639,94.6070279 61.5894363,92.5429846 62.6788146,91.1205501 C63.9446845,89.4862636 66.3303622,89.3046762 68.3934866,89.595216 L68.4969472,89.6254806 C72.4527904,91.2476612 76.7737884,88.554115 76.4694928,84.3110231 C76.1104239,78.6515496 77.8996822,73.3189334 78.3074384,72.162827 Z" id="Path"></path>
                </g>
                <path d="M232.779745,378.816711 C234.559035,376.393765 237.611859,374.697703 240.53672,375.357956 C243.461581,376.018209 246.234105,378.786424 248.836013,377.399288 C252.394593,375.50939 249.871901,368.561593 255.648501,368.046717 C256.852268,367.967632 258.057638,368.175297 259.164428,368.652454 C261.601812,369.639804 265.416318,370.754359 267.293104,368.531307 C268.39602,367.222916 268.316805,365.230043 269.370974,363.873194 C270.589666,362.298279 272.911274,362.098386 274.891649,362.401254 L274.989144,362.431541 C278.809743,364.000398 282.989857,361.395732 282.691278,357.300953 C282.30739,351.849326 284.050119,346.712681 284.427914,345.598126 L291.666945,324.209573 C298.077068,305.121392 287.770832,284.471321 268.603198,277.997942 L268.603198,277.997942 C249.403202,271.634214 228.637876,281.880945 222.128376,300.931123 L210.715325,334.567666 C204.557628,352.931897 213.858164,372.885803 231.932754,380.088757 C232.189804,379.648633 232.47262,379.223887 232.779745,378.816711 L232.779745,378.816711 Z" id="Path" fill="#FFFFFF"></path>
                <ellipse id="Oval" fill="#000000" opacity="0.2" cx="245.952218" cy="295.770217" rx="3.93174061" ry="3.93195266"></ellipse>
                <ellipse id="Oval" fill="#000000" opacity="0.2" cx="269.542662" cy="303.634122" rx="3.93174061" ry="3.93195266"></ellipse>
                <ellipse id="Oval" fill="#E0E0E0" transform="translate(253.306708, 315.064771) rotate(-71.400000) translate(-253.306708, -315.064771) " cx="253.306708" cy="315.064771" rx="5.94745933" ry="3.96788721"></ellipse>
                <ellipse id="Oval" fill="#FFFFFF" cx="336.382253" cy="297.080868" rx="6.11604096" ry="6.11637081"></ellipse>
                <ellipse id="Oval" fill="#FFFFFF" cx="355.167235" cy="288.780079" rx="3.05802048" ry="3.0581854"></ellipse>
                <g id="Group" opacity="0.5" transform="translate(216.682594, 33.203156)">
                    <g opacity="0.3" fill="url(#linearGradient-3)" id="Path">
                        <path d="M78.3074384,72.162827 L85.8113687,50.0152189 C91.1091474,34.1803799 85.3776031,16.7620166 71.6920513,7.10611969 L71.7529104,7.06980221 C68.8013141,5.00311577 65.5645557,3.37210498 62.1432543,2.22747193 L62.1432543,2.22747193 L62.0397938,2.19115445 L61.9241615,2.15483698 L61.9241615,2.15483698 C58.6032184,1.03770592 55.1410379,0.389774829 51.638969,0.230010688 C50.4002956,0.1664372 49.1591499,0.1664372 47.9204764,0.230010688 C45.7712527,0.341889032 43.6355033,0.635506249 41.536354,1.10768305 C40.9277627,1.24084713 40.3191715,1.39216996 39.7653534,1.5555986 C39.2115354,1.71902725 38.5907723,1.89456172 38.0126106,2.08220202 C36.8562872,2.46353553 35.7182215,2.89329234 34.6044995,3.38357828 C34.0445955,3.6256948 33.4907775,3.87991714 32.9491312,4.15229822 C31.3112946,4.95658489 29.7348839,5.87909521 28.2325489,6.91242648 C27.7274181,7.25744251 27.2344592,7.61456437 26.7475862,7.97773914 C20.7319361,12.5276678 16.2286473,18.7694083 13.8211077,25.8943612 L2.02660892,60.7894038 C0.17033635,66.2619593 -0.387890915,72.0874199 0.395584324,77.8101947 C0.517302577,78.6878671 0.669450394,79.5594865 0.845941862,80.4250531 C1.02243333,81.2906196 1.24152619,82.1440803 1.45453313,82.9914881 C1.61885277,83.554409 1.78925833,84.1173299 1.97792162,84.6741979 C2.2578736,85.5034469 2.58651289,86.332696 2.89689443,87.1437863 C3.1220732,87.6824956 3.3594238,88.2212048 3.60894622,88.7538611 C4.10190514,89.8131209 4.64963728,90.848169 5.23997081,91.8590054 C5.83030434,92.8698419 6.45715335,93.8564667 7.16311922,94.8128269 C7.67433588,95.5270706 8.21598211,96.2292085 8.77588608,96.9071348 C9.53053925,97.8150717 10.3217079,98.692744 11.1615638,99.528046 C14.7965989,103.172971 19.1469801,106.034835 23.9419805,107.935542 L23.9419805,107.935542 L23.9419805,107.935542 L24.1489015,108.020283 C24.4063923,107.565991 24.6909071,107.127385 25.0009293,106.706801 C26.8267031,104.219053 30.0035495,102.469762 33.0282481,103.123476 C33.2473409,103.1719 33.4664338,103.238482 33.6855267,103.305064 C35.2191767,103.843773 36.728483,104.806186 38.2073598,105.278313 C39.2961764,105.764897 40.5452864,105.749395 41.6215568,105.235943 C44.5793103,103.668238 43.4838461,98.7230086 46.0216716,96.5560658 C46.1398226,96.4560954 46.2637835,96.3631235 46.3929123,96.2776318 C46.3570177,96.2336996 46.3244691,96.1871648 46.2955377,96.1384148 C48.2552016,94.9278322 50.9695187,95.7328697 53.2273923,96.5136954 C55.6617573,97.3671561 58.8386037,97.9421828 60.5304875,95.9628803 C61.674639,94.6070279 61.5894363,92.5429846 62.6788146,91.1205501 C63.9446845,89.4862636 66.3303622,89.3046762 68.3934866,89.595216 L68.4969472,89.595216 C72.4527904,91.2173967 76.7737884,88.5238505 76.4694928,84.2807585 C76.1104239,78.6515496 77.8996822,73.3189334 78.3074384,72.162827 Z"></path>
                    </g>
                    <path d="M25.6886374,104.842503 C27.4657239,102.421338 30.5147662,100.726523 33.4360042,101.38629 C36.3572423,102.046058 39.1263326,104.812239 41.7250173,103.426122 C45.2791903,101.537613 42.7596225,94.594922 48.5290677,94.0804244 C49.7313432,94.001397 50.9352206,94.2089099 52.0406393,94.6857157 C54.4750044,95.6723405 58.2847857,96.7860765 60.1592468,94.5646575 C61.260797,93.2572283 61.1816801,91.26582 62.234543,89.9099675 C63.4517256,88.3362102 65.7704583,88.136464 67.7483799,88.4391097 L67.8457545,88.4693742 C71.6616217,90.0370787 75.8365578,87.4343261 75.5383481,83.3425571 C75.1549356,77.8949355 76.8955066,72.7620654 77.2728332,71.6483294 L84.5028975,50.2754941 C90.9050813,31.20134 80.6116104,10.5664443 61.467718,4.097822 L61.467718,4.097822 C42.2915044,-2.26122932 21.5518992,7.9779713 15.050462,27.0141501 L3.65154761,60.6259751 C-2.49852307,78.9767117 6.79049335,98.9159541 24.8426955,106.113615 C25.0994268,105.673814 25.3818932,105.24938 25.6886374,104.842503 Z" id="Path" fill="#FFFFFF"></path>
                    <ellipse id="Oval" fill="#000000" opacity="0.2" cx="39.1628481" cy="23.6547834" rx="3.96192915" ry="3.94044627"></ellipse>
                    <ellipse id="Oval" fill="#000000" opacity="0.2" cx="61.6928968" cy="31.1906599" rx="3.96192915" ry="3.94044627"></ellipse>
                </g>
                <path d="M346.641025,61.1637081 C347.774983,65.5102505 348.346834,69.9821896 348.34281,74.4718556 C348.34281,111.535046 309.238335,141.581214 260.996674,141.581214 C221.514024,141.557017 188.155363,121.437518 177.365188,93.829161 C185.38005,124.540736 220.672281,147.666667 263.009539,147.666667 C311.2512,147.666667 350.361775,117.620499 350.361775,80.5573085 C350.349346,73.919466 349.08748,67.3422616 346.641025,61.1637081 L346.641025,61.1637081 Z" id="Path" fill="#000000" opacity="0.1"></path>
                <g id="Group" opacity="0.8" transform="translate(83.003413, 62.911243)" fill="url(#linearGradient-4)">
                    <ellipse id="Oval" cx="181.296928" cy="46.9898589" rx="180.796378" ry="46.8265316"></ellipse>
                </g>
                <path d="M262.552901,64.6587771 C166.288996,64.6587771 88.2457338,84.9975017 88.2457338,110.094675 L436.860068,110.094675 C436.860068,84.9975017 358.816806,64.6587771 262.552901,64.6587771 Z" id="Path" fill="#FFFFFF"></path>
                <path d="M262.552901,155.530572 C358.816806,155.530572 436.860068,135.18913 436.860068,110.094675 L88.2457338,110.094675 C88.2457338,135.18913 166.288996,155.530572 262.552901,155.530572 Z" id="Path" fill="#FFFFFF"></path>
                <path d="M262.552901,155.530572 C358.816806,155.530572 436.860068,135.18913 436.860068,110.094675 L88.2457338,110.094675 C88.2457338,135.18913 166.288996,155.530572 262.552901,155.530572 Z" id="Path" fill="#000000" opacity="0.05"></path>
                <rect id="Rectangle" fill="#000000" opacity="0.05" x="179.112628" y="98.7357002" width="167.754266" height="23.591716" rx="11.795858"></rect>
                <path d="M82.358131,35.4518456 C81.3536189,35.0138234 80.836149,33.8939185 81.1539773,32.8458245 C81.1786345,32.7676267 81.1943977,32.6869024 81.2009686,32.6051784 L81.2009686,32.6051784 C81.2317578,32.1281531 80.9450533,31.6876533 80.4961889,31.5223377 C80.0473245,31.3570221 79.5431005,31.5062249 79.2567009,31.8891095 L79.2567009,31.8891095 C79.209667,31.9548743 79.1702553,32.025761 79.1392224,32.1004085 C78.7028987,33.1061385 77.5802949,33.6240605 76.5312016,33.303639 C76.4527851,33.27963 76.372068,33.2638924 76.2903709,33.2566836 L76.2903709,33.2566836 C75.8129795,33.2259181 75.3721418,33.5124028 75.2066993,33.960923 C75.0412568,34.4094433 75.1905742,34.9132806 75.5737526,35.1994607 L75.5737526,35.1994607 C75.6386344,35.2494731 75.7097095,35.2909017 75.7852137,35.3227184 C76.7897258,35.7607406 77.3071958,36.8806455 76.9893675,37.9287396 C76.9652729,38.0050753 76.9495174,38.0837925 76.9423761,38.1635162 L76.9423761,38.1635162 C76.908635,38.6416772 77.1943541,39.0848428 77.6440266,39.2518135 C78.0936991,39.4187842 78.5997053,39.2695991 78.8866439,38.8854545 L78.8866439,38.8854545 C78.9349141,38.818369 78.9743943,38.7453868 79.0041223,38.6682861 C79.4510486,37.6740317 80.5707858,37.1700323 81.6121431,37.4944027 C81.6905596,37.5184117 81.7712767,37.5341493 81.8529738,37.541358 L81.8529738,37.541358 C82.3303652,37.5721236 82.7712029,37.2856389 82.9366454,36.8371187 C83.1020879,36.3885984 82.9527706,35.8847611 82.5695922,35.598581 L82.5695922,35.598581 C82.5060828,35.5403232 82.4349448,35.4909597 82.358131,35.4518456 Z" id="Path" fill="#4D8AF0" opacity="0.5"></path>
                <path d="M391.65264,222.438039 C390.655884,221.989473 390.150427,220.872405 390.473452,219.832018 C390.498202,219.75382 390.514024,219.673096 390.520619,219.591372 L390.520619,219.591372 C390.551524,219.114346 390.263745,218.673847 389.813197,218.508531 C389.36265,218.343215 388.856536,218.492418 388.569063,218.875303 L388.569063,218.875303 C388.521853,218.941068 388.482293,219.011954 388.451144,219.086602 C388.013184,220.092332 386.886372,220.610254 385.833346,220.289832 C385.754635,220.265823 385.673616,220.250086 385.591612,220.242877 L385.591612,220.242877 C385.112431,220.212111 384.669941,220.498596 384.503878,220.947116 C384.337815,221.395637 384.487692,221.899474 384.872307,222.185654 L384.872307,222.185654 C384.937432,222.235666 385.008774,222.277095 385.084561,222.308912 C386.081317,222.757478 386.586774,223.874545 386.263749,224.914933 C386.239565,224.991269 386.22375,225.069986 386.216582,225.14971 L386.216582,225.14971 C386.182714,225.62787 386.469505,226.071036 386.920863,226.238007 C387.372221,226.404977 387.880124,226.255792 388.168139,225.871648 L388.168139,225.871648 C388.21659,225.804562 388.256218,225.73158 388.286057,225.654479 C388.734659,224.660225 389.858594,224.156226 390.903856,224.480596 C390.982566,224.504605 391.063586,224.520343 391.145589,224.527551 L391.145589,224.527551 C391.62477,224.558317 392.067261,224.271832 392.233323,223.823312 C392.399386,223.374792 392.249509,222.870954 391.864894,222.584774 L391.864894,222.584774 C391.801147,222.526517 391.729742,222.477153 391.65264,222.438039 L391.65264,222.438039 Z" id="Path" fill="#4D8AF0" opacity="0.5"></path>
                <path d="M48.2830457,308.940997 C47.2785336,308.502975 46.7610636,307.38307 47.0788919,306.334976 C47.1035492,306.256779 47.1193124,306.176054 47.1258833,306.09433 L47.1258833,306.09433 C47.1566725,305.617305 46.8699679,305.176805 46.4211035,305.01149 C45.9722391,304.846174 45.4680152,304.995377 45.1816155,305.378261 L45.1816155,305.378261 C45.1345817,305.444026 45.09517,305.514913 45.0641371,305.58956 C44.6278134,306.59529 43.5052096,307.113212 42.4561163,306.792791 C42.3776998,306.768782 42.2969827,306.753044 42.2152856,306.745836 L42.2152856,306.745836 C41.7378942,306.71507 41.2970565,307.001555 41.131614,307.450075 C40.9661715,307.898595 41.1154888,308.402432 41.4986672,308.688613 L41.4986672,308.688613 C41.5635491,308.738625 41.6346242,308.780054 41.7101284,308.81187 C42.7146404,309.249892 43.2321104,310.369797 42.9142821,311.417891 C42.8901876,311.494227 42.8744321,311.572944 42.8672908,311.652668 L42.8672908,311.652668 C42.8335496,312.130829 43.1192688,312.573995 43.5689413,312.740965 C44.0186137,312.907936 44.52462,312.758751 44.8115585,312.374606 L44.8115585,312.374606 C44.8598288,312.307521 44.8993089,312.234539 44.9290369,312.157438 C45.3759633,311.163184 46.4957005,310.659184 47.5370578,310.983555 C47.6154743,311.007564 47.6961914,311.023301 47.7778885,311.03051 L47.7778885,311.03051 C48.2552798,311.061275 48.6961176,310.774791 48.8615601,310.326271 C49.0270025,309.87775 48.8776852,309.373913 48.4945068,309.087733 L48.4945068,309.087733 C48.4309974,309.029475 48.3598595,308.980112 48.2830457,308.940997 Z" id="Path" fill="#4D8AF0" opacity="0.5"></path>
                <path d="M15.0523109,106.226994 C14.0592779,105.778427 13.5557083,104.66136 13.8775267,103.620972 C13.902184,103.542775 13.9179472,103.46205 13.9245181,103.380326 L13.9245181,103.380326 C13.9553073,102.903301 13.6686028,102.462801 13.2197383,102.297486 C12.7708739,102.13217 12.26665,102.281373 11.9802503,102.664257 L11.9802503,102.664257 C11.9332165,102.730022 11.8938048,102.800909 11.8627719,102.875556 C11.4264482,103.881286 10.3038444,104.399208 9.25475112,104.078787 C9.17633459,104.054778 9.09561751,104.03904 9.01392037,104.031832 L9.01392037,104.031832 C8.53652903,104.001066 8.09569127,104.287551 7.9302488,104.736071 C7.76480633,105.184591 7.91412365,105.688429 8.29730204,105.974609 L8.29730204,105.974609 C8.36218392,106.024621 8.43325901,106.06605 8.50876319,106.097866 C9.51327525,106.535888 10.0307452,107.655793 9.71291694,108.703887 C9.68882242,108.780223 9.67306689,108.85894 9.66592557,108.938664 L9.66592557,108.938664 C9.63218446,109.416825 9.9179036,109.859991 10.3675761,110.026961 C10.8172485,110.193932 11.3232548,110.044747 11.6101933,109.660602 L11.6101933,109.660602 C11.6584636,109.593517 11.6979438,109.520535 11.7276718,109.443434 C12.1745981,108.44918 13.2943353,107.94518 14.3356926,108.269551 C14.4141091,108.29356 14.4948262,108.309297 14.5765233,108.316506 L14.5765233,108.316506 C15.0539147,108.347272 15.4947524,108.060787 15.6601949,107.612267 C15.8256374,107.163746 15.67632,106.659909 15.2931416,106.373729 L15.2931416,106.373729 C15.2206057,106.313134 15.1394372,106.263679 15.0523109,106.226994 Z" id="Path" fill="#4D8AF0" opacity="0.5"></path>
                <path d="M385.538343,3.96411562 C384.562045,3.51915346 384.066962,2.4110615 384.383357,1.37903322 C384.407598,1.3014638 384.423096,1.22138807 384.429556,1.14032065 L384.429556,1.14032065 C384.459826,0.667128126 384.177953,0.230167674 383.736653,0.066180326 C383.295353,-0.0978070222 382.799627,0.0501969996 382.518054,0.430005216 L382.518054,0.430005216 C382.471812,0.495241652 382.433065,0.565558792 382.402555,0.639606492 C381.96316,1.62587234 380.862293,2.12582222 379.838485,1.80405803 C379.76139,1.78024197 379.682033,1.76463082 379.601713,1.75747996 L379.601713,1.75747996 C379.087277,1.64868036 378.571243,1.93544057 378.387789,2.43205711 C378.204336,2.92867365 378.408598,3.48589521 378.868297,3.74286983 L378.868297,3.74286983 C378.932085,3.79248039 379.001962,3.83357619 379.076194,3.86513724 C380.052492,4.3100994 380.547576,5.41819136 380.231181,6.45021965 C380.207492,6.525942 380.192002,6.60402678 380.184981,6.68310995 L380.184981,6.68310995 C380.134731,7.17665163 380.427178,7.6404067 380.891781,7.80393472 C381.356385,7.96746273 381.871571,7.78797331 382.136908,7.37013636 L382.136908,7.37013636 C382.184365,7.30358987 382.22318,7.23119401 382.252407,7.15471283 C382.691801,6.16844697 383.792668,5.6684971 384.816477,5.99026129 C384.893572,6.01407735 384.972928,6.0296885 385.053249,6.03683935 L385.053249,6.03683935 C385.522595,6.06735771 385.956004,5.78317485 386.118658,5.33825836 C386.281312,4.89334187 386.134511,4.39355277 385.75779,4.10967206 L385.75779,4.10967206 C385.691795,4.05098964 385.617918,4.00198792 385.538343,3.96411562 L385.538343,3.96411562 Z" id="Path" fill="#4D8AF0" opacity="0.5"></path>
                <g id="Group" opacity="0.5" transform="translate(62.907850, 155.530572)" fill="#47E6B1">
                    <rect id="Rectangle" x="3.95743827" y="0.577657243" width="1.69604497" height="11.5531449"></rect>
                    <polygon id="Rectangle" transform="translate(4.805461, 6.354230) rotate(90.000000) translate(-4.805461, -6.354230) " points="3.78606562 1.54876892 5.82485589 1.54876892 5.82485589 11.1596904 3.78606562 11.1596904"></polygon>
                </g>
                <g id="Group" opacity="0.5" transform="translate(502.389078, 108.347140)" fill="#47E6B1">
                    <rect id="Rectangle" x="3.95743827" y="0.577657243" width="1.69604497" height="11.5531449"></rect>
                    <polygon id="Rectangle" transform="translate(4.805461, 6.354230) rotate(90.000000) translate(-4.805461, -6.354230) " points="3.78606562 1.54876892 5.82485589 1.54876892 5.82485589 11.1596904 3.78606562 11.1596904"></polygon>
                </g>
                <g id="Group" opacity="0.5" transform="translate(441.228669, 276.984221)" fill="#47E6B1">
                    <rect id="Rectangle" x="3.95743827" y="0.577657243" width="1.69604497" height="11.5531449"></rect>
                    <polygon id="Rectangle" transform="translate(4.805461, 6.354230) rotate(90.000000) translate(-4.805461, -6.354230) " points="3.78606562 1.54876892 5.82485589 1.54876892 5.82485589 11.1596904 3.78606562 11.1596904"></polygon>
                </g>
                <ellipse id="Oval" fill="#F55F44" opacity="0.5" cx="440.791809" cy="49.3678501" rx="3.93174061" ry="3.93195266"></ellipse>
                <ellipse id="Oval" fill="#F55F44" opacity="0.5" cx="3.93174061" cy="8.30078895" rx="3.93174061" ry="3.93195266"></ellipse>
                <ellipse id="Oval" fill="#F55F44" opacity="0.5" cx="114.020478" cy="218.878698" rx="3.93174061" ry="3.93195266"></ellipse>
                <ellipse id="Oval" fill="#000000" opacity="0.05" cx="142.853242" cy="94.8037475" rx="20.5324232" ry="3.93195266"></ellipse>
                <ellipse id="Oval" fill="#000000" opacity="0.05" cx="142.853242" cy="126.259369" rx="20.5324232" ry="3.93195266"></ellipse>
                <ellipse id="Oval" fill="#000000" opacity="0.05" cx="378.757679" cy="94.8037475" rx="20.5324232" ry="3.93195266"></ellipse>
                <ellipse id="Oval" fill="#000000" opacity="0.05" cx="378.757679" cy="126.259369" rx="20.5324232" ry="3.93195266"></ellipse>
                <ellipse id="Oval" fill="#000000" opacity="0.05" cx="262.552901" cy="76.4546351" rx="20.5324232" ry="3.93195266"></ellipse>
                <ellipse id="Oval" fill="#000000" opacity="0.05" cx="278.279863" cy="31.8925049" rx="20.5324232" ry="3.93195266"></ellipse>
                <ellipse id="Oval" fill="#000000" opacity="0.05" cx="238.962457" cy="49.3678501" rx="20.5324232" ry="3.93195266"></ellipse>
                <ellipse id="Oval" fill="#000000" opacity="0.05" cx="315.849829" cy="57.2317554" rx="20.5324232" ry="3.93195266"></ellipse>
                <ellipse id="Oval" fill="#000000" opacity="0.05" cx="262.552901" cy="139.365878" rx="20.5324232" ry="3.93195266"></ellipse>
            </g>
        </g>
    </g>
</svg>