<?xml version="1.0" encoding="UTF-8"?>
<svg width="400px" height="362px" viewBox="0 0 400 362" version="1.1" xmlns="http://www.w3.org/2000/svg" xmlns:xlink="http://www.w3.org/1999/xlink">
    <!-- Generator: Sketch 64 (93537) - https://sketch.com -->
    <title>undraw_privacy_protection_nlwy</title>
    <desc>Created with Sketch.</desc>
    <g id="WebDesktop" stroke="none" stroke-width="1" fill="none" fill-rule="evenodd">
        <g id="PrivacyPolicy" transform="translate(-735.000000, -390.000000)" fill-rule="nonzero">
            <g id="policy" transform="translate(50.000000, 340.000000)">
                <g id="undraw_privacy_protection_nlwy" transform="translate(685.000000, 50.000000)">
                    <circle id="Oval" fill="#F2F2F2" cx="189.230769" cy="250.769231" r="93.8461538"></circle>
                    <ellipse id="Oval" fill="#3F3D56" cx="175.384615" cy="350" rx="89.2307692" ry="11.5384615"></ellipse>
                    <ellipse id="Oval" fill="#3F3D56" transform="translate(178.642314, 99.056080) rotate(-18.579780) translate(-178.642314, -99.056080) " cx="178.642314" cy="99.0560803" rx="6.30917084" ry="3.06651803"></ellipse>
                    <path d="M165.633346,113.32223 L198.804621,98.1661817 C198.804621,98.1661817 255.002373,76.865591 303.076923,128.860719 C303.076923,128.860719 281.531366,114.991646 265.200477,133.311965 C265.200477,133.311965 234.470059,124.975048 208.681379,155.607054 C208.681379,155.607054 168.346311,161.731958 151.547213,183.196874 C151.547213,183.196874 132.819069,180.308676 125.364672,204.116495 C125.290059,204.353303 125.098092,204.534219 124.857768,204.594219 C124.617444,204.65422 124.363293,204.584684 124.186661,204.410603 L124.186661,204.410603 C124.083313,204.309219 124.013424,204.178516 123.986406,204.036092 C123.286489,200.356616 115.049607,151.2744 165.633346,113.32223 Z" id="Path" fill="#04CCFC"></path>
                    <path d="M165.633346,113.32223 L198.804621,98.1661817 C198.804621,98.1661817 255.002373,76.865591 303.076923,128.860719 C303.076923,128.860719 281.531366,114.991646 265.200477,133.311965 C265.200477,133.311965 234.470059,124.975048 208.681379,155.607054 C208.681379,155.607054 168.346311,161.731958 151.547213,183.196874 C151.547213,183.196874 132.819069,180.308676 125.364672,204.116495 C125.290059,204.353303 125.098092,204.534219 124.857768,204.594219 C124.617444,204.65422 124.363293,204.584684 124.186661,204.410603 L124.186661,204.410603 C124.083313,204.309219 124.013424,204.178516 123.986406,204.036092 C123.286489,200.356616 115.049607,151.2744 165.633346,113.32223 Z" id="Path" fill="#000000" opacity="0.2"></path>
                    <polygon id="Path" fill="#2F2E41" points="176.923077 174.648643 190.769231 176.923077 195.384615 155.31767 184.230878 150.769231"></polygon>
                    <circle id="Oval" fill="#A0616A" cx="194.615385" cy="159.230769" r="11.5384615"></circle>
                    <path d="M190.157228,166.153846 C190.157228,166.153846 191.299842,180.899453 182.539798,182.063579 C173.779755,183.227705 190.157228,209.614575 194.346822,209.226531 C198.536416,208.838488 206.153846,180.511423 206.153846,180.511423 C206.153846,180.511423 196.251168,173.526641 199.679012,167.317972 L190.157228,166.153846 Z" id="Path" fill="#A0616A"></path>
                    <path d="M175.384615,219.95338 C175.384615,219.95338 176.935914,230.769231 181.589862,230.769231 C186.243809,230.769231 178.487239,218.461538 178.487239,218.461538 L175.384615,219.95338 Z" id="Path" fill="#A0616A"></path>
                    <path d="M242.281511,230.769231 C242.281511,230.769231 253.689077,240.653342 252.168068,243.816259 C250.647059,246.979175 240.760502,240.257981 240,232.350689 L242.281511,230.769231 Z" id="Path" fill="#A0616A"></path>
                    <path d="M172.307688,267.692308 L164.999997,294.826063 L156.923077,327.692308 L164.61538,327.692308 C164.61538,327.692308 167.307687,317.373835 172.307688,312.023517 C172.307688,312.023517 177.307685,303.615873 177.307685,297.883389 L189.230769,269.9853 L172.307688,267.692308 Z" id="Path" fill="#A0616A"></path>
                    <path d="M203.076923,269.555146 L205.438286,295.0139 C205.438286,295.0139 205.044724,313.253011 205.438286,317.432807 C205.831847,321.612603 205.438286,327.692308 205.438286,327.692308 L212.522364,327.692308 C212.522364,327.692308 219.212882,305.273401 217.245081,293.113996 L220,264.615385 L203.076923,269.555146 Z" id="Path" fill="#A0616A"></path>
                    <path d="M195.29028,197.953488 C195.29028,197.953488 184.786943,189.75847 187.504616,178.311425 C187.504616,178.311425 176.967506,178.762682 172.679197,182.98466 C168.390888,187.206637 173.848735,201.407835 173.848735,201.407835 C173.848735,201.407835 183.205044,216.76048 181.645658,223.66917 C180.086273,230.577861 163.322884,267.040394 168.780731,269.343289 C174.238578,271.646184 207.375513,279.706327 224.138906,266.272759 C224.138906,266.272759 228.427215,228.274961 211.273979,215.992846 L211.273979,206.397443 C211.273979,206.397443 214.392723,203.71073 212.833351,196.80204 C212.833351,196.80204 219.46074,184.903729 215.562279,182.600842 C211.663817,180.297956 202.708748,176.923077 202.708748,176.923077 C202.708748,176.923077 203.477051,194.11531 195.29028,197.953488 Z" id="Path" fill="#2F2E41"></path>
                    <path d="M173.921555,183.100615 C173.921555,183.100615 169.003264,182.317315 164.084952,189.758661 C159.166641,197.200007 146.303372,208.949442 152.356665,214.824171 C158.409958,220.6989 174.678225,224.615385 174.678225,224.615385 L178.461538,217.565711 L162.193285,209.341088 L175.813218,198.766579 L173.921555,183.100615 Z" id="Path" fill="#2F2E41"></path>
                    <path d="M212.769217,183.076923 C212.769217,183.076923 218.273492,183.076923 220.632465,189.662421 C222.991439,196.247918 236.752131,218.716096 236.752131,218.716096 L244.615385,230.724958 L239.11111,236.923077 L223.777785,219.878255 L209.230769,196.247932 L212.769217,183.076923 Z" id="Path" fill="#2F2E41"></path>
                    <path d="M165.816799,326.153846 L155.075248,326.153846 L152.773484,344.93713 C152.773484,344.93713 146.635457,354.90377 155.8425,353.753774 C165.049542,352.603778 161.980531,342.253804 161.980531,342.253804 L164.282291,338.420483 L165.049547,346.47046 L165.816799,346.087126 L165.816799,337.270482 C165.816799,337.270482 170.036694,333.437161 165.816799,326.153846 Z" id="Path" fill="#2F2E41"></path>
                    <path d="M215.384615,325.402284 L205.124092,324.615385 L203.150917,346.648628 C203.150917,346.648628 201.967011,354.911093 209.07045,353.730742 C216.173889,352.55039 213.806064,345.861725 213.806064,345.861725 L213.806064,333.66474 L215.384615,325.402284 Z" id="Path" fill="#2F2E41"></path>
                    <path d="M186.026833,146.037051 C186.026833,146.037051 180.302555,147.911542 180.011889,155.314324 C179.982358,156.498296 180.116017,157.680751 180.409229,158.829516 C180.731552,160.171479 180.938766,163.058962 178.440798,166.832296 C176.768148,169.323544 175.240133,171.905657 173.864062,174.566285 L173.846154,174.60147 L180.132956,175.373484 L181.469741,165.136169 C182.117843,160.172875 183.506286,155.330368 185.590403,150.764434 L185.633907,150.66912 C185.633907,150.66912 188.384382,155.687196 193.885332,155.687196 L191.920709,153.757166 C191.920709,153.757166 200.565061,157.231215 203.708462,157.231215 C203.708462,157.231215 206.066011,158.775225 203.708462,161.091274 C201.350913,163.407324 196.635811,168.811385 199.386286,173.05746 C202.136761,177.303535 199.779208,178.461538 199.779208,178.461538 L204.101384,176.145506 L206.066011,174.98749 L206.066011,176.5315 L216.282063,175.373484 C216.282063,175.373484 219.032538,174.987477 213.138661,168.425382 C213.138661,168.425382 211.582286,165.877101 212.263215,163.679247 C212.822736,162.008913 212.96977,160.231784 212.692176,158.494608 C211.371798,151.258259 206.191349,136.8715 186.026833,146.037051 Z" id="Path" fill="#2F2E41"></path>
                    <path d="M246.118514,241.11136 C249.905164,237.270501 245.711204,229.315798 245.383435,228.710979 L202.13551,140.625147 C201.860447,140.0709 201.187934,139.842718 200.631088,140.114698 C200.074241,140.386678 199.842592,141.056479 200.112884,141.613056 L243.382481,229.742608 L243.394626,229.764674 C243.437569,229.843417 247.613294,237.754067 243.89426,240.02063 C239.889015,242.463306 235.218156,238.506183 235.171478,238.465938 C234.86721,238.202726 234.445155,238.121677 234.064658,238.25339 C233.68416,238.385102 233.403182,238.709513 233.327806,239.104141 C233.25243,239.498769 233.394137,239.903501 233.699428,240.165531 C233.940821,240.373682 239.676819,245.22571 245.068921,241.936937 C245.451395,241.705703 245.803905,241.42843 246.118514,241.11136 L246.118514,241.11136 Z" id="Path" fill="#3F3D56"></path>
                    <path d="M162.639977,106.521301 L194.677185,91.8688089 C194.677185,91.8688089 248.953642,71.2759097 295.384615,121.543527 C295.384615,121.543527 274.57566,108.135249 258.803095,125.846862 C258.803095,125.846862 229.123289,117.786935 204.216263,147.401197 C204.216263,147.401197 165.260171,153.322607 149.035401,174.074356 C149.035401,174.074356 130.384165,171.195146 123.422117,195.384615 L122.458919,194.433893 C122.458919,194.433893 111.853583,144.663525 162.639977,106.521301 Z" id="Path" fill="#04CCFC"></path>
                    <path d="M163.076923,106.153846 C163.076923,106.153846 147.490732,159.230772 149.391489,173.846154" id="Path" fill="#3F3D56"></path>
                    <path d="M180,98.4615385 C180,98.4615385 199.667064,143.806529 204.615385,147.692308" id="Path" fill="#3F3D56"></path>
                    <path d="M195.384615,92.3076923 C195.384615,92.3076923 245.320515,122.731203 258.461538,126.153846" id="Path" fill="#3F3D56"></path>
                    <path d="M118.483751,346.153846 C118.396222,346.002275 116.331962,342.350393 115.616314,334.767166 C114.959896,327.809955 115.381984,316.083033 121.122077,299.724944 C131.996507,268.735633 118.616002,243.73175 118.47928,243.482685 L119.139418,243.076923 C119.174066,243.140077 122.626763,249.515086 124.66642,259.666312 C127.361437,273.124699 126.380077,287.118171 121.83735,300.006755 C110.981546,330.943175 119.052244,345.58821 119.13495,345.732673 L118.483751,346.153846 Z" id="Path" fill="#3F3D56"></path>
                    <circle id="Oval" fill="#3F3D56" cx="113.076923" cy="237.692308" r="5.38461538"></circle>
                    <circle id="Oval" fill="#3F3D56" cx="130" cy="257.692308" r="5.38461538"></circle>
                    <circle id="Oval" fill="#04CCFC" cx="119.230769" cy="270" r="5.38461538"></circle>
                    <circle id="Oval" fill="#04CCFC" cx="133.076923" cy="280.769231" r="5.38461538"></circle>
                    <circle id="Oval" fill="#3F3D56" cx="114.615385" cy="297.692308" r="5.38461538"></circle>
                    <path d="M120.79772,347.692308 C120.79772,347.692308 115.811968,334.505493 130.769231,324.615385 L120.79772,347.692308 Z" id="Path" fill="#3F3D56"></path>
                    <path d="M115.384615,346.153846 C115.384615,346.153846 112.920211,332.188758 93.8461538,332.308457 L115.384615,346.153846 Z" id="Path" fill="#3F3D56"></path>
                    <polygon id="Path" fill="#3F3D56" points="83.2773086 0 101.538462 10.1171947 66.156425 33.8461538 49.2307692 22.5397557"></polygon>
                    <polygon id="Path" fill="#3F3D56" points="38.8813808 30.7692308 0 56.6234865 18.0563701 67.6923077 56.9230769 40.9299323"></polygon>
                    <path d="M45.6073643,18.9571113 C41.2557551,20.9979762 38.1073504,24.8379614 37.0550234,29.3880645 C36.6360202,31.0552814 37.2324638,32.8073004 38.5950846,33.9119065 L50.2489233,43.3909857 C51.964939,44.7838547 54.3964008,45.0097653 56.3572268,43.9585168 C61.0954599,41.4278988 68.7045196,36.1156501 65.3068692,29.3880818 C64.9270702,28.6408076 64.3460994,28.0053337 63.6245195,27.5479046 L50.6363985,19.2759958 C49.1374989,18.3179554 47.2237397,18.1966065 45.6073643,18.9571113 L45.6073643,18.9571113 Z" id="Path" fill="#D0CDE1"></path>
                    <ellipse id="Oval" fill="#3F3D56" transform="translate(70.379315, 41.990426) rotate(-53.330290) translate(-70.379315, -41.990426) " cx="70.3793148" cy="41.9904259" rx="18.6054752" ry="12.6294916"></ellipse>
                    <path d="M64.1404914,56.4797348 C66.5042977,58.1864613 72.1263465,54.8219367 77.1801449,48.853461 C77.6277697,48.3257901 78.070248,47.7779008 78.5075799,47.2097931 C78.8279151,46.792439 79.1366608,46.3751515 79.4338169,45.9579304 C84.1197939,39.3958662 85.9721516,32.9591644 83.5518211,31.212876 C81.1137191,29.4525702 75.2143359,33.0833467 70.0426455,39.3998445 C69.7538574,39.7537278 69.4678879,40.1147188 69.1847371,40.4828176 C68.2059404,41.7549172 67.3007157,43.0786635 66.4732355,44.4479547 C63.1400213,49.993137 62.0565622,54.9749911 64.1404914,56.4797348 Z" id="Path" fill="#000000" opacity="0.2"></path>
                    <path d="M67.6923077,44.9289209 L77.8287818,49.2304102 L85.0812907,52.3076923 L86.1538462,50.8607833 L79.962374,46.4032451 L71.071559,40 C70.798157,40.3455279 70.5274234,40.6979957 70.2593583,41.0574034 C69.3327057,42.2994675 68.4757054,43.5919593 67.6923077,44.9289209 L67.6923077,44.9289209 Z" id="Path" fill="#D0CDE1"></path>
                    <circle id="Oval" fill="#D0CDE1" cx="86.9230769" cy="53.0769231" r="2.30769231"></circle>
                    <path d="M88.0415978,75.1380602 C88.1840303,75.0133909 88.3590806,74.9279601 88.5481635,74.8908382 C100.60782,72.5061922 108.196172,65.8610084 111.746064,54.5762331 C111.917279,54.0338106 112.515292,53.7266807 113.082249,53.8899897 C113.649207,54.0532988 113.970733,54.625297 113.80066,55.1680485 C110.05538,67.07377 101.705427,74.3858883 88.982188,76.9018011 C88.5091495,76.9952378 88.0291849,76.774668 87.8096183,76.3629418 C87.5900518,75.9512157 87.6850143,75.4498383 88.0416151,75.1380602 L88.0415978,75.1380602 Z" id="Path" fill="#04CCFC"></path>
                    <path d="M83.4202516,67.3993263 C83.560178,67.2713276 83.7322483,67.1836627 83.91812,67.1456767 C92.8051132,65.3110122 98.3969092,60.1991073 101.01305,51.5178228 C101.181527,50.9615594 101.769104,50.6467068 102.326139,50.8142053 C102.883174,50.9817039 103.199189,51.5682637 103.032353,52.1250206 C100.212177,61.4836443 93.9250495,67.2312105 84.3446679,69.2089358 C83.879753,69.3048122 83.4080247,69.0785128 83.1922235,68.6560806 C82.9764224,68.2336484 83.0697521,67.71923 83.4202304,67.3993433 L83.4202516,67.3993263 Z" id="Path" fill="#04CCFC"></path>
                    <path d="M91.1252878,85.7257105 C91.2704157,85.5882637 91.4488834,85.4941283 91.6416656,85.4533395 C103.909618,82.8314796 117.325095,70.1341897 120.936321,57.726921 C121.111061,57.129601 121.720483,56.7915096 122.298227,56.971371 C122.875971,57.1512323 123.203734,57.7810849 123.030696,58.378935 C119.215844,71.4860142 105.044008,84.8991844 92.084089,87.6688656 C91.6018916,87.7718119 91.1126313,87.528806 90.8888127,87.0751956 C90.6649941,86.6215851 90.7617972,86.0692029 91.1253053,85.7257105 L91.1252878,85.7257105 Z" id="Path" fill="#04CCFC"></path>
                    <polygon id="Path" fill="#3F3D56" points="316.722842 0 298.461538 10.1171947 333.843435 33.8461538 350.769231 22.5397557"></polygon>
                    <polygon id="Path" fill="#3F3D56" points="361.118756 30.7692308 400 56.6234865 381.943493 67.6923077 343.076923 40.9299323"></polygon>
                    <path d="M354.392636,18.9571179 C358.744245,20.9979823 361.89265,24.8379665 362.944977,29.3880684 C363.36398,31.0552849 362.767536,32.8073035 361.404915,33.9119093 L349.751077,43.390986 C348.035061,44.7838547 345.603599,45.0097652 343.642773,43.958517 C338.90454,41.4278996 331.29548,36.1156523 334.693131,29.3880857 C335.072929,28.6408028 335.653903,28.0053212 336.375489,27.5478874 L349.36361,19.2759807 C350.862512,18.3179508 352.776267,18.1966102 354.392636,18.9571179 L354.392636,18.9571179 Z" id="Path" fill="#D0CDE1"></path>
                    <ellipse id="Oval" fill="#3F3D56" transform="translate(329.477736, 41.990457) rotate(-36.669710) translate(-329.477736, -41.990457) " cx="329.477736" cy="41.9904565" rx="12.6294916" ry="18.6054752"></ellipse>
                    <path d="M335.859508,56.4797348 C333.495701,58.1864613 327.873649,54.8219367 322.819849,48.853461 C322.372227,48.3257901 321.929748,47.7779008 321.492413,47.2097931 C321.172078,46.792439 320.863332,46.3751515 320.566176,45.9579304 C315.880196,39.3958662 314.02786,32.9591644 316.448169,31.212876 C318.886273,29.4525702 324.785659,33.0833467 329.957351,39.3998445 C330.24614,39.7537278 330.532109,40.1147188 330.81526,40.4828176 C331.794057,41.7549172 332.699282,43.0786635 333.526763,44.4479547 C336.859979,49.993137 337.943438,54.9749911 335.859508,56.4797348 Z" id="Path" fill="#000000" opacity="0.2"></path>
                    <path d="M332.307692,44.9289378 L322.171214,49.2304272 L314.91871,52.3076923 L313.846154,50.8607833 L320.03762,46.4032451 L328.928439,40 C329.201842,40.3455279 329.472575,40.6979957 329.74064,41.0574034 C330.667294,42.299473 331.524295,43.5919705 332.307692,44.9289378 L332.307692,44.9289378 Z" id="Path" fill="#D0CDE1"></path>
                    <circle id="Oval" fill="#D0CDE1" cx="313.076923" cy="53.0769231" r="2.30769231"></circle>
                    <path d="M311.958402,75.1380602 C311.81597,75.0133909 311.640919,74.9279601 311.451836,74.8908382 C299.39218,72.5061922 291.803828,65.8610084 288.253936,54.5762331 C288.082721,54.0338106 287.484708,53.7266807 286.917751,53.8899897 C286.350793,54.0532988 286.029267,54.625297 286.19934,55.1680485 C289.94462,67.07377 298.294573,74.3858883 311.017812,76.9018011 C311.49085,76.9952378 311.970815,76.774668 312.190382,76.3629418 C312.409948,75.9512157 312.314986,75.4498383 311.958385,75.1380602 L311.958402,75.1380602 Z" id="Path" fill="#04CCFC"></path>
                    <path d="M315.041314,67.3993314 C314.901387,67.2713327 314.729317,67.1836677 314.543445,67.1456817 C305.656439,65.3110167 300.064636,60.1991102 297.448492,51.517823 C297.280014,50.9615595 296.692436,50.6467067 296.1354,50.8142053 C295.578365,50.981704 295.262349,51.5682639 295.429185,52.125021 C298.249366,61.4836476 304.536501,67.2312155 314.116896,69.2089415 C314.581808,69.3048042 315.053525,69.0785001 315.269319,68.6560718 C315.485114,68.2336434 315.391785,67.7192334 315.041314,67.3993483 L315.041314,67.3993314 Z" id="Path" fill="#04CCFC"></path>
                    <path d="M308.874712,85.7257105 C308.729584,85.5882637 308.551117,85.4941283 308.358334,85.4533395 C296.090382,82.8314796 282.674905,70.1341897 279.063679,57.726921 C278.888939,57.129601 278.279517,56.7915096 277.701773,56.971371 C277.124029,57.1512323 276.796266,57.7810849 276.969304,58.378935 C280.784156,71.4860142 294.955992,84.8991844 307.915911,87.6688656 C308.398108,87.7718119 308.887369,87.528806 309.111187,87.0751956 C309.335006,86.6215851 309.238203,86.0692029 308.874695,85.7257105 L308.874712,85.7257105 Z" id="Path" fill="#04CCFC"></path>
                </g>
            </g>
        </g>
    </g>
</svg>