<?xml version="1.0" encoding="UTF-8"?>
<svg width="400px" height="253px" viewBox="0 0 400 253" version="1.1" xmlns="http://www.w3.org/2000/svg" xmlns:xlink="http://www.w3.org/1999/xlink">
    <!-- Generator: Sketch 64 (93537) - https://sketch.com -->
    <title>undraw_reviewed_docs_neeb</title>
    <desc>Created with Sketch.</desc>
    <g id="WebDesktop" stroke="none" stroke-width="1" fill="none" fill-rule="evenodd">
        <g id="TermsOfService" transform="translate(-738.000000, -390.000000)" fill-rule="nonzero">
            <g id="terms" transform="translate(50.000000, 340.000000)">
                <g id="undraw_reviewed_docs_neeb" transform="translate(688.000000, 50.000000)">
                    <rect id="Rectangle" fill="#3F3D56" x="302.367991" y="242.793277" width="97.1698113" height="1"></rect>
                    <polygon id="Path" fill="#A0616A" points="361.307075 105.239139 361.307075 111.730413 365.859906 118.870344 369.112264 105.888266"></polygon>
                    <path d="M360.656637,47.4703507 L364.213396,46.4568835 C364.213396,46.4568835 369.762708,47.4703507 369.762708,53.9612627 C369.762708,60.4521746 371.063571,86.4157235 371.063571,86.4157235 L369.762708,101.344779 C369.762708,101.344779 371.714005,101.993869 371.063571,103.941134 C370.413137,105.888398 369.112297,110.432003 368.461825,109.782918 C367.811354,109.133833 367.811392,107.835653 367.811392,107.835653 C367.811392,107.835653 357.404458,109.782918 358.054892,107.835653 C358.705325,105.888389 358.705325,101.34476 359.355759,101.34476 C360.006193,101.34476 358.705325,81.8720809 358.705325,81.8720809 L360.656637,47.4703507 Z" id="Path" fill="#E6E6E6"></path>
                    <polygon id="Path" fill="#A0616A" points="301.792453 102.967428 310.248113 113.352997 320.655189 125.685476 323.907075 110.756487 318.092925 109.845637 312.199528 101.020046"></polygon>
                    <path d="M322.931505,99.3974909 C322.931505,99.3974909 313.175005,104.590204 319.67934,139.641039 L321.630637,174.691859 L322.931505,232.460797 L335.940175,232.460797 L338.541906,175.340944 L346.347094,138.991949 L358.70533,171.44641 L354.152297,229.215353 L371.713995,231.811708 L377.56791,166.902795 L367.160976,118.870189 L359.355788,105.239313 L357.729703,101.669348 L322.931505,99.3974909 Z" id="Path" fill="#2F2E41"></path>
                    <path d="M324.882807,230.513519 L322.931505,236.355317 C322.931505,236.355317 320.329774,246.740749 329.43584,245.442569 C338.541906,244.14439 335.289741,238.302577 335.289741,238.302577 L334.639307,230.513519 L324.882807,230.513519 Z" id="Path" fill="#2F2E41"></path>
                    <path d="M354.802741,228.566249 C354.802741,228.566249 352.851448,235.057142 352.851448,238.302577 C352.851448,241.548012 354.152316,242.960196 354.152316,242.960196 C354.152316,242.960196 391.227019,245.44256 390.576585,242.197111 C389.926151,238.951662 386.023552,237.653487 386.023552,237.653487 L376.917486,235.706232 L370.413146,230.513519 L357.404476,227.26807 L354.802741,228.566249 Z" id="Path" fill="#2F2E41"></path>
                    <ellipse id="Oval" fill="#A0616A" cx="339.842774" cy="18.9104286" rx="12.3582358" ry="12.3326964"></ellipse>
                    <polygon id="Path" fill="#A0616A" points="348.949057 24.1029162 350.9 42.2775431 346.34717 50.715729 335.289623 38.3832491 333.988679 27.9976808"></polygon>
                    <path d="M345.046259,42.926727 L334.844844,34.8312276 L332.688009,37.734004 L316.42716,44.2248971 L317.077594,72.784824 C317.077594,72.784824 317.728028,96.8011271 321.630627,99.3974815 L320.004547,101.669296 L358.705335,103.292015 L358.705335,85.7666196 L367.160967,48.1194405 L352.201,39.6812828 L350.339208,37.0533569 L345.046259,42.926727 Z" id="Path" fill="#E6E6E6"></path>
                    <path d="M319.028906,45.5230861 L318.081509,43.5645382 L315.776736,44.2249065 C315.776736,44.2249065 311.223703,46.1721759 307.971547,54.6103336 C304.719392,63.0484914 295.613311,81.8720809 295.613311,81.8720809 C295.613311,81.8720809 293.011575,85.1175299 294.962877,88.3629741 C296.914179,91.6084183 298.865476,98.7484011 298.865476,98.7484011 C298.865476,98.7484011 296.914179,98.0993114 298.215047,100.69567 C299.515915,103.29203 299.51591,105.888384 303.418514,105.239294 C307.321118,104.590204 315.126316,102.64294 314.475882,100.69567 C313.825448,98.7484011 313.175014,95.5029569 311.874146,95.5029569 C310.573278,95.5029569 308.621981,85.7666196 308.621981,85.7666196 L309.922844,80.5739014 L319.679349,68.8902994 L319.028906,45.5230861 Z" id="Path" fill="#E6E6E6"></path>
                    <path d="M341.143642,9.82317635 C341.143642,9.82317635 339.19234,9.82317635 339.19234,9.17408657 C339.19234,9.17408657 332.388906,8.96687417 329.611505,11.9913656 C326.834104,15.0158569 327.484538,10.472252 327.484538,10.472252 C327.484538,10.472252 320.329774,7.22680781 326.183675,3.9813589 L326.834104,4.63044868 C326.834104,4.63044868 328.134972,2.68317933 332.688005,2.03409426 L332.037571,1.38500448 C332.037571,1.38500448 332.037571,0.735914696 335.289741,0.735914696 C338.54191,0.735914696 346.997542,-2.50953421 347.647976,4.63044868 C347.647976,4.63044868 352.851443,2.68317933 352.851443,9.17407245 C352.851443,15.6649656 352.201009,18.9104145 352.201009,18.9104145 C352.201009,18.9104145 350.900142,15.6649656 348.29841,17.6122349 C345.696679,19.5595042 341.143642,9.82317635 341.143642,9.82317635 Z" id="Path" fill="#2F2E41"></path>
                    <ellipse id="Oval" fill="#E6E6E6" cx="50.2362453" cy="217.730538" rx="50.2362453" ry="5.18035235"></ellipse>
                    <rect id="Rectangle" fill="#E6E6E6" x="19.7595896" y="142.222024" width="60.9533113" height="75.5328549"></rect>
                    <rect id="Rectangle" fill="#FFFFFF" x="28.5665189" y="168.600718" width="43.5380802" height="2.00529541"></rect>
                    <rect id="Rectangle" fill="#FFFFFF" x="28.5665189" y="175.619259" width="43.5380802" height="2.00529541"></rect>
                    <rect id="Rectangle" fill="#FFFFFF" x="28.5665189" y="182.637795" width="43.5380802" height="2.00529541"></rect>
                    <rect id="Rectangle" fill="#FFFFFF" x="28.5665189" y="189.656336" width="43.5380802" height="2.00529541"></rect>
                    <path d="M62.1958398,110.842554 C62.1901962,116.768011 57.8173856,121.78674 51.9380287,122.615571 C46.0586719,123.444401 40.4638948,119.830833 38.8137089,114.138804 C37.163523,108.446774 39.9606517,102.41034 45.3752593,99.9784372 C50.789867,97.5465348 57.1724118,99.460035 60.3475377,104.467157 C61.5553213,106.375133 62.1962096,108.585766 62.1958398,110.842554 Z" id="Path" fill="#E6E6E6"></path>
                    <path d="M60.3475377,104.467157 L48.5749434,116.213253 C47.835033,115.070106 43.7128302,109.757565 43.7128302,109.757565 C44.2411174,109.224738 44.8048642,108.728128 45.4002217,108.271124 L48.8184858,112.819403 L58.9689009,102.689946 C59.4836677,103.237563 59.9452765,103.832627 60.3475377,104.467157 L60.3475377,104.467157 Z" id="Path" fill="#FFFFFF"></path>
                    <ellipse id="Oval" fill="#E6E6E6" cx="212.790868" cy="214.691477" rx="50.2362453" ry="5.18035235"></ellipse>
                    <rect id="Rectangle" fill="#E6E6E6" x="182.314212" y="139.182964" width="60.9533113" height="75.5328549"></rect>
                    <rect id="Rectangle" fill="#FFFFFF" x="191.121146" y="181.2294" width="43.5380802" height="2.00529541"></rect>
                    <rect id="Rectangle" fill="#FFFFFF" x="191.121146" y="188.247941" width="43.5380802" height="2.00529541"></rect>
                    <rect id="Rectangle" fill="#FFFFFF" x="191.121146" y="195.266482" width="43.5380802" height="2.00529541"></rect>
                    <rect id="Rectangle" fill="#FFFFFF" x="191.121146" y="202.285019" width="43.5380802" height="2.00529541"></rect>
                    <path d="M204.458717,166.067506 L190.625778,166.067506 C189.681792,160.621598 189.681792,155.054376 190.625778,149.608468 L204.458717,149.608468 C202.90033,154.984607 202.90033,160.691367 204.458717,166.067506 L204.458717,166.067506 Z" id="Path" fill="#FFFFFF"></path>
                    <rect id="Rectangle" fill="#FFFFFF" x="210.210915" y="151.149946" width="25.4530283" height="1.67108186"></rect>
                    <rect id="Rectangle" fill="#FFFFFF" x="210.210915" y="157.165837" width="25.4530283" height="1.67108186"></rect>
                    <rect id="Rectangle" fill="#FFFFFF" x="210.210915" y="163.181728" width="25.4530283" height="1.67108186"></rect>
                    <rect id="Rectangle" fill="#FFFFFF" x="210.210915" y="169.197618" width="25.4530283" height="1.67108186"></rect>
                    <path d="M224.750462,108.195192 C224.744826,114.120675 220.372,119.13943 214.492618,119.968268 C208.613235,120.797106 203.018432,117.183523 201.368239,111.491468 C199.718046,105.799413 202.515189,99.762953 207.929822,97.3310431 C213.344455,94.8991331 219.727026,96.8126474 222.90216,101.819795 C224.109944,103.727771 224.750833,105.938404 224.750462,108.195192 L224.750462,108.195192 Z" id="Path" fill="#E6E6E6"></path>
                    <path d="M222.90216,101.819795 L211.129571,113.565886 C210.389656,112.422744 206.267453,107.110203 206.267453,107.110203 C206.795741,106.577376 207.359488,106.080764 207.954844,105.623758 L211.373108,110.172037 L221.523542,100.042584 C222.038303,100.590202 222.499905,101.185265 222.90216,101.819795 Z" id="Path" fill="#FFFFFF"></path>
                    <ellipse id="Oval" fill="#3F3D56" cx="132.443896" cy="246.036547" rx="58.8756981" ry="6.07124799"></ellipse>
                    <rect id="Rectangle" fill="#04CCFC" x="96.3334717" y="158.884739" width="71.4358491" height="88.5227328"></rect>
                    <rect id="Rectangle" fill="#FFFFFF" x="106.53859" y="177.686031" width="51.0256038" height="2.35016142"></rect>
                    <rect id="Rectangle" fill="#FFFFFF" x="106.53859" y="185.911591" width="51.0256038" height="2.35016142"></rect>
                    <rect id="Rectangle" fill="#FFFFFF" x="106.53859" y="194.137156" width="51.0256038" height="2.35016142"></rect>
                    <rect id="Rectangle" fill="#FFFFFF" x="106.53859" y="202.362721" width="51.0256038" height="2.35016142"></rect>
                    <rect id="Rectangle" fill="#FFFFFF" x="106.53859" y="210.588286" width="51.0256038" height="2.35016142"></rect>
                    <rect id="Rectangle" fill="#FFFFFF" x="118.706236" y="219.20554" width="26.690316" height="9.40064569"></rect>
                    <path d="M150.231439,120.846483 C150.222963,129.750846 143.651811,137.292644 134.816725,138.538154 C125.981639,139.783665 117.574199,134.353448 115.094416,125.799863 C112.614633,117.246278 116.817965,108.175148 124.954661,104.520659 C133.091356,100.86617 142.682597,103.74165 147.453948,111.266007 C149.268916,114.133173 150.231995,117.455149 150.231439,120.846483 L150.231439,120.846483 Z" id="Path" fill="#04CCFC"></path>
                    <path d="M147.453948,111.266007 L129.762967,128.91719 C128.65108,127.19936 122.456538,119.216053 122.456538,119.216053 C123.250409,118.41536 124.097567,117.669091 124.992226,116.982339 L130.128939,123.817157 L145.382241,108.595377 C146.155791,109.418285 146.849461,110.312492 147.453948,111.266007 L147.453948,111.266007 Z" id="Path" fill="#FFFFFF"></path>
                </g>
            </g>
        </g>
    </g>
</svg>